<svg xmlns="http://www.w3.org/2000/svg" viewBox="0 0 295.3 85.4">
  <path fill="#e69ee6" stroke="#e2e511" stroke-linecap="round" stroke-linejoin="round" stroke-width="2.2" d="m63.4 232.7 125.7.4q0 0 0 0c11 1.2 19.2 6.1 19.3 12v.2c0 6-8.2 11-19.3 12.3q0 0 0 0l-5 .2a13991 13991 0 0 1-120.8-.2c-13.5 0-24.3-5.6-24.3-12.4v-.2c0-6.9 11-12.3 24.4-12.3" class="UnoptimicedTransforms" transform="translate(-243.20323,-35.106919) matrix(1.7216541,0,0,3.1255062,177.85439,-688.78537)"/>
  <path fill="#32e6fb" d="m141.5 20.2 7.1 3-.8 11.2 1.1 6.2 2.3 2.3 2.7-.5 1.8-6.5.8-13 8.3-1.3v27.3L161 59l-5 4.7-5.3 2.4-6.5-4-3.7-9-1.8-17.6z"/>
  <path stroke="#000" stroke-width="1.4" d="M141 19.4c-.2-.3-.7 1.8-1.1 2.9q-.5 1.5-.7 3l-.4 4.7-.5 5.7-.1 5.9.2 6.1a28 28 0 0 0 3 10.9q1.3 2.4 3.3 4 3.6 3.2 8 4.1 1.6.3 3-.5 1.2-.7 2-1.6l1.9-1.8 2-2.6 1.8-4a33 33 0 0 0 2.9-10.2q.4-2.2.4-4.6l.2-5 .1-4.6-.1-4.6q0-1.8-.3-3.7c-.6-2-1.7-1.8-4-3.3l-1.6.4q-1.4.4-2.9.5-1.1 0-2.2.3-.7 0-1 .4-.5 1-.5 2.3v3.2q.2 2 .1 4l-.2 3.5-1 5.6a3 3 0 0 1-3 1.8q-.7-.1-1.4-.6c-1.4-.7-1.2-.6 2.9 1.8l-.4-.2-.8-.8q-.8-1-1-2.4l-.1-3.3v-3.6l.2-3.3q.1-1.2.4-2.3.3-1.2.2-2.4V24q0-.5-.4-.8a12 12 0 0 0-4.3-2.7l-1-.1-1.2-.2-1.2-.3-.7-.2-.4-.2q.7.8 1.5 1.3l1.7 1.4.5.2.7.2 1.2.2 1.2.2 1 .3-2.9-1.8.5.7q.3.5.2 1l-.1 2.3-.4 2.4-.3 3.4v3.6l.1 3.3q.1 1.4.8 2.6c1.3 1.8 3.6 2.7 5.3 3.7q.9.4 1.7.4 1 0 1.7-.7.9-.5 1.3-1.6l.6-2.8a70 70 0 0 0 .5-10.6V26q0-1 .3-1.9l1-.2 2.2-.3q1.5-.1 3-.5c.3 0 1-.4 1.3-.1l-3.4-2.1h.1q.4.4.5.9.4 1.8.5 3.6v9.2l-.2 5a47 47 0 0 1-5 18.6q-.9 1.5-1.9 2.5-.8 1-1.8 1.8-.8 1-2 1.5-1.2.7-2.7.5l-2.3-.7c-1-.4-3-1.6 1.3 1l-.8-.6a13 13 0 0 1-3.3-4 28 28 0 0 1-3.3-10.8l-.2-6v-6l.4-5.8.5-4.6q0-1.5.4-3.1l1-3.3-2.4-.7z"/>
  <path fill="#32e6fb" d="m175.3 42 1.1 20.6 2.5.8 8-.6.9-19.6-1-3.8-12.6 2.3zm4.6-20.6-4.4 3.7-.3 5.3 3.1 2.6 4 1.2 5.8-2 1.9-3.6-1.8-3.8-2.8-3.2z"/>
  <path stroke="#000" stroke-width="1.3" d="m177.3 42.4 8.3-1.3q1.2-.1 2.2-.4c.6.8 0 0-2.4-1.2l.2.7q.3 4 .2 7.9v10.3l-.2 2.9v.8-.1c0-.2-.8-.2-1-.2q-1.8.3-3.6.2l-4.4.3h-1.3c-1-1 .1 0 3 1.6v-.2l-.1-.8-.3-5-.5-7-.2-4.8q-.2-1.3 0-2.7l.2-1.3q0-.3-.4-.4l-2.3-1.1c-.1 0-.5-.4-.4 0v1.2l-.2 2.9.3 4.8.4 7 .1 4.8c0 2 .1 1.2 3.2 3 .2 0 1.4.2 1.5 0l4.4-.2h3.7c.2 0 1.1.3 1.2.2h.1q.3-.4 0-.8l.2-.5-.2-3-.2-10.5v-4q0-2-.3-4c-.3-1-1.2-3-3-2.4l-2.2.4q-4 .8-8.3 1.3zm5.3-21.2q-1.6-.6-3.3-.4-1.6.3-3 1.4a8 8 0 0 0-2.2 3.7 6 6 0 0 0 .2 3.4q.5 1.4 1.4 2.4 2 1.7 4.5 2.7l1.2.3a11 11 0 0 0 8-2.3q1.5-1.2 2-2.8.3-1.2-.1-2.4l-1.1-2.3c-1.4-1.6-3.7-2.5-5.4-3.5l-2.2-.8H181c-.4 0 0 .2.2.4l.6.5v.3h.5q1 .8 2 1l1.5.2q1 .3 2 .9c-5.9-3.4-2.4-1.7-1.3-.6q.8 1 1.2 2.2.4 1 .3 2.3-.4 1.6-1.6 2.7-1.5 1.4-3.5 1.9t-4.3.3c-1.5-.4-2.6-1.2 1.4 1l-.5-.2q-.4-.2-.7-.6a7 7 0 0 1-1.7-2.3 6 6 0 0 1-.4-3.4q.5-2 2.2-3.4a6 6 0 0 1 2.7-1.5q1.5 0 2.9.4z"/>
  <path fill="#32e6fb" d="m97.8 27.4-6.2 14 .6 11.5 4.5 7.4 6.2 4.2 8.6 1.7 8.7-4.4 2.2 1.1 5-9 .9-3.8 1.4-14.8-.6-8-6.8-7.9-9.6-1.1z"/>
  <path fill="#d3ff64" d="M111.5 57.2s1.7-1.9 2-2.7c.1-.8 1.7-5.5 1.7-5.5l1.2-.3 1.8-16.4-3.2-3.9-8.6 2-4.7 11-.2 11.9 6.3 4.7z"/>
  <path stroke="#000" stroke-width="1.5" d="M131.1 31.6c.5-3.6-1.7-6.8-3.8-9.5q-4.5-4-10.6-5.3c-7.2-.9-14 3.1-18.5 8.4a24 24 0 0 0-5.4 8.6 28 28 0 0 0-.8 20.3c1.8 4.9 6.3 8 10.8 10.2 3.2 1.6 6.7 3.3 10.3 2.6 3.4-.4 7.6-2.7 9.1-4 1.2-1.6 1.6-1 0-1.5l-2.5-1.3c2.4 1.5-1.3-.2 1.1.5.9.4.2 1.8 0 1.6-1.7-.7.7-2-.6-2.5 2 .9.3 4.2 2.6 2.7a65 65 0 0 0 7.5-12.7c1-1.9 2.4-17.9.4-10.1-1.8-1.2-4.8 14.5-2.8 12.2a37 37 0 0 0 4-16.1c-.2-1.8.7-4.7-1.2-5.7-1.1-.6-2.9-.6-3-2.2 0-1-.7-3.7-.4-1.2.5 4 .4 7.6.2 12.2-.4 4.3-.2 5-1 9.2-1.3 5-4.6 8.9-5.6 11-4.6 3 6.3-7 4-4.6-1 1.5-2.2 3.8-3.5 5.5 2.7 1.3 3.8.8-.3.4 1 .5 2.2.7 2.3.8-2.4-2 1 .1-2-1.1-1-1.6-2.2.4-4.7 1.6a14 14 0 0 1-12.4 2.6q-2.3-1 0 .1l.8.4c-4.3-2-8.1-5.3-9.7-9.9a28 28 0 0 1 .8-19q1.6-4.9 5.2-8.6c4-4.6 9.7-8.4 16-8.4 1.8-.3 5.8 1 6 1.2-1.2-.5-5-2.5-2-.9a18 18 0 0 1 6.8 9.3q0 2.4 2.1 2.9.5 0 .8.3z"/>
  <path stroke="#000" stroke-width="1.5" d="M113.4 27.9a10 10 0 0 0-4.1.2 8 8 0 0 0-3.6 2.3 23 23 0 0 0-5.5 10l-.9 5.3q-.1 2.6.6 5 .8 2.3 2.3 4.1 2.8 2.6 6.7 3.7 1.5.3 2.9.1 1 0 1.9-.4c1-.7.4-.3.8-.7 3.1-4.8 1-.8 4.2-7.7l1-2.6 1.4-7.5a21 21 0 0 0-.5-6.2 10 10 0 0 0-1.6-3.3 7 7 0 0 0-5-2.5c-.3 1.4 1.1 0-.5.8h.1l.5-.2 2.6 1c1.7.7.3.2-3.3-1.6l.3.1 1 .8q1.3 1.5 1.6 3.2l.6 3a21 21 0 0 1-.5 6.6l-.8 4-1 2.4c-8.5 15.8-2.7 5.7-4.8 8.2-.9.6-1 .4-1.7.5q-1.4 0-2.7-.3-2.3-.9 2.8 1.5c.2 0-.3-.2-.5-.3q-.9-.5-1.6-1.2-1.7-1.8-2.6-4-.8-2.4-.7-5t.7-5.3a26 26 0 0 1 1.8-5.4 19 19 0 0 1 3.2-4.7c1-1 1.8-2 3.2-2.3q1.8-.5 3.5-.4z"/>
</svg>