<svg xmlns="http://www.w3.org/2000/svg" viewBox="0 0 295.3 85.4">
  <path fill="#e69ee6" stroke="#e2e511" stroke-linecap="round" stroke-linejoin="round" stroke-width="2.2" d="m63.4 232.7 125.7.4q0 0 0 0c11 1.2 19.2 6.1 19.3 12v.2c0 6-8.2 11-19.3 12.3q0 0 0 0l-5 .2a13991 13991 0 0 1-120.8-.2c-13.5 0-24.3-5.6-24.3-12.4v-.2c0-6.9 11-12.3 24.4-12.3" class="UnoptimicedTransforms" transform="translate(-243.20323,-35.106919) matrix(1.7216541,0,0,3.1255062,177.85439,-688.78537)"/>
  <path fill="#32e6fb" d="m150.6 18.7 7.1 3-.8 11.1L158 39l2.3 2.4 2.7-.5 1.8-6.5.8-13L174 20v27.4l-3.8 9.9-5 4.8-5.3 2.4-6.5-4-3.7-9-1.8-17.6z"/>
  <path stroke="#000" stroke-width="1.4" d="M150.2 17.9c-.3-.3-.8 1.7-1.2 2.8q-.5 1.5-.7 3.1l-.4 4.6-.5 5.8-.1 5.8.2 6.2a28 28 0 0 0 3 10.9q1.3 2.3 3.3 4 3.6 3.1 8 4 1.6.3 3-.5 1.2-.7 2-1.6l1.9-1.8 2-2.6q1-1.9 1.8-4a33 33 0 0 0 2.8-10.1q.4-2.4.5-4.7l.2-5 .1-4.6-.1-4.5q0-2-.3-3.7c-.6-2.1-1.7-1.9-4-3.4l-1.6.5-2.9.4-2.2.3q-.7 0-1 .4-.5 1.1-.5 2.3v3.3q.2 2 .1 4l-.2 3.4-1 5.6a3 3 0 0 1-3 1.8q-.7-.1-1.4-.5l2.9 1.8-.4-.3-.8-.8q-.8-1-1-2.4l-.1-3.2v-3.6l.2-3.3.4-2.4q.3-1.2.2-2.3v-1.2q0-.5-.5-.8a12 12 0 0 0-4.2-2.7l-1-.2-1.2-.2-1.2-.2-.7-.2-.4-.2 1.5 1.3 1.7 1.4.5.2.7.1 1.2.2 1.2.2 1 .3c1.3.8-5.1-3.2-2.9-1.7q.3.2.5.6.3.6.2 1.1l-.1 2.3-.4 2.4-.3 3.3v3.6l.1 3.3q.1 1.5.8 2.7c1.3 1.7 3.6 2.6 5.3 3.6q.8.4 1.7.4 1 0 1.7-.6.9-.6 1.3-1.7l.6-2.7a70 70 0 0 0 .5-10.6v-3.2q0-1 .3-2l1-.2 2.2-.2 3-.5q.7-.3 1.3-.2l-3.4-2h.1q.4.3.5.8.4 1.8.4 3.7V33l-.1 4.9a47 47 0 0 1-5 18.7l-1.9 2.5-1.8 1.8q-.8.9-2 1.5t-2.7.4q-1.2-.1-2.3-.7c-1-.4-3-1.5 1.3 1l-.8-.6a13 13 0 0 1-3.3-4 28 28 0 0 1-3.3-10.7q-.3-3-.2-6.1v-6l.4-5.7.4-4.6q.1-1.5.5-3.2l1-3.2-2.4-.8z"/>
  <path fill="#32e6fb" d="m214.9 24 1.6 26 .1 12.3 8.7.4 13.8-1.5-.6-10.7-11 .2-2-2.7.6-3 5.2-1.5-.6-6.4-5.1-.1-.6-5.6 12.5.1 1.4-.3-1.4-9z"/>
  <path stroke="#000" stroke-width="1.1" d="M214.8 28.7q.5 5.5.7 11.1l.1 7.6a203 203 0 0 1-.6 14v.3c.2 1.5 2.3 1.8 3.5 2 4.3.3 8.6-.3 13-.6q4.2-.3 8.5-.3c.6 0 .6.2.9-.4l-.4-1q-.6-2.6-.5-5.4v-4.2c.2-1.6-2-2.2-3.3-2.4l-5.6-.1c-1.4 0-4.4 1-5.8 1h-.3v-.2c.7.5 3 .2 3.8.6v-.2c-.2-.3-2.7-.5-1.7-1-.4-1.3-.2-2.2-.4-3.7 0-.9 1.5-.7 2.1-.8l3-.3q1 .2 1.2-.7.2-1.8-.1-3.8l-.4-1.9c-.5-2-2.8-1.8-4.2-1.8H226c-.4 0-4.9-1.2.6 1.4l-.2-.4c-.2-.5-.2-2.2-.2-2.8v-1.6c.4-.3.9 0 1.2 0h.8l7.5-.3q2.3 0 4.4-.6h.6l.2-.4-.2-.5-.2-1.6-1-5.8v-1.7c-.7-2.7-2.5-2-3.8-1.5q-2.9.8-5.7 1-3.9.4-7.8.5l-6.2.6-1 .2h-.8q-.3 0-.4.4l.1 2.7c.3.8 0 2.8.4 3.4l.8 1 .5.9v.5-.5q.3 0 .5-.3l.7-.2v-.7l-.2-2.6q-.2-1.2-.1-2.5h1.1l1-.2q3-.5 6-.7l7.9-.5q3-.3 5.8-1l.5-.2h.3c-.1-.2-2.2-3-2.5-1.9l.2 1.8.9 5.8.2 1.6v.6l.2-.3-.5.2-4.2.6-7.5.3c-.6 0-1.6-.2-2 .3q-.3.9-.2 1.8c0 2.4.1 5 3.3 5.3l3.8-.2h1.3l.2.1c-2.2-1.5-3.3-1.9-2.3-1.5q.3.8.4 1.8.4 1.8.2 3.6c-.2.6-.5.3-1 .4-1 .2-3.4 1.2-4.4 1.3q-.9-.1-.7 1l.1 3.5v1.7c1.3 1 3.4 1 4.6 1l4.4-.1q2.9 0 5.6.3h.4l.2.2-2.5-1.8v4.6l.2 5.4.2.8.2-.3h-.7l-8.1.7c-4.3.4-8.6.9-13 .6-1.4-.3-.7-.2 1.7 1.5v-1.3l.3-2-.1-11.2q-.2-9.6-1.3-19z"/>
  <path fill="#32e6fb" d="m206.2 63.6.7-9.4c-1-.2-4.8-.5-5.9-.2q-1.7.4-3.4.4l-2.3-1.7 1-32.3-11.9.5-.7 7 1 24c0 3 1 4.4.3 9.2 6 .8 5.6 2 11.7 2.7z"/>
  <path stroke="#000" stroke-width="1.3" d="M207.7 64.3c1-2.6-.2-6 .3-8.8-.1-2.6-1-3.8-8.9-2.3q-2.5.4-4.7-.5c.8.5 2.8 3.1 2.4.7l.4-17c.1-5.1 0-10.4.8-15.6l-2.8-2h-8.3c-1.5.3-4.5-.9-4.7 1.3q.5 5.3.3 10.5l.6 19c1 2.5 0-3-.1 1.6-.2 6-.4 6.8-.4 9.8-2.2 4.4 4.2 1.5 12 4q3.3.8 6.6 1.1c1.6-.3 7.3 0 6.7-2.3-.8-2.2-1.5.3-6.4-.4-1.8 0-3.7.5-5.5 0-9.7-.7-12.2-4-12.2-4.1.9.3 3 3.1 1.3 2.6q.7-4.7 1-9.6c-.5-4-2.9.6-1.6.8 2.5.3 1.1-2.8 1.3-4.2q-.4-9.4-.6-18.9c.1-2.8-.3-5.6-.2-8.4 1.4-1 4-.2 5.9-.4 1.3-.1 4.4.4 4.6-.3-.5-.2 0-2.8-.2-.6-.7 6.7-.2 13.5-.6 20.3-.2 4 0 8-.4 12 .7 1.6 2.5 2.5 4.1 2.8 2.3.2 7.3-.4 9.6-.5 0-.3-1.9-1.5-1.8-1.6q0 4-.7 7.3c-1 5.3-.3 3 .4 3.6z"/>
  <path fill="#32e6fb" stroke="#000" stroke-linecap="round" stroke-linejoin="round" stroke-width="1.5" d="M74.3 21.1q-.8 3.7-1.2 7.3l-.2 4.7-.2 6.3q0 3.9-.3 7.8-.8 3.6-1.2 7.2l-.3 3.2v3q-.1 1.8.4 3.5 0 .4.3.8c.7.7 1.9.5 2.8.5h2q1 0 2-.3.8.1 1.5-.3c.5-.4.6-2 .7-2.7q.8-3.7 1-7.7 0-1 .3-2.3.1-1 1-.6c1 .7 1.6 3.2 1.9 4.2l1.1 2.5.5 1.2.6 1.4q.4 1.3 1.2 2.2l.6.7c.8.5 2.4.2 3.3.2 1.4 0 1.8-.4 3-.8q1 0 1.8-.7.8-.8 1-2c.9-2 1.1-4.1 1.4-6.2l.7-4.9.6-3 .8-3.9 1.3-4 .9-5.3.5-3.7V26l.2-1.5V22c0-.7.3-1.7-.2-2.4-.7-.8-2.2-.7-3.2-.6q-1 0-2.1.4l-1.7.4q-.8.4-1.5 1-.6 1-.7 2l-.5 2-1 5.1-1.2 4.1c-.2.5-.9 3.1-1.4 3.4l-.8-.5q-.6-.3-1-.9c-.6-1-1.2-3-1.3-4.1l-.5-3.8-.6-4c-.2-.9-.4-2.7-.8-3.4-1.7-2.8-7.1-.8-9.5 0l-1.4.3-.1-.1z"/>
  <path stroke="#000" stroke-linecap="round" stroke-linejoin="round" stroke-width="1.5" d="M73 63.8c.4-2.1.2-4.4.3-6.6l.5-19.9c.4-5 .5-10.1 2.1-15 .2-2 3.3-.9 5.2-1.7q3.3-.6 6.7 0c-1.4-.4-3.6-2.2-4.7-2.7 1.4 2 1.1 4.7 1.8 7q.7 6.1 2.3 12.1c1 2.3.7 6.1 3.9 6.6 2.4 2 2.6-2 3-3.6l3.7-17.3c.6-1.1.3-3 1.6-1.9 2.5.4 5 .2 7.5.6.6 1.5-2.3-1.5-3.2-1.7-2.1-2.1-.2 2.1-.7 3.2q-.3 9.2-2.3 18.2L96 59.7c0 2.4-1.6 2-3.5 2.7-1.3.4-4.4.8-4.7 1 1 .5 3.1 1.9 3.4 1.8q-2.5-3.9-4-8.1l-4.4-12c-1.2-1-4.3-2.4-3.7.4-.2 4 .5 8 .1 11.9.2 2.1-1 6.1-.4 7 1.1.4 4 2.4 4.1 2.1-1.7-2.2-4.4-3.7-7.3-3.2-2.3.3-3.4 0-5.7 0l3.3 2.5c-.7.3.3-2.5-1.4-3-1.1-.3-.5-1.4-1.4-.7 0-7-2.5 3.8 0 4.2 3.1 1 6.3-.4 9.5-.2 1-.1 2.8.7 1-.2l-4-2.3q2.8 1.6 5.8 3c-1.1-2.6-.4-5.8-.6-8.6.2-3.9 0-7.8.4-11.6-.3-2 1.2 1-1 .2-1.2-.4-1.6-2.4-2.1-2.7 2.3 4 3.2 8.6 5 12.7l2.7 7c2 1.3 3.7 3.5 6.1 2 2.3-.8 5.1-.4 7.1-.9.6-7.3 2.5-14.4 4-21.6A90 90 0 0 0 107 26c0-2 1-4.1 0-6-.7-3-4-1.5-6-1.4q-3.3 0-6.5-.8c-.5 1.9-.5 4-1 6q-1.7 7.9-3 15.7c-.2 1.6-2.2 3 .2 3.3.8.2 3.4 1.5 1.9.9Q90.3 36 89 28.3c-.6-2.8-.4-5.8-1-8.6-1-2.5-3.8-2.4-6-2-3.2-.3-6.3 1-9.4.8-.6 2.2-.1 4.8-.5 7.2-.6 6-.6 11.9-1 17.8q-.3 9.5-1.3 19c.3.7 1.8.4 2.5 1z"/>
  <path fill="#32e6fb" stroke="#000" stroke-linecap="round" stroke-linejoin="round" stroke-width="1.4" d="M112.3 20.6q-.8 3.6-1.2 7.3 0 2.4-.2 4.7l-.2 6.3-.2 7.8-1.2 7.2-.2 3.2v3q-.1 1.9.4 3.5 0 .5.2.8c.7.8 1.8.5 2.6.5h2l1.7-.3q.7.1 1.4-.3c.5-.4.5-2 .6-2.7q.8-3.7 1-7.7l.2-2.3q.1-1 1-.6c1 .7 1.4 3.2 1.7 4.2l1 2.5.5 1.2.6 1.5q.3 1.1 1 2.1l.6.7c.7.5 2.2.2 3 .2 1.3 0 1.7-.4 2.9-.8q.9 0 1.6-.7.6-.8 1-2 1-3 1.2-6.2l.6-4.9.6-3q.3-2 .8-3.9l1-4q.6-2.6.9-5.4l.5-3.6v-3.6l.2-1.5v-2.4q.2-1.2-.2-2.4c-.6-.9-2-.8-2.9-.7l-2 .4-1.6.4-1.3 1q-.7 1-.7 2.2l-.4 2-1 5-1 4.1c-.2.5-.9 3.1-1.4 3.4l-.7-.5-.9-.9c-.6-1-1-3-1.3-4.1l-.3-3.9-.6-4c-.2-.8-.4-2.6-.8-3.3-1.5-2.9-6.5-.9-8.8 0q-.5.3-1.2.2h-.1q-.3 0-.4.3"/>
  <path stroke="#000" stroke-linecap="round" stroke-linejoin="round" stroke-width="1.4" d="M111 63.3c.4-2.1.2-4.4.3-6.6l.5-19.9c.4-5 .4-10.1 2-15 .1-2.1 3-1 4.7-1.8q3.1-.6 6.2.1c-1.3-.4-3.4-2.2-4.3-2.7 1.3 1.9 1 4.7 1.6 7q.7 6 2.2 12c.8 2.4.6 6.2 3.5 6.7 2.3 2 2.4-2 2.8-3.6 1.2-5.8 2-11.6 3.4-17.3.5-1.1.2-3 1.5-2 2.3.4 4.6.3 7 .7.4 1.5-2.2-1.6-3-1.8-2-2-.2 2.2-.7 3.3q-.3 9.2-2.1 18.2l-4.3 18.6c0 2.4-1.4 2-3.2 2.7-1.2.4-4 .9-4.3 1 .9.5 2.9 1.9 3 1.8q-2.1-3.9-3.6-8.1l-4-12c-1.1-1-4-2.4-3.4.4-.2 4 .4 8 0 11.9.3 2.1-.8 6.1-.3 7 1 .4 3.6 2.4 3.8 2.1-1.6-2.2-4.1-3.7-6.7-3.2-2.2.3-3.2.1-5.4 0l3.1 2.5c-.7.3.3-2.5-1.2-2.9-1.1-.4-.6-1.5-1.3-.8 0-6.9-2.4 3.8-.1 4.2 3 1 5.8-.4 8.8-.2.9-.1 2.5.7.9-.2l-3.6-2.3q2.5 1.6 5.3 3c-1-2.6-.4-5.8-.6-8.6.2-3.9 0-7.8.4-11.7-.3-1.8 1.1 1.1-1 .3-1-.4-1.4-2.4-1.9-2.7 2.1 4 3 8.6 4.7 12.7l2.5 7c1.8 1.3 3.3 3.5 5.6 2 2-.7 4.7-.3 6.5-.8.6-7.4 2.3-14.5 3.6-21.7a97 97 0 0 0 2.6-17.2c0-2 1-4.2 0-6-.6-3.1-3.7-1.5-5.6-1.5q-3 0-6-.7c-.4 1.8-.4 4-1 6q-1.4 7.8-2.6 15.7c-.2 1.6-2.1 3 .2 3.3l1.7.8a139 139 0 0 1-3.5-15.2c-.4-2.9-.3-5.8-.8-8.6-1-2.6-3.5-2.4-5.5-2-3-.3-5.8 1-8.8.7-.4 2.3 0 4.9-.4 7.3-.5 6-.5 11.9-1 17.8q0 9.5-1.1 19c.2.7 1.7.4 2.3 1z"/>
  <path fill="#32e6fb" stroke="#000" stroke-linecap="round" stroke-linejoin="round" stroke-width="1.5" d="M248.7 22.1c0 1.8-.7 3.5-.7 5.3 0 1.2.2 3 .5 4.2q.5 1.4.7 3V42l-.1 3.9v4.5l.2 2.4V55l-.2 3.8c0 .6-.5 2.8-.4 3.4 0 .2 1 .5 1.1.5.7 0 1.9-.6 2.7-.7h1.5q0 0 0 0v-.2l.2-1.5q.2-1.8.7-3.6l.7-2q.5-1.7 1.2-3l.5-.7q1-.6 2-.4l.7.3c.7.6 1.3 1.9 1.4 2.6l.2 1.2.1 1q.1 2.6-.1 5.3c0 .4-.3 2 0 2.3q.4.3 1.1.4l1.5-.1 2.6-.4c.5 0 3.4-1 3.6-1.4l.1-1 .1-2.6q0-2.7-.3-5.3l-.4-2.8-.3-1-.4-1.2-1-2-.5-.8q-1-1.3-2.2-2.5l-.3-.6-.4-.4c0-.2.6-.6.7-.7l1.4-1.4q1.9-2.3 2.3-5.3.3-2.7-.6-5.2c-.4-1.3-.9-3-1.6-4.1a8 8 0 0 0-1.9-1.9l-1.9-1q-.4 0-.8-.3-.6 0-1.1-.3l-2-.5q-2.6-.7-5.6-.6-1.7 0-3.2.7l-1 .7-.3.3z"/>
  <path stroke="#000" stroke-linecap="round" stroke-linejoin="round" stroke-width="1.5" d="M249.6 63.5c-.5 0-.4-3-.2-4.6.2-2.7.8-5.4.7-8.2l.2-10.6c-.6-4.7-.3-9.3-.1-14 .4-1.4-.7-3.7.7-4.3q5.2-1.5 10.4-.2c.9.2 3.4 1.4 3 1.3q-1.5-.9-.1.2 3 3 4 7.3c.8 2.8 0 6-2 8q-1.6 1.8-4 2.3c-.5 2.1 3 1.8 4.2 2.4.1.2-3.7-2.2-1.4-.6 2 2 3.2 4.8 4.2 7.5q1.2 4.9.6 9.9c0 1-1.6 2 0 2.2l1.3.8c-1.3-.5-1.2-2.4-2.4-1-1.5 0-3.6.6-5 .6-1 0-4.2-.5-1.9.6 1.7 2.2 1.1-1.7 1.4-2.9v-6.9c-.3-2-2.3-2.8-3.8-3.6-1.9-.6-4 .5-4.4 2.5-1 3-.8 6.2-1.3 9.3-1.3.3 1.6.7 2.1 1.4 1.4.5-1.4-.9-2-1.2-1.5-.3-3.5.1-5.2-.1-.5.6.8 1.2 1.5 1.6 1.6 1 3.3-.3 5 .1 1.4.4 1 .4 0-.3-.7-.3-3-1.6-1-.6.6.2 2.9 1.8 2 .4-.4-2 0-5 .2-7.6.3-1.9 1.3-4.1 3.5-4.1.8-.2 2.6.7 1-.1-.9-.4-1.8-1.2-.6-.2 1.7 2.2 1.4 5.1 1.3 7.7-.3 2.3-2 4.4.4 4.8.8.9 3.1.6 4 .7 1.4 0 2.9-.5 4.4-.5.7 0 2 .2.7-.4l-2.5-1.3c1 .4 2.6 3 3.2 1.2l.8-5c.5-4.8-1.4-9.3-3.7-13.3-1.2-1.8-3.3-2.7-5.2-3.7-1-.4-1.6-.4-.2 0 .6.3 2.5.6 1.9 1.6q2-1.6 3.8-3.7c1.6-2 1.7-4.8 1-7.3-1-2.3-1.4-5-3.2-6.9-1.5-1.8-3.8-3-6-3.9a19 19 0 0 0-6.6-1.1q-3.4-.2-6.6.8c-.6 1.6-.1 3.5-.2 5.2 0 3.9.7 7.7.8 11.6 0 3.8.7 7.5.3 11.2l-.5 8.4c-.1 3.4.2 3.6-.4 5.4-.2.9.9 1 1.6 1.3h2.5z"/>
  <path stroke="#000" stroke-linecap="round" stroke-linejoin="round" stroke-width="1.5" d="m255.5 26.8.1 2.2q0 1.4.3 2.7l.3 1.8q.2 1.5 0 3c0 .4-.3 1 .2 1.4l1.7.7 1.2-1.1q1.1-1.1 2-2.4.8-.8.9-1.7-.2-1.6-1.2-3a5 5 0 0 0-2.1-1.6l-1.1-.5q.5.2.5.5 1 .6 1.6 1.7t.5 2.6q-.1 1-.7 1.7a8 8 0 0 1-1.8 1.8l-1.5.7 1.2.7c.2 0 1.1.4.4.3q-.6-1-.7-2.1l-.1-1.9v-3.7l.1-2.6c2.7 1.5-.3-.3-.5-.5z"/>
  <path stroke="#000" stroke-linecap="round" stroke-linejoin="round" stroke-width="2.8" d="M25.8 62q3.4-7.9 6.4-15.8l5.2-11.7c2.8-5 5.5-10.3 9.3-14.7 1.2-1.4 3 .1 4.8-.5 2-.2 4.2-.8 6.3-.5-1.2-.5-4.3-4-3.1-.8.4 4 2.1 7.7 2.7 11.6q1.4 7.3 1.8 14.7c-.2 4.7.7 9.3 1.3 14 .2 1.2-.4 5.7-.5 5.2q-3 .2-6.4.2c-1.2.2-5.2-.6-2.3.6 1.3.3 3.8 3 2.7.3q-.4-2.9-1.2-5.6l-1.9-9c0-1.5-2.2-.8-4.2-1.6-2-.3-6-2.7-6.6.4l-3.3 7.4c-1 1.4-2.5 5.2-3.7 4.7-2.2-.7-4.7-.6-7-1-1.4-.2-3.7 0-1.4 1.3 1.2 1 3.1 2 5 1.7q3.7.3 7.5 1.2c0-1.8 1.1-4 2-5.9q2-3.1 3.6-6.4c1.3-2.4.4-3.1 2.5-2.2 3.3 1.6 4.8 1.2 5 1.5-.8-.2-4.2-1.7-3.2-1.9 1.5 2.7 2.1 5.8 2.7 8.8.4 5 .3 6.8 1.2 6.9 1.8 1 3.5 2 5.7 1.6 2.5 0 5-.3 7.4.1 1.2-.1.4-1 .3-3.1-.2-4.9-1.9-9.4-2-14.2q-.9-3.9-1-7.8c-.7-4.9-.8-9.9-2.2-14.6-.5-2.7-1.2-5.4-1.2-8-1.2-2.4-4-2.6-6.3-2-2.4.3-4.8.7-7.1.1-1.3 1.8-2.5 4.1-3.7 6-2.7 4.4-4.8 9-7.2 13.5q-3 6.5-5.7 13l-5.3 12.9c10.4 1.3 2.4-.8 3.1-.4"/>
  <path fill="#32e6fb" stroke="#000" stroke-linecap="round" stroke-linejoin="round" stroke-width="2.1" d="m25.2 60.3.5-1.2 1.6-3.5 1-2.3.7-1.6.5-1.3 2.4-5.4 1.2-2.6 1.9-4.2.8-1.7 1.7-3.8 2-3.6 1.4-2.6 1-1.4c.7-1 1-2.3 1.8-3.4a12 12 0 0 1 2.9-3l.4-.1q1.8-.4 3.8-.6l2-.2h1q.6 0 1 .2l.7.7.6.6.4 1.4q.6 1.5 1 3.3t.7 3.4l.4 2.2.4 1.2q.3 1.7.3 3.2l.1 3.2-.1 2.6q.1 1.8.5 3.5l.7 1.7.4 2.8q.5 3 .7 6.2l.4 2.3v3c0 1.4.1 3.3-.9 4.6q-.6.6-1.6.7l-2 .2q-1.4 0-2.6-.3c-.8 0-2 0-2.6-.5s-.7-2.2-.9-2.9l-.5-2.5-.3-1.7-.6-2.5c-.3-1.3-.4-4-1.6-4.8q-1-.5-1.9-.5-1-.4-2.1-.3c-2.1.4-3.2 2-4.3 3.8l-2 3.5-1.1 2.1c-.7 1.5-1.5 3.6-3.4 4q-1.5.2-3.2-.2l-2.3-.3q-1.2 0-2.3-.3-.8-.2-.6-1"/>
  <path fill="#d3ff64" stroke="#000" stroke-linecap="round" stroke-linejoin="round" stroke-width="1.5" d="m43.8 37.8 1-2.1.9-1.9q.4-.8 1-1.4l1-.8h.6l.6-.2c.4.1.6.7.8 1l.8 2q.9 2.2 1.3 4.6c0 .2.2 2.2 0 2.3l-3.9-.8q-.5 0-1.1-.4l-1.6-1.2c0-.1-.8-.6-1-.6z"/>
  <path stroke="#000" stroke-linecap="round" stroke-linejoin="round" stroke-width="1.5" d="m47 29.8-1.7 3Q44.1 35 42.7 37q-.5 1 .4 1.4 2.6 1.6 5.3 2.7 2.2.8 4.3 1.8c.4.5 1.4.4 1.1-.5q-.6-3-1.6-6-.6-2-1.7-3.8c-.3-.4-1.9-1.8-2.3-2-.3.2 1 1.7 1 2.2.1 1.2.6 2.4.6 3.7q.3 1.6.1 3.3c-.1.3.2 1-.2.7.2.5-.8 0-1-.1q-2.7-1-5.2-2.3l2.2 1.3c-.4-.4-1.2-.4-.8-1q.6-2.4 2-4.4.7-1.4 1.7-2.6c.4-.4 1.9.8 1.5.6-.5-.3-2.6-2-3.1-2.2"/>
  <path fill="#d3ff64" stroke="#000" stroke-linecap="round" stroke-linejoin="round" stroke-width="1.5" d="m257 29.4.1 5v1.8c0 .3 0 1.2.3 1.3.7.3 1.4-.7 1.7-1.2 1.2-1.5 2-2.6 1.7-4.5 0-.7-1-2.3-1.7-2.8l-.7-.4-.4-.2q-.6-.1-.8.4z"/>
</svg>