<svg xmlns="http://www.w3.org/2000/svg" viewBox="0 0 295.3 85.4">
  <path fill="#e69ee6" stroke="#e2e511" stroke-linecap="round" stroke-linejoin="round" stroke-width="2.2" d="m63.4 232.7 125.7.4q0 0 0 0c11 1.2 19.2 6.1 19.3 12v.2c0 6-8.2 11-19.3 12.3q0 0 0 0l-5 .2a13991 13991 0 0 1-120.8-.2c-13.5 0-24.3-5.6-24.3-12.4v-.2c0-6.9 11-12.3 24.4-12.3" class="UnoptimicedTransforms" transform="translate(-243.20323,-35.106919) matrix(1.7216541,0,0,3.1255062,177.85439,-688.78537)"/>
  <path fill="#32e6fb" d="M132.2 27.2 126 41.3l.6 11.5L131 60l6.3 4.3 8.6 1.6 8.7-4.4 2.2 1.1 5-9 .9-3.7L164 35l-.6-8-6.9-7.9L147 18z"/>
  <path fill="#d3ff64" d="M145.9 57s1.7-1.8 2-2.7c.1-.8 1.7-5.5 1.7-5.5l1.2-.3 1.7-16.3-3-4-8.7 2-4.7 11L136 53l6.3 4.7z"/>
  <path stroke="#000" stroke-width="1.5" d="M165.5 31.4c.5-3.5-1.7-6.8-3.8-9.5q-4.6-4.1-10.6-5.2c-7.2-1-14 3-18.6 8.4a24 24 0 0 0-5.3 8.6 28 28 0 0 0-.8 20.2c1.8 5 6.3 8 10.8 10.2 3.2 1.7 6.6 3.3 10.3 2.6 3.4-.4 7.6-2.7 9-4 1.3-1.6 1.7-1 .2-1.4L154 60c2.5 1.4-1.2-.3 1.2.4.9.4.2 1.8 0 1.7-1.7-.8.7-2-.7-2.6 2 .9.3 4.3 2.7 2.7a65 65 0 0 0 7.5-12.7c1-1.9 2.4-17.8.4-10.1-1.8-1.2-4.8 14.5-2.8 12.2a37 37 0 0 0 4-16c-.2-2 .7-4.8-1.2-5.7-1.1-.6-2.9-.7-3-2.3 0-1-.7-3.7-.4-1.2.5 4.1.4 7.6.2 12.3-.4 4.2-.2 4.9-1 9.2-1.3 5-4.6 8.8-5.6 10.9-4.6 3 6.3-7 4-4.6-1.1 1.5-2.2 3.9-3.5 5.6 2.7 1.2 3.8.7-.3.4l2.3.7c-2.4-1.9.9.2-2-1-1-1.7-2.2.4-4.7 1.5a14 14 0 0 1-12.4 2.6q-2.4-1 0 .1l.7.4a18 18 0 0 1-9.6-9.9 28 28 0 0 1 .8-19q1.6-4.9 5.2-8.6c4-4.6 9.7-8.4 16-8.3 1.7-.4 5.7 1 6 1.1-1.2-.5-5-2.5-2-.9a18 18 0 0 1 6.7 9.3q0 2.4 2.2 2.9.4 0 .8.3z"/>
  <path stroke="#000" stroke-width="1.5" d="M147.8 27.7a10 10 0 0 0-4.1.2 8 8 0 0 0-3.6 2.3 23 23 0 0 0-5.5 10l-.9 5.3q-.2 2.6.6 5.1.7 2.2 2.3 4c1.7 1.8 4.2 3 6.7 3.8q1.5.2 2.9 0 .9 0 1.9-.4l.8-.6c3.1-4.9 1-.9 4.2-7.8l1-2.5 1.4-7.6a21 21 0 0 0-.5-6.2 10 10 0 0 0-1.6-3.3 7 7 0 0 0-5-2.4c-.3 1.3 1-.1-.5.7l.6-.2 2.6 1c1.7.7.3.2-3.3-1.6l.3.1 1 .8q1.2 1.4 1.6 3.2l.5 3a21 21 0 0 1-.4 6.7l-.9 3.9q-.3 1.3-1 2.4c-8.4 15.8-2.6 5.7-4.7 8.3-.9.5-1.1.3-1.7.4q-1.4 0-2.7-.2-2.4-1 2.8 1.4c.2 0-.3-.2-.5-.3l-1.6-1.1q-1.7-1.9-2.6-4-.9-2.5-.7-5 .1-2.7.7-5.4a26 26 0 0 1 1.8-5.3 19 19 0 0 1 3.2-4.8q1.3-1.5 3.2-2.3 1.8-.5 3.5-.4z"/>
  <path fill="#32e6fb" stroke="#000" stroke-linecap="round" stroke-linejoin="round" stroke-width="1.4" d="M90.1 19.1q-.8 3.6-1.2 7.3 0 2.4-.2 4.7l-.2 6.3q.1 3.9-.2 7.8-.7 3.6-1.1 7.2l-.3 3.2v3q0 1.9.4 3.5 0 .5.2.8c.7.8 1.8.5 2.6.5h2l1.7-.3q.8.1 1.4-.3c.5-.4.5-2 .6-2.7q.8-3.7 1-7.7 0-1 .3-2.3 0-1 .9-.6c1 .7 1.4 3.2 1.7 4.2l1 2.5.5 1.2.6 1.5q.3 1.1 1 2.1l.6.7c.7.5 2.2.2 3 .2 1.3 0 1.7-.4 2.9-.8q.9 0 1.6-.7.6-.8 1-2 1-3 1.2-6.2l.6-4.9.6-3q.3-2 .8-3.9l1-4 1-5.4.4-3.6.1-3.6.1-1.5V20c0-.7.2-1.7-.2-2.4-.6-.9-2-.8-2.9-.7l-2 .4-1.6.4-1.3 1q-.6 1-.7 2.2l-.4 2-1 5-1 4.1c-.2.5-.9 3.1-1.4 3.4l-.7-.5-.9-.9c-.5-1-1-3-1.2-4.1L102 26l-.6-4c-.2-.8-.4-2.6-.8-3.3-1.5-2.9-6.5-.9-8.7 0q-.7.3-1.3.2h-.1z"/>
  <path stroke="#000" stroke-linecap="round" stroke-linejoin="round" stroke-width="1.4" d="M88.8 61.8c.4-2.1.2-4.4.3-6.6l.5-19.9c.4-5 .5-10.1 2-15 .1-2.1 3-1 4.7-1.8q3.1-.5 6.2.1c-1.3-.4-3.4-2.2-4.3-2.7 1.3 1.9 1 4.7 1.6 7q.6 6 2.2 12c.8 2.4.6 6.2 3.5 6.7 2.3 2 2.4-2 2.8-3.6q1.6-8.7 3.4-17.3c.6-1.1.3-3 1.5-2 2.3.4 4.6.3 7 .7.4 1.5-2.2-1.6-3-1.8-2-2-.2 2.2-.7 3.3q-.3 9.2-2.1 18.2L110 57.7c0 2.4-1.4 2-3.2 2.7-1.2.4-4 .9-4.3 1 .9.5 2.9 1.9 3 1.8q-2.1-3.9-3.6-8.1l-4-12c-1.1-1-4-2.4-3.4.4-.2 4 .4 8 0 11.9.3 2.1-.8 6.1-.3 7 1 .4 3.6 2.4 3.8 2.1-1.6-2.2-4.1-3.7-6.7-3.2-2.2.3-3.2.1-5.4 0l3.2 2.5c-.8.3.2-2.5-1.3-2.9-1.1-.4-.6-1.5-1.3-.8 0-6.9-2.4 3.8-.1 4.2 3 1 5.8-.4 8.8-.2.9-.1 2.6.7.9-.2l-3.6-2.3q2.5 1.7 5.3 3c-1-2.6-.4-5.8-.5-8.6.2-3.9 0-7.8.3-11.7-.3-1.8 1.1 1.1-1 .3-1-.4-1.4-2.4-1.9-2.7 2.2 4 3 8.6 4.7 12.7l2.5 7c1.8 1.3 3.3 3.5 5.6 2 2-.7 4.7-.3 6.5-.8.6-7.4 2.3-14.5 3.6-21.7a97 97 0 0 0 2.6-17.2c0-2 1-4.2 0-6-.6-3.1-3.7-1.5-5.6-1.5q-3 0-6-.7c-.4 1.8-.4 4-1 6L105 37.4c-.2 1.6-2.1 3 .2 3.3.7.2 3 1.5 1.7.8a139 139 0 0 1-3.4-15.2c-.5-2.9-.4-5.8-1-8.6-.9-2.6-3.4-2.4-5.4-2-3-.3-5.8 1-8.8.7-.4 2.3 0 4.9-.4 7.3-.5 6-.5 11.9-1 17.8q0 9.5-1 19c.1.7 1.6.4 2.2 1z"/>
  <path fill="#32e6fb" stroke="#000" stroke-linecap="round" stroke-linejoin="round" stroke-width="1.4" d="M176.7 20.4q-.9 3.7-1.2 7.4l-.2 4.7-.2 6.2q0 3.9-.3 7.8-.6 3.6-1 7.3l-.3 3.2v3q-.1 1.8.4 3.5l.2.8c.6.7 1.8.5 2.6.4h2l1.7-.2q.7 0 1.4-.3c.4-.5.5-2.1.6-2.7q.8-3.9 1-7.7 0-1.2.2-2.3.1-1.1 1-.6c1 .6 1.4 3.1 1.7 4.2.2.8.8 1.6 1 2.5l.4 1.2.6 1.4q.4 1.2 1.1 2.2.2.4.6.6c.7.5 2.2.3 3 .2 1.3 0 1.7-.3 2.8-.7q1-.1 1.7-.7l1-2q1-3 1.2-6.3l.6-4.9.6-3 .7-3.9 1.2-4 .8-5.3.5-3.6v-3.6l.2-1.5v-2.5q.2-1.2-.2-2.4c-.6-.8-2-.7-3-.6q-.8 0-2 .4l-1.5.4q-.7.4-1.3 1-.7 1-.7 2l-.4 2-1 5.1-1 4.1c-.2.5-.9 3.1-1.4 3.4l-.7-.5q-.5-.2-.9-.8c-.6-1-1-3-1.3-4.2l-.3-3.8-.6-4c-.2-.9-.4-2.7-.8-3.4-1.6-2.8-6.5-.8-8.8 0q-.5.3-1.2.3l-.1-.1z"/>
  <path stroke="#000" stroke-linecap="round" stroke-linejoin="round" stroke-width="1.4" d="M175.4 63.2c.4-2.2.2-4.4.3-6.6l.4-20c.5-5 .5-10 2-14.9.2-2.2 3-1 4.8-1.8q3-.6 6.1 0c-1.2-.4-3.3-2.2-4.2-2.7 1.2 2 1 4.7 1.6 7q.6 6.1 2.1 12.1c.9 2.3.7 6.2 3.6 6.6 2.3 2 2.4-2 2.8-3.6q1.5-8.6 3.4-17.3c.5-1.1.2-3 1.4-1.9 2.3.4 4.7.2 7 .6.5 1.5-2.1-1.5-3-1.7-2-2.1-.2 2.1-.6 3.2q-.3 9.2-2.2 18.2L196.7 59c0 2.5-1.4 2.1-3.2 2.7-1.2.4-4 .9-4.3 1 .9.5 2.9 2 3 1.8q-2.1-3.8-3.6-8.1l-4-12c-1.1-1-4-2.4-3.4.4-.2 4 .4 8 0 12 .2 2-.9 6-.4 7 1 .3 3.7 2.3 3.8 2-1.5-2.1-4-3.7-6.7-3.1-2 .2-3.2 0-5.3 0q2 1.4 3.1 2.5c-.7.3.2-2.6-1.3-3-1-.3-.5-1.4-1.2-.8 0-6.9-2.4 3.9-.1 4.3 2.9.9 5.8-.5 8.8-.3.9 0 2.5.8.9-.2L179 63q2.6 1.7 5.4 3c-1-2.6-.4-5.7-.6-8.6.2-3.8 0-7.8.3-11.6-.2-1.9 1.2 1-.9.3-1-.4-1.4-2.4-1.9-2.7 2.1 4 3 8.5 4.6 12.7l2.5 7c1.8 1.2 3.4 3.4 5.7 2 2-.8 4.6-.4 6.5-1 .5-7.2 2.3-14.4 3.6-21.6a97 97 0 0 0 2.6-17.2c0-2 .9-4.1-.1-6-.5-3-3.6-1.5-5.5-1.4q-3 0-6-.8c-.5 1.9-.4 4-1 6q-1.4 7.8-2.6 15.7c-.2 1.6-2.1 3 .1 3.4.7.1 3.1 1.4 1.7.8a139 139 0 0 1-3.4-15.3c-.5-2.8-.3-5.8-.8-8.6-1-2.5-3.5-2.4-5.6-2-2.9-.3-5.7 1-8.7.8-.5 2.3 0 4.8-.4 7.2-.6 6-.6 12-1 17.9 0 6.1-.5 12.7-1.1 18.9.2.8 1.7.5 2.3 1z"/>
</svg>