<svg xmlns="http://www.w3.org/2000/svg" viewBox="0 0 295.3 85.4">
  <path fill="#e69ee6" stroke="#e2e511" stroke-linecap="round" stroke-linejoin="round" stroke-width="2.2" d="m63.4 232.7 125.7.4q0 0 0 0c11 1.2 19.2 6.1 19.3 12v.2c0 6-8.2 11-19.3 12.3q0 0 0 0l-5 .2a13991 13991 0 0 1-120.8-.2c-13.5 0-24.3-5.6-24.3-12.4v-.2c0-6.9 11-12.3 24.4-12.3" class="UnoptimicedTransforms" transform="translate(-243.20323,-35.106919) matrix(1.7216541,0,0,3.1255062,177.85439,-688.78537)"/>
  <path fill="#32e6fb" d="m108 27.2-6.3 14.1.6 11.5 4.5 7.3 6.3 4.3 8.6 1.6 8.6-4.4 2.3 1.1 5-9 .8-3.7 1.6-15-.6-8-6.9-7.9L123 18z"/>
  <path fill="#d3ff64" d="M121.7 57s1.7-1.8 1.9-2.7l1.8-5.5 1.2-.3 1.7-16.3-3.1-4-8.6 2-4.7 11-.2 11.9 6.3 4.7z"/>
  <path stroke="#000" stroke-width="1.5" d="M141.3 31.4c.5-3.5-1.7-6.8-3.8-9.5q-4.6-4.1-10.7-5.2c-7.1-1-14 3-18.5 8.4a24 24 0 0 0-5.3 8.6 28 28 0 0 0-.8 20.2c1.8 5 6.3 8 10.8 10.2 3.1 1.7 6.6 3.3 10.3 2.6 3.4-.4 7.6-2.7 9-4 1.2-1.6 1.7-1 .2-1.4l-2.7-1.3c2.4 1.4-1.2-.3 1.2.4.9.4.1 1.8-.1 1.7-1.6-.8.8-2-.6-2.6 2 .9.3 4.3 2.6 2.7a65 65 0 0 0 7.5-12.7c1-1.9 2.5-17.8.5-10.1-1.8-1.2-4.8 14.5-2.9 12.2a37 37 0 0 0 4.1-16c-.2-2 .7-4.8-1.3-5.7-1-.6-2.8-.7-2.9-2.3 0-1-.8-3.7-.4-1.2.5 4.1.4 7.6.2 12.3-.5 4.2-.3 4.9-1 9.2-1.3 5-4.6 8.8-5.6 10.9-4.7 3 6.2-7 4-4.6-1.1 1.5-2.2 3.9-3.6 5.6 2.8 1.2 3.9.7-.2.4l2.3.7c-2.4-1.9.9.2-2-1-1-1.7-2.3.4-4.7 1.5a14 14 0 0 1-12.4 2.6q-2.4-1 0 .1l.7.4a18 18 0 0 1-9.6-9.9 28 28 0 0 1 .8-19q1.6-4.9 5.1-8.6c4-4.6 9.8-8.4 16.1-8.3 1.7-.4 5.7 1 6 1.1-1.2-.5-5-2.5-2.1-.9a18 18 0 0 1 6.8 9.3q0 2.4 2.2 2.9.4 0 .8.3z"/>
  <path stroke="#000" stroke-width="1.5" d="M123.5 27.7a10 10 0 0 0-4 .2 8 8 0 0 0-3.6 2.3 23 23 0 0 0-5.5 10l-.9 5.3q-.2 2.5.6 5.1.7 2.2 2.3 4 2.7 2.7 6.7 3.8 1.4.2 2.8 0 1 0 2-.4l.8-.6c3-4.9 1-.9 4.1-7.8q.7-1.2 1-2.5l1.5-7.6a21 21 0 0 0-.5-6.2 10 10 0 0 0-1.6-3.3q-1.7-2.2-5-2.4c-.3 1.3 1-.1-.5.7l.6-.2 2.6 1c1.7.7.3.2-3.3-1.6l.3.1 1 .8q1.2 1.5 1.6 3.2l.5 3a21 21 0 0 1-.4 6.7l-.9 3.9q-.3 1.3-1 2.4c-8.5 15.8-2.6 5.7-4.7 8.3-.9.5-1.1.3-1.7.4q-1.4 0-2.7-.2-2.4-1 2.8 1.4c.2 0-.4-.2-.5-.3l-1.6-1.1q-1.7-1.9-2.6-4-.9-2.5-.7-5 .1-2.7.7-5.4a26 26 0 0 1 1.8-5.3 19 19 0 0 1 3.2-4.8q1.2-1.5 3.2-2.3 1.7-.5 3.5-.4z"/>
  <path fill="#32e6fb" stroke="#000" stroke-linecap="round" stroke-linejoin="round" stroke-width="1.5" d="m157 21.4-.5 6.3-.2 3.9.1 3.6v3.5l-.8 11.6v6.4c.1 1.8 0 3.7.7 5.5.3 1 0 1.6 1.1 2.1 1 .4 2 0 3 .1l1 .2q2 .5 4 0 .8 0 1.2-.4c1-.6 1.3-2 1.4-3v-2l.7-4.5.1-1.3q0-.7.6-.4h.7c1.1.4 1.6 1.7 2.4 2.5.9 1 2.1 1.5 3 2.6l.9 1.7.6.7.9 1q.6.7 1.4 1.2l.6.6q.7.2 1.4-.2t1.1-1q.7-.6 1.2-1.3l.7-1.6.6-1.3c.5-1 1.6-1.8 1.6-3 .2-1.9-2.1-3.4-3.3-4.4l-.5-.6q-1.2-1.5-3-2.4c-1.3-.7-2.6-1.2-3.5-2.4l-.6-1c-.2-.5-.7-1-.7-1.5-.2-1.6 1.1-2.7 2-3.8l.3-.4 1-.8 2.1-2q1.7-1.7 2.4-3.9l.4-.8c.3-1.1-.6-2.5-1.4-3.3l-1.1-1q-.5 0-.8-.3l-1.3-.9-1-.9c-1.5-.1-4.8 2.7-6 3.6-.3.3-2.3 2.2-2.6 2-.5-.1-.5-1.5-.5-1.8 0-2 1.5-6.7-1.6-7.3-2-.4-4.4.4-6.5.6-.4 0-1.5.3-2 .2l.4-.5q-.8.3-1.7 0"/>
  <path stroke="#000" stroke-linecap="round" stroke-linejoin="round" stroke-width="1.5" d="M156.6 21.9c.5 4.1-1.6 6.1-1.2 18.3-.3 6.6-.1 6.6-.3 13 0 5.6.6 6.8.3 9.6-.5 1.2 1 2.5 3 2.2 1.3-.2 4.4.3 6.2.3 1.5-.4 3.7.2 4.8-.4-.6-3 .1-6 .2-9-.2-1.2 1.1-3.5.6-3.2-.9-.4-3.4-2-1.3-.5 3.6 3 6.4 7 9.4 10.7 1.4 1.1 4 3.2 5 .6 1.8-2.2 3.1-4.8 5.5-6.4 2.2-1-1.5-2.8-2-4.1-3-3.5-7.3-5.2-10.5-8.4-.6-1.1 1.8-3.1 2.6-4.4 2.3-2.7 4.5-5.6 7.3-7.7 1-1.3-1.6-3-2.3-4.1q-2.5-2.9-5.8-4.9c-1.5-1.6-3.8-1.4-5 .5-1.7 2-3.2 4.3-5.3 6-1 1-1.6.7-.2 1.3l2.5 1.5c-.7-2.5-.4-5.2-.5-7.7-.1-1.8 1.3-4.3-1.4-4.5-1.8-1.1-3.8-.6-5.8-.7q-3.3-.1-6.6.2c.4 1-1.3 13.7.5 14.2.1.6 2.8-8.7 2.4-11.3 0-1.1.2-1 .9-.8 3.3-.5 6.8-.1 10.1.1-.9-.5-3.3-2-3.2-1.8.7 2 .2 4 .2 6q0 2.2-.4 4.6c1.6.8 3.2 3.8 4.5 1 1.7-2 3.1-4.3 5.4-5.8 1-.7 2.2-2 3.4-1.2l-3.3-1.9q3.1 2.3 5.4 5.4c1.6 1.3.3 2.6-.7 4-2.8 3.4-6.1 6.5-9 9.8 1 1.5 3 2.6 4.5 3.8 2.4 1.7 5 3.2 7 5.5 1 .7 1.6 2.8 2.4 3q-.8 2.7-2.7 5c-1.2 1.2-2.1 3-3.7 3.4.4.3 3.7 2.2 1.5.8-2.7-2.6-4.8-5.6-7.2-8.3q-2.4-3-6-4.9c-1.1 1.2-.4 4-.9 5.7q0 3-.5 6c.6 1.6-2.6 1.4-4.1 1.4-2.2-.2-4.1-.3-6.9-.7-1 3.5 2.5 1 3.3 1.8-1-1.8-.7-4.7-1-6.9-.6-5.2-.3 8.5 0 3.4 0 1.1-.6-7.4.2-19.2l.9-13.7c0-1.7 0-4.3-.5-5.8z"/>
</svg>