<?xml version="1.0" encoding="UTF-8" standalone="no"?>
<!-- Created using Krita: https://krita.org -->

<svg
   width="300.00452"
   height="300.01941"
   viewBox="0 0 290.32704 290.34145"
   version="1.1"
   id="svg172"
   sodipodi:docname="particule_arc-en-ciel_300px.svg"
   inkscape:export-filename="particule_arc-en-ciel_300x.svg"
   inkscape:export-xdpi="100"
   inkscape:export-ydpi="100"
   xmlns:inkscape="http://www.inkscape.org/namespaces/inkscape"
   xmlns:sodipodi="http://sodipodi.sourceforge.net/DTD/sodipodi-0.dtd"
   xmlns="http://www.w3.org/2000/svg"
   xmlns:svg="http://www.w3.org/2000/svg">
  <sodipodi:namedview
     id="namedview174"
     pagecolor="#ffffff"
     bordercolor="#000000"
     borderopacity="0.25"
     inkscape:showpageshadow="2"
     inkscape:pageopacity="0.0"
     inkscape:pagecheckerboard="0"
     inkscape:deskcolor="#d1d1d1"
     inkscape:document-units="pt"
     showgrid="false" />
  <defs
     id="defs144" />
  <path
     id="shape0"
     fill="#d00000"
     stroke="none"
     stroke-width="1.11902"
     stroke-linecap="square"
     stroke-linejoin="bevel"
     d="M 59.603069,197.4772 C 49.32168,175.34926 39.74675,137.90031 45.1136,114.36513 62.276155,39.102938 127.61073,-6.470522 193.53172,26.481746 c 20.05785,10.013638 38.1402,24.106852 50.19567,45.153196 9.27977,16.326512 13.78172,34.636678 14.66767,53.728548 0.96779,22.60343 -4.02414,45.56588 -12.27905,66.05282 6.91299,2.06219 17.00982,-9.05122 17.1143,-9.58952 8.93864,-21.32929 14.06999,-45.13358 12.37402,-68.42494 C 274.16629,93.657139 268.7355,74.669735 257.38491,58.334871 242.73291,37.248835 221.89273,22.822061 198.63158,12.964668 122.15457,-19.443814 48.385688,29.129661 30.648399,107.17085 c -5.546571,24.40397 -3.791951,54.45424 8.576224,77.03178 3.256617,1.16626 14.103445,12.75174 20.378446,13.27457 z"
     sodipodi:nodetypes="ccccccccccccc" />
  <path
     id="shape01"
     fill="#ff6a00"
     stroke-opacity="0"
     stroke="#000000"
     stroke-width="0"
     stroke-linecap="square"
     stroke-linejoin="bevel"
     d="M 81.177268,204.33332 C 72.185589,182.85502 53.229979,148.51265 57.997133,125.63328 73.241952,52.468503 135.44395,13.362659 193.325,45.2386 c 17.60564,9.695573 31.05093,19.298079 41.82366,39.412858 8.34567,15.582122 8.7085,33.600072 9.38969,52.216582 0.80353,21.96055 -7.15312,44.82311 -14.45271,64.74703 6.07303,1.98884 18.17208,-6.01269 21.36928,-8.52217 11.91838,-31.59423 17.56738,-50.33885 15.05321,-81.11504 C 259.84494,77.97287 255.86255,75.361647 243.99873,59.358642 222.36224,35.017296 212.0243,32.508714 191.59642,22.980907 124.43457,-8.3439375 55.462473,42.84698 39.706587,118.71329 c -4.990985,48.39493 17.865149,79.03021 35.282662,109.80089 2.860339,1.12604 0.673079,-24.67537 6.188019,-24.18086 z"
     sodipodi:nodetypes="ccccccccccccc" />
  <path
     id="shape02"
     fill="#ffff00"
     stroke-opacity="0"
     stroke="#000000"
     stroke-width="0"
     stroke-linecap="square"
     stroke-linejoin="bevel"
     d="M 100.68569,206.2745 C 92.430442,185.5701 68.769598,158.93738 73.180191,136.86819 87.284805,66.293278 131.8336,27.180726 185.07754,57.86221 c 16.19517,9.332018 27.38912,12.843229 37.2851,32.230311 7.6659,15.018689 11.10416,32.349159 11.71269,50.302049 0.7179,21.75943 -13.78808,52.46849 -20.52682,71.68624 5.58758,1.91179 21.13398,-4.74964 24.70807,-11.70938 7.29421,-20.01298 15.65922,-29.82496 16.5302,-66.68701 0.71748,-19.34424 -2.08588,-35.711197 -14.0708,-56.095255 C 228.92156,57.874257 210.3406,47.659955 191.54739,38.492364 129.76047,8.3518271 64.297949,52.460522 53.645714,122.97323 c -4.558549,22.88392 3.494485,56.97603 30.02385,94.89949 2.631906,1.08349 11.939991,-12.06969 17.016126,-11.59822 z"
     sodipodi:nodetypes="ccccccccccccc" />
  <path
     id="shape03"
     fill="#409b68"
     stroke-opacity="0"
     stroke="#000000"
     stroke-width="0"
     stroke-linecap="square"
     stroke-linejoin="bevel"
     d="M 127.20398,209.2442 C 119.20108,188.52251 87.35265,166.95912 91.650858,144.86132 105.39615,74.196339 140.53888,56.506245 177.568,72.084895 c 15.72127,9.331599 31.6426,9.401054 41.23938,28.803415 7.43439,15.03084 3.40142,41.69558 2.76418,55.52154 0.68269,21.20095 -19.09532,51.17159 -25.65258,70.41986 5.4249,1.9102 14.37832,-5.22134 16.63847,-6.48608 10.23321,-18.7752 24.57711,-31.16257 30.55681,-72.90219 2.86328,-24.74374 -2.71469,-43.9406 -11.57744,-59.224137 C 220.09621,68.487882 203.18403,57.890324 194.22004,54.177575 135.56025,22.702222 72.381613,62.970841 66.986205,136.86795 c -0.356981,48.26592 30.796455,60.56164 45.407895,77.74507 2.55505,1.08294 9.88094,-5.83688 14.80988,-5.36882 z"
     sodipodi:nodetypes="ccccccccccccc" />
  <path
     id="shape04"
     fill="#1e74fd"
     stroke-opacity="0"
     stroke="#000000"
     stroke-width="0"
     stroke-linecap="square"
     stroke-linejoin="bevel"
     d="m 140.49769,194.92138 c -7.02589,-18.7474 -43.080852,-21.85701 -41.288267,-52.3368 12.128627,-63.955572 47.439157,-66.71069 92.875357,-38.9785 13.82025,8.43518 7.42959,6.62183 15.85824,24.17411 6.52943,13.59739 -4.44426,29.63162 -14.94622,45.55814 0.58806,19.18515 -7.38804,14.80659 -13.16583,32.22873 4.76961,1.72526 19.90165,18.20907 21.59737,16.29155 6.21889,-18.0469 20.70672,-30.84675 26.75819,-71.77404 3.21528,-21.57565 -1.42969,-40.63466 -10.27102,-56.183216 C 207.86553,76.054168 208.80736,78.082408 192.76815,69.799561 140.03565,42.567766 89.266745,77.19117 79.952468,136.86796 c -1.445204,57.84939 63.187712,68.04139 66.693962,65.01277 5.38221,4.89251 -10.48317,-7.37978 -6.14874,-6.95935 z"
     sodipodi:nodetypes="ccccccccccccc" />
  <path
     id="shape05"
     fill="#7f00ff"
     stroke-opacity="0"
     stroke="#000000"
     stroke-width="0"
     stroke-linecap="square"
     stroke-linejoin="bevel"
     d="m 145.63127,182.81396 c -6.32474,-6.00156 -30.5957,-7.48152 -32.87465,-35.18158 4.6743,-23.52685 21.6755,-34.93506 30.08331,-38.32006 3.3908,-1.96425 23.89757,-13.195608 44.92222,-0.12818 13.22342,8.21871 8.96773,25.8995 8.36055,27.68389 -2.2016,14.04385 -14.41789,28.47644 -17.72513,32.72739 -12.5569,22.08652 -11.65524,15.19396 -6.74711,27.22507 4.56441,1.68009 4.20908,11.42087 5.74193,11.27144 7.54725,-7.54748 16.89285,-9.50451 31.08186,-39.82077 15.96433,-41.49628 3.81256,-56.13643 3.70551,-59.40499 C 211.94873,107.61401 200.81318,95.739336 199.7312,93.737849 195.73787,90.340531 195.86623,89.1416 180.5184,81.072274 130.06056,54.542491 92.837517,117.93078 95.509697,145.39042 c 7.952133,48.96253 58.948443,51.98608 57.656893,48.66996 4.70934,-1.07221 1.04501,-6.92301 -7.53532,-11.24642 z"
     sodipodi:nodetypes="ccccccccccccccc" />
  <path
     id="shape06"
     fill="#f2f2f2"
     fill-rule="evenodd"
     stroke-opacity="0"
     stroke="#000000"
     stroke-width="0"
     stroke-linecap="square"
     stroke-linejoin="bevel"
     d="m 181.92221,162.62581 c -0.10795,-10.42736 -12.15696,-4.83762 -8.64287,5.10656 0.21653,0.6587 1.74465,2.74605 0.10934,2.3196 -3.36203,-0.87674 -6.49022,1.89177 -7.47753,4.95566 -1.88098,5.83725 5.00752,12.82517 5.32281,18.86851 0.18545,3.55443 -2.52701,11.27967 -1.0027,14.5261 3.47489,7.40063 12.26593,-0.67521 16.37375,0.57441 1.64826,0.50147 0.39991,3.71253 2.69875,4.62468 11.56678,4.59028 25.95208,5.63736 38.01686,5.63736 9.37457,0 31.49698,1.90352 37.33432,-7.5944 1.5115,-2.45916 0.78122,-27.81027 -1.92788,-29.13503 0.0405,-2.8051 -0.92009,-3.09897 -2.51741,-2.09811 -0.60836,0.38871 -1.40006,1.94721 -1.40006,1.94721 0,0 -0.6164,-3.27575 -1.86677,-4.0697 -1.90751,-1.21109 -3.78722,-0.43081 -5.63206,0.55499 -1.03185,0.55135 -2.00752,1.22462 -2.89091,1.99586 -1.84114,1.60752 -2.66032,4.11233 -2.97606,6.47451 -0.15372,1.15141 -0.0213,4.64733 -0.0213,3.48535 0,-1.07681 -1.22075,-1.78771 -2.18655,-1.22644 -1.07504,0.62418 -0.64724,4.25781 -1.56829,3.41732 -4.40331,-4.01928 -6.97103,-8.47317 -13.76426,-6.61213 -11.76728,3.75952 -10.41875,8.8647 -12.28027,15.00695 -0.89047,0.81292 1.66646,-2.17742 -2.75075,-3.02916 -5.56295,0.21597 -6.2707,8.01446 -3.80823,0.58786 0.5843,-1.79586 3.90699,-10.10365 -4.06934,-13.22159 -11.19956,-2.73078 -16.61494,4.49246 -20.04049,8.09541 -0.84467,0.68993 -0.60003,1.18794 -2.42408,2.22 1.3227,-1.65528 1.41794,-3.34408 1.02669,-4.41525 -0.42736,-1.17042 -2.12369,-1.9098 -3.42674,-1.81589 -7.32221,0.52777 4.32435,0.97445 1.93073,-9.20059 -1.096,-2.3612 -4.36795,-0.23442 -4.61615,-1.15128 1.18137,-1.6155 8.50276,-12.78799 2.49607,-9.92349 -2.18299,0.99627 4.25867,-7.61581 3.0961,-5.49355"
     sodipodi:nodetypes="ccccccccccccccccccccccccccccccccc" />
  <path
     id="shape07"
     fill="#f2f2f2"
     stroke-opacity="0"
     stroke="#000000"
     stroke-width="0"
     stroke-linecap="square"
     stroke-linejoin="bevel"
     d="m 169.90178,208.76775 c 2.64728,2.41626 8.96389,2.56215 12.15366,2.31955 1.43712,-0.10922 4.22411,-2.39624 4.22411,-0.9347 0,0.75064 -4.09231,4.83754 -4.52279,5.84175 -5.91127,13.78827 10.33353,30.3616 20.09659,36.68542 6.82721,4.42246 15.33166,8.66806 23.59503,6.07525 3.23752,-1.01578 8.31184,-3.27647 9.85637,-6.65938 0.30897,-0.67709 0.0932,-2.64101 0.64015,-2.14206 12.4491,11.36296 41.04191,10.59103 48.47038,-7.86673 2.88377,-7.16523 1.5871,-16.34887 -4.1814,-21.61402 -0.19814,-0.18093 -2.785,-2.20903 -2.77328,-2.21967 6.3957,-5.83768 15.72487,-20.244 8.44795,-28.54626 -4.33014,-4.94066 -8.68653,-0.54521 -13.355,-0.54521 -0.25678,0 0.21667,-0.4732 0.34138,-0.70102 1.3439,-2.45299 6.76486,-13.44426 3.47766,-15.69452 -3.5755,-2.78226 -11.89258,7.88122 -14.0032,11.19648 -2.9168,2.68214 -1.10746,9.20348 -21.60295,15.47235 -27.45849,8.39869 -72.38049,7.94918 -70.86466,9.33277 z"
     sodipodi:nodetypes="cccccccccccccccccc" />
  <path
     id="shape08"
     fill="#d9d9d9"
     stroke-opacity="0"
     stroke="#000000"
     stroke-width="0"
     stroke-linecap="square"
     stroke-linejoin="bevel"
     d="m 169.91051,208.64407 c 1.99162,2.32862 8.97989,2.58406 12.16964,2.34146 1.43711,-0.10922 4.22411,-2.39624 4.22411,-0.93469 0,0.75064 -4.0923,4.83754 -4.5228,5.84173 -5.91126,13.78829 10.33356,30.3616 20.09668,36.68541 6.82719,4.42249 15.33164,8.66808 23.59502,6.07529 3.23752,-1.0158 8.31185,-3.2765 9.85637,-6.6594 0.30897,-0.67706 0.0934,-2.64101 0.64016,-2.14205 12.44909,11.36293 41.0419,10.59101 48.47036,-7.86671 2.88379,-7.16525 1.58711,-16.34889 -4.18139,-21.61403 -0.19816,-0.18094 -2.78501,-2.20905 -2.77329,-2.2197 6.39569,-5.83765 15.72489,-20.24388 8.44797,-28.54616 -4.33017,-4.94067 -8.68656,-0.5452 -13.35502,-0.5452 -0.25679,0 0.2167,-0.47322 0.3414,-0.70099 1.34388,-2.45303 6.76483,-13.44427 3.47763,-15.69453 -3.57547,-2.78228 3.05973,6.25285 -6.83492,13.94204 -4.40885,6.65208 25.12506,-1.6184 -9.05229,17.45699 -1.58589,2.61286 26.95848,19.35803 0.50557,32.4445 -13.45961,1.07744 -15.87673,-11.59272 -17.58269,-12.2316 -1.37814,0.18749 1.76985,6.41113 -4.41565,12.91619 -25.29294,6.71978 -25.30745,-12.92026 -27.17053,-13.13593 -20.35293,24.48604 -19.85177,-16.10128 -24.25249,-16.54452 -21.50813,-2.16617 -17.38323,0.85862 -17.68384,1.1319 z"
     sodipodi:nodetypes="ccccccccccccccccccccccc" />
  <path
     id="shape09"
     fill="#f2f2f2"
     stroke-opacity="0"
     stroke="#000000"
     stroke-width="0"
     stroke-linecap="square"
     stroke-linejoin="bevel"
     d="m 37.571783,180.54041 c -5.388393,0 -13.84873,-2.35808 -17.781862,4.10374 -3.370727,5.53783 7.552175,9.7591 7.552175,13.08501 0,1.25745 -2.524636,-0.12739 -3.712072,0.23384 -4.062613,1.23584 -6.976033,2.61816 -9.898929,5.99733 -11.6148482,13.4283 -12.652741,30.51936 -1.536034,44.31861 7.207649,8.947 18.605667,12.43225 29.5686,9.93084 0.712691,-0.16277 1.462731,-1.39141 2.005658,-0.89588 0.424713,0.38784 0.521014,5.24386 0.896033,6.26997 1.771386,4.85039 4.548997,9.26345 8.021396,13.04641 15.365286,16.73892 38.730362,11.16449 52.438782,-4.1279 2.00379,-2.23566 2.51092,-7.00434 4.39466,-8.72382 0.95992,-0.87617 1.0553,2.45634 1.96274,3.38823 3.10819,3.19165 6.36145,4.76524 10.62432,5.80263 12.17779,2.96406 23.65676,1.6365 35.20086,-3.58263 26.18004,-11.83594 36.60712,-28.41771 17.40861,-51.09507 -1.56675,-1.85063 -6.89264,-3.46899 -7.80843,-5.14057 -0.11264,-0.20596 0.49385,-0.76567 0.59756,-0.89557 8.19857,-10.28959 4.42121,-29.77548 -4.86412,-37.73691 -3.74093,-3.20755 -16.94192,-7.46982 -19.62724,-0.11683 -0.13642,0.37345 -0.38398,1.52761 -0.38398,1.1294 0,-3.34309 2.53161,-12.22623 -2.56031,-13.04633 -4.29774,-0.69228 -10.5314,9.54993 -8.81619,13.32381 2.88039,0.39883 4.61506,1.59828 5.20397,3.59839 -0.13272,5.77019 -1.1942,9.61964 -3.18442,11.54835 -4.09497,-8.56663 -10.83944,-10.2905 -20.23313,-5.17164 -4.18324,3.77895 -9.26836,12.50288 -9.03502,15.87045 -1.37939,0.26513 -2.8378,0.5819 -4.31011,0.62761 -0.658356,0.24354 -1.073185,-10.36201 -18.066033,-16.56715 -15.66808,-2.5891 -20.518635,6.14316 -21.851418,5.78047 -1.513349,-0.37474 -0.777818,-6.90302 -9.356648,-11.00037 -4.539121,-1.67353 -10.119958,-0.0334 -10.846848,4.11827 -1.754718,0.98495 -1.531868,-4.07267 -2.00257,-4.07267 z"
     sodipodi:nodetypes="ccccccccccccccccccccccccccccccccc" />
  <path
     id="shape010"
     fill="#d9d9d9"
     stroke-opacity="0"
     stroke="#000000"
     stroke-width="0"
     stroke-linecap="square"
     stroke-linejoin="bevel"
     d="m 24.062084,189.30285 c -6.007063,-0.82755 -0.339029,-11.12052 -4.27216,-4.6587 -3.370727,5.53781 7.552172,9.75908 7.552172,13.08501 0,1.25745 -2.524634,-0.12739 -3.71207,0.23383 -4.062614,1.23585 -6.976035,2.61816 -9.89893,5.99733 -11.6148481,13.4283 -12.6527409,30.51937 -1.536034,44.31862 7.20765,8.94699 18.605666,12.43223 29.568599,9.93084 0.712692,-0.16277 1.462732,-1.39141 2.00566,-0.8959 0.424712,0.38785 0.521015,5.24387 0.896033,6.26999 1.771385,4.85039 4.548995,9.26345 8.021395,13.04641 15.365288,16.73892 38.730361,11.16449 52.438781,-4.12792 2.00379,-2.23564 2.51093,-7.00433 4.39466,-8.7238 0.95992,-0.87617 1.0553,2.45634 1.96274,3.38823 3.1082,3.19164 6.36145,4.76523 10.62432,5.80263 12.17779,2.96406 23.65676,1.6365 35.20086,-3.58264 26.18004,-11.83594 36.60712,-28.4177 17.40861,-51.09507 -1.56675,-1.85063 -6.89263,-3.46898 -7.80842,-5.14056 -0.11264,-0.20597 0.49384,-0.76567 0.59755,-0.89558 8.19857,-10.28958 4.42122,-29.77548 -4.86412,-37.7369 -3.74093,-3.20755 -16.94192,-7.46982 -19.62724,-0.11683 -0.13642,0.37345 -0.38398,1.52761 -0.38398,1.1294 0,-3.34309 1.96616,-8.16628 -0.86426,-8.65536 -4.29772,-0.69227 -3.48073,8.43027 -1.76549,12.20416 2.88038,0.39883 25.58648,-6.46315 14.48436,21.59068 -5.29563,24.17116 16.87617,9.54644 -7.10467,5.28802 5.95338,25.0423 9.28936,20.62639 9.23441,20.81891 -3.91655,-40.42288 -21.46066,-10.65456 -22.27274,-8.36758 -14.28621,27.21443 -31.06237,12.6448 -32.53466,12.69051 -0.65836,0.24354 -35.868801,26.71294 -52.861641,20.50778 -15.668142,-2.58908 -12.795712,-31.00958 -14.128621,-31.37237 -1.513348,-0.37471 -30.1865709,24.48604 -21.890309,-13.12282 3.413107,-10.12924 11.272611,-9.03425 23.991466,-8.79173 1.008077,-0.88919 -4.465351,-6.53097 -12.856271,-9.01855 z"
     sodipodi:nodetypes="ccccccccccccccccccccccccccccccccc" />
  <path
     id="shape011"
     fill="none"
     stroke="#000000"
     stroke-width="1.11902"
     stroke-linecap="square"
     stroke-linejoin="bevel"
     d="m 170.09379,208.76771 c 2.64729,2.41626 8.7719,2.56213 11.96165,2.31954 1.43712,-0.10922 4.22411,-2.39625 4.22411,-0.9347 0,0.75062 -4.09231,4.83754 -4.52279,5.84173 -5.91127,13.7883 10.33353,30.36161 20.09666,36.68542 6.8272,4.42248 15.33165,8.66807 23.59502,6.07527 3.23752,-1.01577 8.31186,-3.27647 9.85637,-6.65939 0.30897,-0.67707 0.0932,-2.64101 0.64017,-2.14205 12.44909,11.36296 41.0419,10.59103 48.47036,-7.86673 2.88378,-7.16523 1.58712,-16.34887 -4.18141,-21.61401 -0.19814,-0.18092 -2.785,-2.20904 -2.77327,-2.21969 6.39571,-5.83767 15.72489,-20.24391 8.44796,-28.54619 -4.33017,-4.94067 -8.68655,-0.54521 -13.35499,-0.54521 -0.25681,0 0.21666,-0.4732 0.34138,-0.701 1.34388,-2.45302 6.77533,-13.46377 3.48813,-15.71402 -3.96471,-2.71412 -13.66859,10.71928 -13.155,9.23467"
     sodipodi:nodetypes="cccccccccccccccc" />
  <path
     id="shape012"
     fill="none"
     stroke="#000000"
     stroke-width="1.11902"
     stroke-linecap="square"
     stroke-linejoin="bevel"
     d="M 39.22463,183.91419 C 26.856449,161.33665 25.101828,131.28652 30.648402,106.88247 48.385682,28.841378 122.15443,-19.732095 198.63145,12.67638 c 23.26138,9.857403 44.10132,24.284216 58.75361,45.370154 11.35058,16.334791 16.78111,35.322178 18.21915,55.067086 1.69606,23.29124 -3.43536,47.09552 -12.37377,68.42499"
     sodipodi:nodetypes="cccccc" />
  <path
     id="shape013"
     fill="none"
     stroke="#000000"
     stroke-width="1.11902"
     stroke-linecap="square"
     stroke-linejoin="bevel"
     d="m 37.454492,180.39925 c -5.388422,0 -13.731439,-2.21694 -17.664571,4.24491 -3.370727,5.53779 7.552175,9.75939 7.552175,13.08533 0,1.25713 -2.524636,-0.12771 -3.712072,0.23353 -4.062613,1.23614 -6.976033,2.61816 -9.898929,5.99762 -11.6148482,13.42801 -12.652741,30.51908 -1.536034,44.31831 7.207649,8.94701 18.605667,12.43256 29.5686,9.93086 0.712691,-0.16246 1.462731,-1.39111 2.005658,-0.8956 0.424713,0.38785 0.521014,5.24356 0.896033,6.26999 1.771386,4.85039 4.548997,9.26347 8.021396,13.04641 15.365286,16.7386 38.687778,11.06682 52.396182,-4.22558 2.80384,-3.99767 3.40696,-7.60786 4.40516,-8.64553 0.96024,-0.87651 1.06579,2.40749 1.97355,3.33937 2.19085,3.21107 6.38274,4.83316 10.64561,5.87088 12.17779,2.96407 23.65676,1.6362 35.20086,-3.58295 26.18004,-11.83595 36.60712,-28.41769 17.40861,-51.09475 -1.56675,-1.85064 -6.89264,-3.46899 -7.80843,-5.14057 -0.11264,-0.20629 0.49385,-0.76567 0.59756,-0.8959 8.19857,-10.28957 4.42121,-29.77549 -4.86412,-37.73692 -3.74093,-3.20756 -16.94192,-7.46978 -19.62724,-0.11683 -0.13642,0.37341 -0.38398,1.52759 -0.38398,1.12938 0,-3.34311 2.53161,-12.22622 -2.56031,-13.04633 -4.29774,-0.69227 -10.48603,9.07531 -8.57885,12.5571"
     sodipodi:nodetypes="ccccccccccccccccccccccc" />
  <path
     id="shape014"
     fill="none"
     stroke="#000000"
     stroke-width="1.11902"
     stroke-linecap="square"
     stroke-linejoin="bevel"
     d="m 170.26917,208.65029 c 2.64728,2.41628 8.7719,2.56216 11.96165,2.31954 1.43711,-0.10922 4.2241,-2.39622 4.2241,-0.9347 0,0.75066 -4.09231,4.83755 -4.52279,5.84175 -5.91125,13.78829 10.33355,30.3616 20.09667,36.68541 6.8272,4.42249 15.33164,8.66808 23.59502,6.07528 3.23751,-1.01579 8.31185,-3.27649 9.85637,-6.65938 0.30896,-0.6771 0.0931,-2.64102 0.64015,-2.14205 12.44909,11.36293 41.04191,10.59101 48.47037,-7.86674 2.88379,-7.16522 1.58711,-16.34887 -4.18138,-21.61402 -0.19816,-0.18093 -2.78503,-2.20905 -2.77328,-2.21969 6.39567,-5.83766 15.72485,-20.24393 8.44794,-28.54617 -4.33015,-4.94068 -8.68655,-0.54522 -13.35499,-0.54522 -0.2568,0 0.21667,-0.4732 0.34137,-0.701 1.34391,-2.45302 6.77536,-13.46375 3.48814,-15.71401 -3.9647,-2.71412 -13.6686,10.71925 -13.15498,9.23464"
     sodipodi:nodetypes="cccccccccccccccc" />
  <path
     id="shape015"
     fill="none"
     stroke="#000000"
     stroke-width="1.11902"
     stroke-linecap="square"
     stroke-linejoin="bevel"
     d="m 182.42078,163.59235 c 0,-1.51783 -0.80815,-4.32915 -2.07208,-5.23556 -6.13503,-4.3997 -9.08218,5.08327 -7.12551,9.93078 0.27448,0.68001 1.87657,1.86934 1.15204,1.86934 -2.84354,0 -4.20281,-1.28509 -6.8695,1.63564 -0.9013,0.98718 -3.91392,6.75981 -0.12802,5.60798"
     sodipodi:nodetypes="cccccc" />
  <path
     id="shape016"
     fill="none"
     stroke="#000000"
     stroke-width="1.00039"
     stroke-linecap="square"
     stroke-linejoin="bevel"
     d="m 182.80692,196.73096 c 0.21717,0.0283 0.34907,-0.62591 0.44801,-0.81783 3.31125,-6.42234 12.84117,-11.73162 19.94185,-10.4322 8.27577,3.10488 7.58492,7.78913 5.80283,13.07553 -2.18517,6.48202 -1.91287,0.59027 2.86941,-0.3797 2.44228,-0.4954 2.98704,1.36571 3.41887,3.73866 0.275,0.79525 0.0799,3.3547 0.0799,2.5119 -0.22133,-4.48311 1.23245,-9.12588 3.84246,-12.5359 5.38609,-6.85265 17.75707,-8.95929 21.99803,2.05016 2.14764,3.61002 0.29878,0.83106 0.29601,0.96143 0.18149,-0.2415 0.11277,-0.0233 0.13334,-0.0902 0.15062,-1.21395 0.27532,-7.52361 3.21868,-5.32075 2.9909,2.53469 -2.65568,-3.45736 3.98414,-9.32227 7.5473,-6.45189 12.44971,2.06596 9.32828,3.49038"
     sodipodi:nodetypes="cccccccccccccc" />
  <path
     id="shape017"
     fill="none"
     stroke="#000000"
     stroke-width="1.00039"
     stroke-linecap="square"
     stroke-linejoin="bevel"
     d="m 177.97479,169.74261 c 0,-0.31185 0.5604,-0.42615 0.80003,-0.53548 7.22449,-1.35412 1.2766,7.01454 -0.96003,9.95998 -0.39807,0.48444 -1.05602,1.22188 -1.05602,1.22188 0,0 4.28181,-1.75813 5.02413,-0.23368 0.49244,1.01136 0.59201,2.08717 0.59201,3.19832 0,2.75456 -2.18723,5.3112 -4.64013,6.20673 -0.6318,0.23066 3.06983,-0.73672 4.47477,0.41864 1.2501,1.63621 1.10938,2.18835 1.10938,4.22546 0,0.40995 -0.44328,2.12505 -0.51201,2.5265"
     sodipodi:nodetypes="cccccccccc" />
  <path
     id="shape018"
     fill="none"
     stroke="#000000"
     stroke-width="1.00039"
     stroke-linecap="square"
     stroke-linejoin="bevel"
     d="m 177.50184,180.1738 c -2.16582,0.63593 -3.30489,2.77618 -3.46141,3.87978"
     sodipodi:nodetypes="cc" />
  <path
     id="shape019"
     fill="none"
     stroke="#000000"
     stroke-width="1.00039"
     stroke-linecap="square"
     stroke-linejoin="bevel"
     d="m 178.86188,189.57881 c -1.6807,0 -3.76841,1.52105 -3.72276,3.75814"
     sodipodi:nodetypes="cc" />
  <path
     id="shape020"
     fill="#f2f2f2"
     fill-rule="evenodd"
     stroke="#000000"
     stroke-width="1.00039"
     stroke-linecap="square"
     stroke-linejoin="bevel"
     d="m 258.56887,182.36054 c 0,-4.58431 6.93492,-2.0998 3.5361,1.95697"
     sodipodi:nodetypes="cc" />
  <path
     id="shape021"
     fill="none"
     stroke="#000000"
     stroke-width="1.11902"
     stroke-linecap="square"
     stroke-linejoin="bevel"
     d="m 134.7369,176.89424 c -39.649109,-18.09462 -18.56189,-58.76059 15.27509,-70.64488 32.22603,-11.318553 58.37271,7.85036 42.53982,41.63149 -3.57705,7.63166 -8.36369,14.11667 -13.4405,20.75726"
     sodipodi:nodetypes="cccc" />
  <path
     id="shape022"
     fill="#f2f2f2"
     fill-rule="evenodd"
     stroke="#000000"
     stroke-width="1.00039"
     stroke-linecap="square"
     stroke-linejoin="bevel"
     d="m 133.74492,192.43541 c 0,-16.59234 -29.78211,-13.35503 -29.78211,14.66178"
     sodipodi:nodetypes="cc" />
  <path
     id="shape023"
     fill="#f2f2f2"
     fill-rule="evenodd"
     stroke="#000000"
     stroke-width="1.00039"
     stroke-linecap="square"
     stroke-linejoin="bevel"
     d="m 39.60382,191.13493 c -4.55442,-4.15697 2.386874,-11.15208 7.168198,-11.50803 4.088387,-0.13909 9.065029,3.44434 10.885583,7.0051 0.78495,1.53523 1.48273,6.69475 1.48273,4.96539 0,-5.40372 17.935756,-8.00179 24.182069,-5.54957 10.317803,4.77748 11.993507,8.78166 13.674757,10.48086 3.907303,6.88612 2.437175,8.73374 2.485629,9.48779"
     sodipodi:nodetypes="ccccccc" />
  <path
     id="shape024"
     fill="none"
     stroke="#000000"
     stroke-width="1.00039"
     stroke-linecap="square"
     stroke-linejoin="bevel"
     d="m 99.507057,202.01873 c 0,1.2544 4.236163,0.042 4.591413,-0.30913"
     sodipodi:nodetypes="cc" />
  <path
     id="shape025"
     fill="none"
     stroke="#000000"
     stroke-width="1.00039"
     stroke-linecap="square"
     stroke-linejoin="bevel"
     d="m 134.17158,174.53981 c -1.02997,0 1.07911,1.92541 1.47205,2.96423 1.18429,3.13087 0.7404,6.08024 -0.18135,9.20689 -0.2681,0.90948 -2.03465,4.31126 -1.93071,3.88598"
     sodipodi:nodetypes="cccc" />
</svg>
