<svg xmlns="http://www.w3.org/2000/svg" viewBox="0 0 300 300">
  <circle cx="149.7" cy="144.6" r="54.1" fill="none" stroke="#819c27" stroke-linecap="round" stroke-linejoin="round" stroke-width="36.5"/>
  <rect width="78.7" height=".3" x="207.6" y="-150" fill="none" stroke="#819c27" stroke-linecap="square" stroke-width="27.1" ry="0" transform="rotate(90)"/>
  <rect width="78.7" height=".3" x="-154" y="-206.6" fill="none" stroke="#819c27" stroke-linecap="square" stroke-width="27.1" ry="0" transform="rotate(133.47959)"/>
  <rect width="78.7" height=".3" x="53" y="-10.3" fill="none" stroke="#819c27" stroke-linecap="square" stroke-width="27.1" ry="0" transform="rotate(45.547843)"/>
  <rect width="78.7" height=".3" x="-189.7" y="-255.6" fill="none" stroke="#819c27" stroke-linecap="square" stroke-width="27.1" ry="0" transform="scale(-1)"/>
  <rect width="45.7" height=".5" x="15" y="-271.5" fill="none" stroke="#819c27" stroke-linecap="square" stroke-width="26.8" ry="0" transform="rotate(90)"/>
  <rect width="45.7" height=".5" x="-271.5" y="-15.5" fill="none" stroke="#819c27" stroke-linecap="square" stroke-width="26.8" ry="0" transform="scale(-1)"/>
  <rect width="45.7" height=".5" x="14.9" y="27.8" fill="none" stroke="#819c27" stroke-linecap="square" stroke-width="26.8" ry="0" transform="matrix(0,1,1,0,0,0)"/>
  <rect width="45.7" height=".5" x="27.8" y="-15.3" fill="none" stroke="#819c27" stroke-linecap="square" stroke-width="26.8" ry="0" transform="scale(1,-1)"/>
  <rect width="45.7" height=".5" x="-30.4" y="-106.4" fill="none" stroke="#819c27" stroke-linecap="square" stroke-width="26.8" ry="0" transform="rotate(134.84607)"/>
</svg>