<svg xmlns="http://www.w3.org/2000/svg" xml:space="preserve" viewBox="0 0 300 300">
  <rect width="300.1" height="299.8" x=".1" y=".1" fill="#2236f0" ry="23.5"/>
  <ellipse cx="153.8" cy="35.3" fill="#fff" rx="26.6" ry="23.3"/>
  <path fill="#fff" d="M144.4 51h19v18.2h-19z"/>
  <path fill="#fff" d="M118.8 64.7h62.6v138.8h-62.6z"/>
  <path fill="#fff" d="M118.8 188.8h28.9v99.1h-28.9zm39.1-.1h28.9v99.1h-28.9z"/>
  <path fill="#fff" d="M185.8 203.9h31l-40.5-126-22-.7 4.7 125.5Zm-41.3-140-30.8.2-6.3 1.3-6.6 2.4-6.8 6-3.5 6.8L89 86l-7.3 82.8 22.4.2 7.6-67.4 16.6.5 20.7 2z"/>
  <path fill="#fff" d="m163.2 63.4 22.2.5 8.6 2.6 5.8 4.4 5.3 6.4 2.5 4.5 29.3 74.2H214l-25-58.8-27.2.2z"/>
</svg>