<svg xmlns="http://www.w3.org/2000/svg" xml:space="preserve" viewBox="0 0 300 300">
  <g fill="none" stroke="#fff501" stroke-width="21" transform="matrix(1.2613038,0,0,1.2613038,-7.7309558,-7.5983737)">
    <circle cx="125" cy="125" r="106"/>
    <path d="M125 19v212m0-106-75 75m75-75 75 75"/>
  </g>
  <path fill="none" stroke="#870cff" stroke-linecap="round" stroke-linejoin="round" stroke-width="6.2" d="M142 296.5q-29-1.6-55-14a146.6 146.6 0 1 1 55 14m-5.3-92.5-.1-22.3-31.3 31.2-31.2 31.2L78 247a123 123 0 0 0 57.3 23h1.4zm37 64.4a123 123 0 0 0 51.7-24c.2-.2-13.8-14.4-31-31.6l-31.3-31.3V270l2.8-.4zm-37-181V30l-2.3.3-9.1 1.7a122 122 0 0 0-70 43A121 121 0 0 0 53 222l2.7 3.8 40.6-40.6 40.5-40.5zm112.4 131.5a121 121 0 0 0-85.4-188.8c-.5 0-.6 11.8-.6 57.3v57.3l40.5 40.5 40.4 40.5 1.4-1.7z"/>
</svg>