<svg xmlns="http://www.w3.org/2000/svg" viewBox="0 0 140 140">
  <path fill="#ff5117" d="m34.9 118.7-5.8 11.7s-11.2.2-11.9-.2-8-46.3 25.4-83C77.8 8.3 122.1 8.6 123.2 9.9s.8 16.8.8 16.8z"/>
  <path fill="#ff8e00" d="M77.3 34.3a93 93 0 0 0-46 60.4c-3.7 14-2.3 35.6-2.3 35.6h12.9l38.4-56.4L124 33.1v-12s-26.1 1.7-46.7 13.3"/>
  <path fill="#f9d81e" d="M50.5 81.1c-10.5 20.2-8.6 49.2-8.6 49.2h12.6l43-57.2L124 45.9V33.1s-15.1-.1-38.6 11.2a80 80 0 0 0-34.9 36.8"/>
  <path fill="#97cc37" d="M72 70.8c-21.9 27.4-17.8 59.5-17.8 59.5h14l24-43.4L124 60.5V45.8s-32.5.6-52 25"/>
  <path fill="#00c0e9" d="M83.5 77c-21.9 21-17 53.3-17 53.3h11.2l16.8-42L124 72.8V58.3S104.7 56.6 83.4 77"/>
  <path fill="#8177fa" d="M123.5 80.8c.7-1 .5-12 .5-12s-18.3-.3-33.7 17c-15.3 17.3-13 44.5-13 44.5s10.4.4 10.9-.5c.8-1.7-3-21.7 9.6-35.9 13-14.6 25.4-12.5 25.7-13"/>
</svg>