<?xml version="1.0" encoding="UTF-8" standalone="no"?>
<!-- Created using Krita: https://krita.org -->

<svg
   width="1474.5601pt"
   height="1474.5601pt"
   viewBox="0 0 1474.56 1474.56"
   version="1.1"
   id="svg104"
   sodipodi:docname="arc-en-ciel.svg"
   inkscape:export-filename="arc-en-ciel.png"
   inkscape:export-xdpi="99.999992"
   inkscape:export-ydpi="99.999992"
   xmlns:inkscape="http://www.inkscape.org/namespaces/inkscape"
   xmlns:sodipodi="http://sodipodi.sourceforge.net/DTD/sodipodi-0.dtd"
   xmlns="http://www.w3.org/2000/svg"
   xmlns:svg="http://www.w3.org/2000/svg">
  <sodipodi:namedview
     id="namedview106"
     pagecolor="#ffffff"
     bordercolor="#000000"
     borderopacity="0.25"
     inkscape:showpageshadow="2"
     inkscape:pageopacity="0.0"
     inkscape:pagecheckerboard="0"
     inkscape:deskcolor="#d1d1d1"
     inkscape:document-units="pt"
     showgrid="false" />
  <defs
     id="defs71" />
  <path
     id="shape0"
     fill="#d00000"
     stroke="none"
     stroke-width="5.65396"
     stroke-linecap="square"
     stroke-linejoin="bevel"
     d="M 298.73347,1003.036 C 246.41883,892.01501 197.69885,704.12494 225.00689,586.04347 312.33491,208.43557 644.77594,-20.217065 980.20077,145.11209 c 102.06003,50.24077 194.06833,120.94969 255.41003,226.54412 47.2179,81.91385 70.1253,173.7802 74.6333,269.56857 4.9242,113.40668 -20.476,228.61464 -62.4795,331.40231 35.1753,10.34654 86.5507,-45.41202 87.0825,-48.11286 45.4823,-107.01391 71.5923,-226.4456 62.9626,-343.30376 -7.3172,-99.06378 -34.9505,-194.32801 -92.7055,-276.28384 C 1230.5505,199.13309 1124.5097,126.75062 1006.1504,77.293797 617.01342,-85.307081 241.65623,158.39732 151.40384,549.94809 c -28.22253,122.44035 -19.29454,273.2096 43.63829,386.48631 16.57059,5.85139 71.76234,63.9784 103.69134,66.6016 z"
     sodipodi:nodetypes="ccccccccccccc" />
  <path
     id="shape01"
     fill="#ff6a00"
     stroke-opacity="0"
     stroke="#000000"
     stroke-width="0"
     stroke-linecap="square"
     stroke-linejoin="bevel"
     d="M 408.50918,1037.4348 C 362.75695,929.67313 266.30537,757.36951 290.56201,642.57838 368.13202,275.49371 684.63356,79.290615 979.14895,239.21961 c 89.58245,48.64492 157.99605,96.82292 212.81085,197.74344 42.4649,78.17918 44.3111,168.57944 47.7773,261.98278 4.0887,110.18122 -36.397,224.88793 -73.5395,324.85087 30.9013,9.9784 92.4648,-30.16709 108.7329,-42.7577 60.6442,-158.51569 89.3881,-252.5617 76.5953,-406.97303 C 1317.6213,403.45501 1297.3579,390.3539 1236.9915,310.06313 1126.8987,187.93695 1074.2964,175.35081 970.35339,127.54761 628.61472,-29.616423 277.66494,227.22028 197.49448,607.85921 c -25.39557,242.80856 90.903,396.51299 179.52828,550.89649 14.5542,5.6496 3.42483,-123.802 31.48642,-121.3209 z"
     sodipodi:nodetypes="ccccccccccccc" />
  <path
     id="shape02"
     fill="#ffff00"
     stroke-opacity="0"
     stroke="#000000"
     stroke-width="0"
     stroke-linecap="square"
     stroke-linejoin="bevel"
     d="M 507.77354,1047.1742 C 465.76858,943.29535 345.37541,809.67285 367.81775,698.94657 439.58614,344.85581 666.26306,148.61906 937.18343,302.55518 c 82.40567,46.82093 139.36357,64.43745 189.71737,161.70694 39.0063,75.3523 56.501,162.30322 59.5974,252.37709 3.653,109.17213 -70.1578,263.2466 -104.4463,359.66649 28.4312,9.592 107.5357,-23.8301 125.7217,-58.7486 37.115,-100.40983 79.6787,-149.63881 84.1104,-334.58426 3.6508,-97.05451 -10.6135,-179.1714 -71.5962,-281.44289 C 1160.2743,302.61563 1065.7294,251.36812 970.10391,205.37217 655.71439,54.150099 322.62237,275.45368 268.42076,629.23239 c -23.19521,114.81392 17.78093,285.86186 152.76994,476.13271 13.39189,5.4361 60.75406,-60.5565 86.58284,-58.1909 z"
     sodipodi:nodetypes="ccccccccccccc" />
  <path
     id="shape03"
     fill="#409b68"
     stroke-opacity="0"
     stroke="#000000"
     stroke-width="0"
     stroke-linecap="square"
     stroke-linejoin="bevel"
     d="M 642.70629,1062.0738 C 601.9852,958.10821 439.93128,849.91975 461.80178,739.05 c 69.93996,-354.54268 248.75628,-443.29799 437.171,-365.13629 79.99436,46.81874 161.00662,47.16726 209.83782,144.51341 37.8282,75.41327 17.3074,209.19644 14.065,278.56445 3.4736,106.37013 -97.1624,256.73983 -130.52775,353.31283 27.60355,9.5838 73.16095,-26.1968 84.66125,-32.5421 52.0696,-94.1995 125.0554,-156.34991 155.4818,-365.76728 14.5691,-124.1451 -13.8131,-220.4602 -58.9093,-297.14127 -58.2131,-98.9871 -144.2671,-152.15751 -189.87845,-170.78523 -298.47783,-157.91917 -619.94879,44.11785 -647.40217,414.87687 -1.81643,242.16128 156.70116,303.85181 231.04841,390.06501 13.00079,5.4334 50.27706,-29.2849 75.3569,-26.9366 z"
     sodipodi:nodetypes="ccccccccccccc" />
  <path
     id="shape04"
     fill="#1e74fd"
     stroke-opacity="0"
     stroke="#000000"
     stroke-width="0"
     stroke-linecap="square"
     stroke-linejoin="bevel"
     d="m 710.34855,990.21285 c -35.74982,-94.05997 -219.2078,-109.6617 -210.08664,-262.5858 61.714,-320.88003 241.38405,-334.70312 472.57643,-195.56419 70.32146,42.32123 37.80386,33.22325 80.69116,121.28709 33.2237,68.2212 -22.6134,148.66867 -76.05057,228.57575 2.99229,96.25634 -37.59248,74.28804 -66.99157,161.6991 24.2692,8.656 101.26534,91.3591 109.89364,81.7383 31.6435,-90.5454 105.3616,-154.76513 136.1534,-360.10694 16.3602,-108.25003 -7.2748,-203.87349 -52.2619,-281.88424 -51.1371,-89.54343 -46.3449,-79.36728 -127.95694,-120.92427 -268.31808,-136.62824 -526.64483,37.08544 -574.03851,336.49784 -7.35365,290.24372 321.51717,341.37931 339.35796,326.18401 27.38622,24.5468 -53.3414,-37.02605 -31.28646,-34.91665 z"
     sodipodi:nodetypes="ccccccccccccc" />
  <path
     id="shape05"
     fill="#7f00ff"
     stroke-opacity="0"
     stroke="#000000"
     stroke-width="0"
     stroke-linecap="square"
     stroke-linejoin="bevel"
     d="M 736.46959,929.4671 C 704.28753,899.35593 580.78991,891.93058 569.19393,752.95301 592.97817,634.91329 679.48513,577.67572 722.26645,560.69236 c 17.25339,-9.85505 121.59764,-66.20548 228.57709,-0.64314 67.28446,41.23524 45.63031,129.94384 42.54089,138.89658 -11.20235,70.4612 -73.36234,142.87288 -90.19059,164.2009 -63.89309,110.81313 -59.30513,76.23168 -34.33111,136.59449 23.22498,8.42931 21.41686,57.30111 29.21654,56.55141 38.40256,-37.8675 85.95564,-47.6863 158.15323,-199.79007 81.2313,-208.19647 19.3994,-281.64947 18.8549,-298.04854 -1.1758,-6.28247 5.7768,-7.28878 12.4594,-16.94403 4.5066,-30.89409 2.0242,-18.54219 -3.4811,-28.58404 C 1062.2988,490.09504 992.07944,459.49119 913.98531,419.00546 657.2414,285.89939 467.83991,603.9332 481.43662,741.70459 c 40.46277,245.65634 299.94662,260.82631 293.37488,244.18848 23.96247,-5.37959 5.31725,-34.7344 -38.34191,-56.42597 z"
     sodipodi:nodetypes="cccccccccccccccc" />
  <path
     id="shape06"
     fill="#f2f2f2"
     fill-rule="evenodd"
     stroke-opacity="0"
     stroke="#000000"
     stroke-width="0"
     stroke-linecap="square"
     stroke-linejoin="bevel"
     d="m 921.12832,828.17851 c -0.54952,-52.31652 -61.85817,-24.27153 -43.97743,25.62082 1.10174,3.30488 8.8773,13.77754 0.55628,11.638 -17.10693,-4.39893 -33.02405,9.49139 -38.04774,24.86367 -9.57097,29.28678 25.47966,64.34684 27.08398,94.66766 0.94357,17.83344 -12.85816,56.59284 -5.10205,72.88074 17.68128,37.1308 62.41257,-3.3875 83.31438,2.882 8.38685,2.5161 2.03479,18.6266 13.73201,23.2031 58.85495,23.0304 132.05155,28.284 193.44075,28.284 47.7003,0 160.2655,9.5504 189.9676,-38.1028 7.6909,-12.3382 3.975,-139.53071 -9.8095,-146.17723 0.2056,-14.07389 -4.6818,-15.54833 -12.8095,-10.52682 -3.0956,1.95028 -7.1238,9.76966 -7.1238,9.76966 0,0 -3.1365,-16.4352 -9.4988,-20.41856 -9.7058,-6.07642 -19.2703,-2.16153 -28.6575,2.78441 -5.2503,2.7662 -10.2148,6.14426 -14.7096,10.01376 -9.3682,8.06518 -13.5364,20.63246 -15.1432,32.48407 -0.7822,5.77691 -0.1094,23.31669 -0.1094,17.48685 0,-5.40265 -6.2114,-8.96936 -11.1255,-6.15338 -5.4703,3.13167 -3.2935,21.36247 -7.9799,17.14558 -22.4054,-20.16572 -35.4707,-42.51197 -70.0367,-33.17465 -59.8751,18.86233 -53.0136,44.47624 -62.4854,75.29331 -4.531,4.0787 8.4793,-10.9246 -13.9967,-15.1982 -28.3059,1.0838 -31.9069,40.2106 -19.3771,2.9496 2.9729,-9.0103 19.8798,-50.69226 -20.7062,-66.33578 -56.98663,-13.7009 -84.54156,22.53974 -101.97171,40.61665 -4.29794,3.46147 -3.05312,5.9602 -12.33438,11.13828 6.73023,-8.30502 7.2149,-16.77809 5.22409,-22.15247 -2.17458,-5.87223 -10.80594,-9.58186 -17.43628,-9.11069 -37.25756,2.64793 22.00355,4.88908 9.82403,-46.16144 -5.57667,-11.84671 -22.22533,-1.17617 -23.48819,-5.77627 6.01108,-8.1054 43.2644,-64.16042 12.70079,-49.78843 -11.1078,4.9984 21.66919,-38.21025 15.75376,-27.56248"
     sodipodi:nodetypes="ccccccccccccccccccccccccccccccccc" />
  <path
     id="shape07"
     fill="#f2f2f2"
     stroke-opacity="0"
     stroke="#000000"
     stroke-width="0"
     stroke-linecap="square"
     stroke-linejoin="bevel"
     d="m 859.96488,1059.6834 c 13.47017,12.1229 45.61089,12.8548 61.8413,11.6376 7.31243,-0.5481 21.49346,-12.0225 21.49346,-4.6896 0,3.7662 -20.82283,24.2711 -23.01327,29.3094 -30.07816,69.1791 52.58005,152.3314 102.25723,184.0592 34.7388,22.1885 78.0119,43.4899 120.0584,30.481 16.4733,-5.0963 42.293,-16.4389 50.1519,-33.4115 1.5722,-3.3971 0.4743,-13.2508 3.2573,-10.7473 63.3445,57.0107 208.833,53.1377 246.6312,-39.4691 14.6734,-35.9497 8.0756,-82.0261 -21.2761,-108.4426 -1.0085,-0.9078 -14.1711,-11.0833 -14.1113,-11.1368 32.5431,-29.289 80.0126,-101.5686 42.9856,-143.22311 -22.0331,-24.78844 -44.1997,-2.73541 -67.9542,-2.73541 -1.3066,0 1.1027,-2.37418 1.7372,-3.51706 6.8381,-12.30736 34.4214,-67.45308 17.695,-78.74314 -18.193,-13.95927 -60.5127,39.54187 -71.252,56.17529 -14.8415,13.45684 -5.6351,46.17603 -109.922,77.62833 -139.7166,42.1382 -368.29273,39.883 -360.57972,46.8248 z"
     sodipodi:nodetypes="cccccccccccccccccc" />
  <path
     id="shape08"
     fill="#d9d9d9"
     stroke-opacity="0"
     stroke="#000000"
     stroke-width="0"
     stroke-linecap="square"
     stroke-linejoin="bevel"
     d="m 860.00929,1059.0629 c 10.13394,11.6832 45.69224,12.9648 61.92264,11.7476 7.31244,-0.5482 21.49347,-12.0224 21.49347,-4.6897 0,3.7663 -20.82283,24.2712 -23.01327,29.3095 -30.07816,69.1791 52.58005,152.3311 102.25767,184.0593 34.7388,22.1885 78.0117,43.4896 120.0581,30.481 16.4736,-5.0967 42.2932,-16.4388 50.1522,-33.4117 1.572,-3.3972 0.4741,-13.2507 3.2573,-10.7473 63.3445,57.0106 208.8327,53.1377 246.6311,-39.4691 14.6735,-35.9497 8.0755,-82.0261 -21.2763,-108.4427 -1.0082,-0.9077 -14.171,-11.0832 -14.1112,-11.1366 32.5432,-29.289 80.0127,-101.5682 42.9856,-143.22272 -22.033,-24.78842 -44.1996,-2.73541 -67.9539,-2.73541 -1.3069,0 1.1024,-2.37416 1.737,-3.51706 6.8381,-12.30736 34.4214,-67.45302 17.6951,-78.74309 -18.193,-13.95929 15.5688,31.37203 -34.7781,69.95043 -22.4333,33.37505 127.8436,-8.11984 -46.0606,87.58575 -8.0693,13.1093 137.1723,97.1238 2.5725,162.7816 -68.4865,5.4059 -80.7854,-58.1633 -89.4658,-61.3688 -7.0123,0.9409 9.0056,32.1663 -22.4679,64.8035 -128.6979,33.7149 -128.7718,-64.8239 -138.2514,-65.9058 -103.5617,122.8519 -101.01162,-80.784 -123.40374,-83.0078 -109.43949,-10.8682 -88.45089,4.3079 -89.98047,5.6791 z"
     sodipodi:nodetypes="ccccccccccccccccccccccc" />
  <path
     id="shape09"
     fill="#f2f2f2"
     stroke-opacity="0"
     stroke="#000000"
     stroke-width="0"
     stroke-linecap="square"
     stroke-linejoin="bevel"
     d="m 186.63199,918.06019 c -27.41769,0 -70.46631,-11.83103 -90.479199,20.58946 -17.151223,27.78453 38.427619,48.96357 38.427619,65.65045 0,6.309 -12.84606,-0.6391 -18.88806,1.1733 -20.671756,6.2004 -35.496066,13.1359 -50.368604,30.0899 -59.0996718,67.3731 -64.3807671,153.1227 -7.815778,222.3568 36.674581,44.8891 94.670952,62.3757 150.453512,49.8253 3.62636,-0.8165 7.44277,-6.9807 10.20535,-4.4947 2.16107,1.9459 2.65106,26.3096 4.55928,31.4578 9.0133,24.3355 23.1466,46.477 40.81514,65.4569 78.18297,83.983 197.07118,56.0148 266.8235,-20.7107 10.19594,-11.2168 12.77633,-35.1423 22.36131,-43.7695 4.8844,-4.3957 5.36969,12.3242 9.98708,16.9996 15.81531,16.0133 32.36878,23.9083 54.05949,29.1132 61.96403,14.8713 120.37236,8.2108 179.11206,-17.975 133.21151,-59.3835 186.26744,-142.5779 88.57997,-256.3557 -7.97208,-9.2851 -35.07172,-17.4047 -39.73151,-25.7912 -0.57324,-1.0337 2.51286,-3.8417 3.04056,-4.4935 41.71665,-51.6252 22.4964,-149.39056 -24.75011,-189.33484 -19.03491,-16.09301 -86.20527,-37.47778 -99.86897,-0.58629 -0.69419,1.87365 -1.95375,7.66437 -1.95375,5.66651 0,-16.77305 12.88155,-61.34184 -13.02761,-65.45654 -21.86818,-3.47328 -53.58677,47.91424 -44.8593,66.84865 14.65627,2.00102 23.48269,8.01901 26.4793,18.05395 -0.67536,28.95038 -6.07643,48.26392 -16.20326,57.9408 -20.83632,-42.98077 -55.15418,-51.62989 -102.95194,-25.94735 -21.28551,18.95986 -47.16012,62.72981 -45.97282,79.62561 -7.01872,1.3303 -14.43952,2.9197 -21.93098,3.149 -3.34996,1.2219 -5.46077,-51.98859 -91.92519,-83.12122 -79.72367,-12.99008 -104.40469,30.82167 -111.18627,29.00187 -7.70036,-1.88007 -3.95776,-34.63398 -47.6093,-55.19139 -23.09635,-8.3964 -51.49325,-0.16726 -55.19187,20.66231 -8.92852,4.94186 -7.79459,-20.43348 -10.18965,-20.43348 z"
     sodipodi:nodetypes="ccccccccccccccccccccccccccccccccc" />
  <path
     id="shape010"
     fill="#d9d9d9"
     stroke-opacity="0"
     stroke="#000000"
     stroke-width="0"
     stroke-linecap="square"
     stroke-linejoin="bevel"
     d="m 117.89078,962.02345 c -30.565662,-4.15202 -1.72509,-55.79431 -21.737989,-23.37385 -17.151212,27.78456 38.427629,48.96358 38.427629,65.6505 0,6.309 -12.84605,-0.6391 -18.88807,1.1733 -20.671746,6.2004 -35.496066,13.1359 -50.368592,30.0899 -59.0996717,67.373 -64.38076699,153.1227 -7.815779,222.3568 36.67459,44.8891 94.670951,62.3756 150.453511,49.8253 3.62636,-0.8166 7.44276,-6.981 10.20534,-4.4948 2.16108,1.946 2.65106,26.3096 4.55929,31.4579 9.0133,24.3355 23.14659,46.477 40.81513,65.4569 78.18299,83.983 197.07119,56.0148 266.82351,-20.7107 10.19593,-11.2168 12.77633,-35.1423 22.36132,-43.7695 4.88439,-4.3958 5.36967,12.3241 9.98706,16.9996 15.81533,16.0133 32.36879,23.9083 54.0595,29.1132 61.96403,14.8713 120.37236,8.2108 179.11207,-17.975 133.2115,-59.3835 186.26744,-142.578 88.57995,-256.3557 -7.97208,-9.2851 -35.07171,-17.4047 -39.73149,-25.7912 -0.57325,-1.0337 2.51285,-3.8417 3.04054,-4.4935 41.71665,-51.6253 22.49641,-149.39059 -24.75011,-189.3349 -19.0349,-16.09298 -86.20526,-37.47772 -99.86896,-0.58627 -0.69419,1.87365 -1.95374,7.66438 -1.95374,5.66649 0,-16.77301 10.00432,-40.97213 -4.39753,-43.426 -21.86817,-3.47328 -17.71095,42.29664 -8.98347,61.23105 14.65627,2.00104 130.19135,-32.42707 73.70066,108.32563 -26.94574,121.2721 85.87075,47.8966 -36.15065,26.531 30.29253,125.6432 47.26692,103.4876 46.98737,104.4534 -19.92857,-202.81103 -109.19797,-53.4564 -113.33007,-41.982 -72.69236,136.5409 -158.05426,63.4417 -165.54574,63.671 -3.34996,1.222 -182.51071,134.0252 -268.97514,102.8923 -79.72399,-12.9898 -65.10824,-155.5821 -71.89045,-157.4024 -7.70034,-1.88 -153.597919,122.8522 -111.384156,-65.84 17.366865,-50.8209 57.358246,-45.3272 122.075456,-44.1103 5.12937,-4.4613 -22.721,-32.76738 -65.4164,-45.24815 z"
     sodipodi:nodetypes="ccccccccccccccccccccccccccccccccc" />
  <path
     id="shape011"
     fill="none"
     stroke="#000000"
     stroke-width="5.65396"
     stroke-linecap="square"
     stroke-linejoin="bevel"
     d="m 860.94187,1059.6831 c 13.47016,12.123 44.63392,12.8547 60.86433,11.6376 7.31243,-0.5481 21.49345,-12.0225 21.49345,-4.6895 0,3.7661 -20.82283,24.271 -23.01327,29.3094 -30.07816,69.179 52.58006,152.3312 102.25762,184.0592 34.7387,22.1885 78.0119,43.4899 120.0583,30.4809 16.4733,-5.0962 42.2929,-16.4388 50.1519,-33.4117 1.5721,-3.3968 0.4745,-13.2505 3.2573,-10.7471 63.3445,57.0106 208.833,53.1377 246.6311,-39.469 14.6735,-35.9498 8.0758,-82.0262 -21.276,-108.4427 -1.0085,-0.9077 -14.171,-11.0832 -14.1114,-11.1367 32.5432,-29.289 80.0126,-101.5684 42.9857,-143.22284 -22.0331,-24.78845 -44.1997,-2.73542 -67.9541,-2.73542 -1.3068,0 1.1025,-2.37418 1.737,-3.51706 6.8382,-12.30737 34.4749,-67.55082 17.7487,-78.84087 -20.1736,-13.61734 -69.5497,53.78104 -66.9365,46.33245"
     sodipodi:nodetypes="cccccccccccccccc" />
  <path
     id="shape012"
     fill="none"
     stroke="#000000"
     stroke-width="5.65396"
     stroke-linecap="square"
     stroke-linejoin="bevel"
     d="M 195.04215,934.98722 C 132.10931,821.71057 123.1813,670.94201 151.40385,548.50126 241.6562,156.95092 617.0127,-86.753447 1006.1498,75.847386 c 118.3605,49.456884 224.4,121.839554 298.9551,227.632594 57.755,81.95539 85.387,177.21956 92.7042,276.2844 8.63,116.85749 -17.4801,236.28911 -62.9615,343.30402"
     sodipodi:nodetypes="cccccc" />
  <path
     id="shape013"
     fill="none"
     stroke="#000000"
     stroke-width="5.65396"
     stroke-linecap="square"
     stroke-linejoin="bevel"
     d="m 186.03519,917.35197 c -27.41783,0 -69.86951,-11.12288 -89.882399,21.29774 -17.151223,27.7844 38.427619,48.96515 38.427619,65.65219 0,6.3073 -12.84606,-0.6408 -18.88806,1.1716 -20.671756,6.202 -35.496066,13.1359 -50.368604,30.0915 -59.0996718,67.3714 -64.3807671,153.1212 -7.815778,222.3551 36.674581,44.8892 94.670952,62.3771 150.453512,49.8254 3.62636,-0.8151 7.44277,-6.9794 10.20535,-4.4931 2.16107,1.9459 2.65106,26.3079 4.55928,31.4577 9.0133,24.3355 23.1466,46.477 40.81514,65.4569 78.18297,83.9815 196.85445,55.5248 266.60676,-21.2007 14.26676,-20.0572 17.33562,-38.1704 22.41474,-43.3768 4.88594,-4.3973 5.42305,12.0791 10.04202,16.7547 11.14768,16.1105 32.47715,24.2489 54.16786,29.4554 61.96403,14.8715 120.37236,8.2093 179.11206,-17.9764 133.21151,-59.3836 186.26744,-142.5781 88.57997,-256.3541 -7.97208,-9.2852 -35.07172,-17.4049 -39.73151,-25.7915 -0.57324,-1.035 2.51286,-3.8416 3.04056,-4.4949 41.71665,-51.6253 22.4964,-149.39075 -24.75011,-189.33504 -19.03491,-16.09299 -86.20527,-37.4776 -99.86897,-0.58612 -0.69419,1.8735 -1.95375,7.66422 -1.95375,5.66633 0,-16.77303 12.88155,-61.34174 -13.02761,-65.45643 -21.86818,-3.47329 -53.35591,45.53291 -43.65155,63.00186"
     sodipodi:nodetypes="ccccccccccccccccccccccc" />
  <path
     id="shape014"
     fill="none"
     stroke="#000000"
     stroke-width="5.65396"
     stroke-linecap="square"
     stroke-linejoin="bevel"
     d="m 861.83423,1059.0941 c 13.47017,12.1229 44.63392,12.8548 60.86433,11.6377 7.31244,-0.5481 21.49345,-12.0225 21.49345,-4.6896 0,3.766 -20.82283,24.271 -23.01327,29.3093 -30.07815,69.1791 52.58007,152.3313 102.25766,184.0593 34.7388,22.1886 78.0118,43.4898 120.0582,30.481 16.4733,-5.0963 42.293,-16.4389 50.152,-33.4117 1.5723,-3.397 0.4742,-13.2506 3.2574,-10.7471 63.3444,57.0105 208.8328,53.1375 246.631,-39.4693 14.6736,-35.9496 8.0756,-82.0261 -21.2761,-108.4424 -1.0082,-0.9079 -14.171,-11.0833 -14.1113,-11.1367 32.5431,-29.289 80.0127,-101.5685 42.9857,-143.22298 -22.0331,-24.78845 -44.1997,-2.7354 -67.9541,-2.7354 -1.3067,0 1.1026,-2.3742 1.737,-3.51708 6.8379,-12.30736 34.4749,-67.55082 17.7488,-78.84087 -20.1738,-13.61735 -69.5499,53.78105 -66.9364,46.33244"
     sodipodi:nodetypes="cccccccccccccccc" />
  <path
     id="shape015"
     fill="none"
     stroke="#000000"
     stroke-width="5.65396"
     stroke-linecap="square"
     stroke-linejoin="bevel"
     d="m 923.66517,833.02792 c 0,-7.61538 -4.11214,-21.72041 -10.54333,-26.26807 -31.21682,-22.07437 -46.2128,25.50399 -36.25667,49.82503 1.39667,3.41186 9.54857,9.37895 5.86188,9.37895 -14.46876,0 -21.38508,-6.44768 -34.95399,8.20638 -4.58599,4.95286 -19.91511,33.91563 -0.65133,28.13651"
     sodipodi:nodetypes="cccccc" />
  <path
     id="shape016"
     fill="none"
     stroke="#000000"
     stroke-width="5.05461"
     stroke-linecap="square"
     stroke-linejoin="bevel"
     d="m 925.62992,999.29205 c 1.10504,0.14194 1.77615,-3.1404 2.27959,-4.10339 16.84862,-32.22224 65.33962,-58.86015 101.46979,-52.34068 42.1096,15.57785 38.5944,39.07986 29.5265,65.60302 -11.1188,32.5217 -9.7333,2.9615 14.6004,-1.9051 12.4271,-2.4856 15.199,6.8521 17.3962,18.7577 1.3994,3.99 0.4067,16.8313 0.4067,12.6028 -1.1259,-22.4928 6.2712,-45.7867 19.5516,-62.89553 27.406,-34.38129 90.3532,-44.95084 111.9324,10.2861 10.9277,18.11223 1.5202,4.16961 1.5062,4.82375 0.9233,-1.21168 0.5732,-0.11689 0.6784,-0.45185 0.7665,-6.09071 1.4009,-37.74773 16.3777,-26.69538 15.2183,12.71713 -13.513,-17.34643 20.2724,-46.77208 38.4028,-32.37066 63.3477,10.36542 47.4649,17.512"
     sodipodi:nodetypes="cccccccccccccc" />
  <path
     id="shape017"
     fill="none"
     stroke="#000000"
     stroke-width="5.05461"
     stroke-linecap="square"
     stroke-linejoin="bevel"
     d="m 901.04269,863.88511 c 0,-1.56456 2.85152,-2.13799 4.07071,-2.68664 36.76038,-6.79393 6.4958,35.19358 -4.88487,49.97159 -2.02547,2.43055 -5.37336,6.13044 -5.37336,6.13044 0,0 21.78713,-8.82095 25.56427,-1.17243 2.50565,5.07427 3.0123,10.47188 3.0123,16.04668 0,13.82026 -11.12929,26.64762 -23.61027,31.14062 -3.21482,1.15734 15.62017,-3.69624 22.76893,2.10045 6.36084,8.2092 5.64485,10.97947 5.64485,21.20006 0,2.05694 -2.25563,10.66192 -2.60537,12.67617"
     sodipodi:nodetypes="cccccccccc" />
  <path
     id="shape018"
     fill="none"
     stroke="#000000"
     stroke-width="5.05461"
     stroke-linecap="square"
     stroke-linejoin="bevel"
     d="m 898.63614,916.22078 c -11.02025,3.19066 -16.8162,13.92883 -17.61265,19.46588"
     sodipodi:nodetypes="cc" />
  <path
     id="shape019"
     fill="none"
     stroke="#000000"
     stroke-width="5.05461"
     stroke-linecap="square"
     stroke-linejoin="bevel"
     d="m 905.5564,963.40802 c -8.55184,0 -19.17477,7.63139 -18.94244,18.85541"
     sodipodi:nodetypes="cc" />
  <path
     id="shape020"
     fill="#f2f2f2"
     fill-rule="evenodd"
     stroke="#000000"
     stroke-width="5.05461"
     stroke-linecap="square"
     stroke-linejoin="bevel"
     d="m 1311.1283,927.19225 c 0,-23.00056 35.2869,-10.53517 17.993,9.81849"
     sodipodi:nodetypes="cc" />
  <path
     id="shape021"
     fill="none"
     stroke="#000000"
     stroke-width="5.65396"
     stroke-linecap="square"
     stroke-linejoin="bevel"
     d="M 681.03589,899.76657 C 479.28985,808.9816 586.58774,604.95106 758.75996,545.3248 c 163.97521,-56.78785 297.01714,39.38705 216.45474,208.87485 -18.20097,38.28972 -42.55688,70.82658 -68.38911,104.14399"
     sodipodi:nodetypes="cccc" />
  <path
     id="shape022"
     fill="#f2f2f2"
     fill-rule="evenodd"
     stroke="#000000"
     stroke-width="5.05461"
     stroke-linecap="square"
     stroke-linejoin="bevel"
     d="m 675.98838,977.74022 c 0,-83.24764 -151.53983,-67.0053 -151.53983,73.56158"
     sodipodi:nodetypes="cc" />
  <path
     id="shape023"
     fill="#f2f2f2"
     fill-rule="evenodd"
     stroke="#000000"
     stroke-width="5.05461"
     stroke-linecap="square"
     stroke-linejoin="bevel"
     d="m 196.97158,971.21537 c -23.17419,-20.85644 12.14509,-55.95257 36.47384,-57.73845 20.80288,-0.69783 46.12547,17.28107 55.38896,35.14625 3.99403,7.70253 7.54455,33.5891 7.54455,24.91251 0,-27.11175 91.26227,-40.14689 123.04526,-27.84346 52.49996,23.96973 61.02641,44.05958 69.58113,52.58493 19.88147,34.54925 12.40097,43.81905 12.64755,47.60245"
     sodipodi:nodetypes="ccccccc" />
  <path
     id="shape024"
     fill="none"
     stroke="#000000"
     stroke-width="5.05461"
     stroke-linecap="square"
     stroke-linejoin="bevel"
     d="m 501.77633,1025.8219 c 0,6.2937 21.55485,0.2101 23.36254,-1.5509"
     sodipodi:nodetypes="cc" />
  <path
     id="shape025"
     fill="none"
     stroke="#000000"
     stroke-width="5.05461"
     stroke-linecap="square"
     stroke-linejoin="bevel"
     d="m 678.15946,887.95379 c -5.24094,0 5.49077,9.66032 7.49014,14.87224 6.02603,15.70834 3.76733,30.50596 -0.92269,46.19314 -1.36421,4.56303 -10.35293,21.63056 -9.82404,19.49682"
     sodipodi:nodetypes="cccc" />
  <path
     id="shape026"
     fill="#f2f2f2"
     fill-rule="evenodd"
     stroke="#000000"
     stroke-width="5.65396"
     stroke-linecap="square"
     stroke-linejoin="bevel"
     d="m 700.14079,119.54489 c 0,68.44626 10.85084,143.11593 26.48713,209.4602 15.52005,65.84482 43.59344,112.11289 -8.03331,164.91126 -34.38851,35.16906 -76.25905,52.37118 -123.53227,64.2837 -36.92791,9.30545 -87.41271,20.63846 -123.09942,1.1732 -131.17861,-71.55059 -39.48916,-315.51334 34.95405,-394.10654 36.23388,-38.25406 71.59661,-71.34159 125.05302,-78.743132 19.09148,-2.643417 66.06626,2.188118 67.95407,29.052402"
     sodipodi:nodetypes="cccccccc" />
  <path
     id="shape027"
     fill="#f2f2f2"
     fill-rule="evenodd"
     stroke="#000000"
     stroke-width="5.65396"
     stroke-linecap="square"
     stroke-linejoin="bevel"
     d="m 854.09624,442.74427 c -6.10608,-55.42274 -2.01812,-100.57415 -8.49423,-164.27674 -13.27545,-78.60955 -25.84191,-93.14599 -29.0922,-139.94928 -0.84875,-12.22193 1.61406,-23.38877 9.76976,-32.82599 63.06365,-72.972401 208.88233,158.14097 226.22423,192.0709 21.0876,41.25647 46.268,93.39991 40.3816,141.07361 -8.4479,68.42993 -146.27909,72.57614 -191.48719,53.92757 -22.37295,-9.22848 -34.73765,-17.54133 -47.03057,-47.79777"
     sodipodi:nodetypes="cccccccc" />
  <path
     id="shape028"
     fill="#313131"
     fill-rule="evenodd"
     stroke="#000000"
     stroke-width="5.65396"
     stroke-linecap="square"
     stroke-linejoin="bevel"
     d="m 594.36985,434.77484 c -8.3857,-31.12651 -8.14532,-48.5499 -11.08596,-89.03822 0.84502,-18.39556 4.55716,-42.31722 7.00165,-53.79393 21.0257,-104.07581 58.92029,-53.92519 82.93836,13.2472 12.50055,34.96064 21.24234,74.53208 21.89065,99.37093 -0.92363,10.74405 -12.84088,9.72635 -18.52938,11.77432 -19.10684,7.85897 -25.96413,-155.14438 -49.6766,-139.38873 -26.0114,17.28314 6.5936,146.20644 0.2268,152.36296 -0.30453,2.20816 -14.91415,8.59242 -32.14134,9.40909"
     sodipodi:nodetypes="ccccccscc" />
  <path
     id="shape029"
     fill="#313131"
     fill-rule="evenodd"
     stroke="#000000"
     stroke-width="5.65396"
     stroke-linecap="square"
     stroke-linejoin="bevel"
     d="m 880.78981,405.41587 c -4.64062,-24.01825 -11.68714,-57.26466 -11.92737,-90.00002 -0.432,-18.35898 -2.4445,-36.83196 0,-48.30867 10.28323,-79.1985 51.74555,-60.60988 75.76364,6.56249 10.01736,35.69332 22.4229,81.16322 23.07122,106.00191 -0.92364,10.74407 -13.49234,7.85742 -19.18084,9.9054 -14.18117,-3.46147 -22.78882,-157.122 -46.50129,-141.36637 -26.01149,17.28314 9.8501,145.58328 3.4833,151.73978 -0.30452,2.20817 -7.28133,4.77601 -24.50852,5.59269"
     sodipodi:nodetypes="ccccccscc" />
  <path
     id="shape030"
     fill="none"
     stroke="#000000"
     stroke-width="5.65396"
     stroke-linecap="square"
     stroke-linejoin="bevel"
     d="m 607.51433,655.89604 c 11.87326,-17.55061 21.84415,-26.06687 32.1585,-35.80245 113.52118,-107.15127 222.92365,-102.15135 361.15937,-53.2755 84.5655,29.89928 99.6538,-59.51154 83.1521,-53.14668"
     sodipodi:nodetypes="cccc" />
</svg>
