<svg xmlns="http://www.w3.org/2000/svg" xmlns:xlink="http://www.w3.org/1999/xlink" viewBox="0 0 1134.2 852.9">
  <defs>
    <pattern xlink:href="#a" id="d" patternTransform="matrix(9.2135759,0,0,9.2135759,-105.08126,90.506448)"/>
    <pattern id="a" width="1" height="1.7" patternTransform="translate(0,0) scale(10,10)" patternUnits="userSpaceOnUse">
      <circle cy=".5" r=".5"/>
      <circle cx="1" cy=".5" r=".5"/>
      <circle cx=".5" cy="1.4" r=".5"/>
      <circle cx=".5" cy="-.4" r=".5"/>
    </pattern>
    <path id="i" d="M560.2-106.8h356.5V9.8H560.2z"/>
    <path id="g" d="M47.6 52.6h1097.5v510.9H47.6z"/>
    <radialGradient xlink:href="#b" id="e" cx="438" cy="197.2" r="142.8" fx="438" fy="197.2" gradientTransform="matrix(0.63055467,0.62869092,-0.65053325,0.65246173,185.40579,-64.759635)" gradientUnits="userSpaceOnUse"/>
    <linearGradient id="b">
      <stop offset="0" stop-color="#ff5454"/>
      <stop offset="1" stop-color="#fffcfc" stop-opacity="0"/>
    </linearGradient>
  </defs>
  <g transform="translate(1.2296736)">
    <rect width="201.1" height="56.9" x="484.7" y="42.9" fill="#ff9fcb" stroke="#e9665e" stroke-linecap="square" stroke-width="26.3" opacity=".6" paint-order="markers stroke fill" ry="0" transform="matrix(0.96993707,0.24335588,0,1,0,0)"/>
    <rect width="201.1" height="56.9" x="485.1" y="-44.3" fill="#cd9fff" stroke="#9951e7" stroke-linecap="square" stroke-width="26.3" opacity=".6" paint-order="markers stroke fill" ry="0" transform="matrix(0.96993707,0.24335588,0,1,0,0)"/>
    <rect width="201.1" height="56.9" x="951.2" y="392.8" fill="#ff9fcb" stroke="#e9665e" stroke-linecap="square" stroke-width="26.3" opacity=".6" paint-order="markers stroke fill" ry="0" transform="matrix(0.96993707,0.24335588,0,1,0,0)"/>
    <rect width="201.1" height="56.9" x="951.1" y="305.9" fill="#cd9fff" stroke="#9951e7" stroke-linecap="square" stroke-width="26.3" opacity=".6" paint-order="markers stroke fill" ry="0" transform="matrix(0.96993707,0.24335588,0,1,0,0)"/>
    <rect width="201.1" height="56.9" x="951.4" y="217" fill="#9fcbff" stroke="#6551e7" stroke-linecap="square" stroke-width="26.3" opacity=".6" paint-order="markers stroke fill" ry="0" transform="matrix(0.96993707,0.24335588,0,1,0,0)"/>
    <rect width="201.1" height="56.9" x="951.6" y="129.5" fill="#a4ff98" stroke="#2cd91e" stroke-linecap="square" stroke-width="26.3" opacity=".6" paint-order="markers stroke fill" ry="0" transform="matrix(0.96993707,0.24335588,0,1,0,0)"/>
    <rect width="201.1" height="56.9" x="952" y="43.2" fill="#fcff6e" stroke="#d1c31d" stroke-linecap="square" stroke-width="26.3" opacity=".6" paint-order="markers stroke fill" ry="0" transform="matrix(0.96993707,0.24335588,0,1,0,0)"/>
    <rect width="201.1" height="56.9" x="16.1" y="393.1" fill="#fcff6e" stroke="#d1c31d" stroke-linecap="square" stroke-width="26.3" opacity=".6" paint-order="markers stroke fill" ry="0" transform="matrix(0.96993707,0.24335588,0,1,0,0)"/>
    <rect width="201.1" height="56.9" x="16.3" y="305.7" fill="#ffab7e" stroke="#e17c25" stroke-linecap="square" stroke-width="26.3" opacity=".6" paint-order="markers stroke fill" ry="0" transform="matrix(0.96993707,0.24335588,0,1,0,0)"/>
    <rect width="201.1" height="56.9" x="951.3" y="479.9" fill="#ffab7e" stroke="#e17c25" stroke-linecap="square" stroke-width="26.3" opacity=".6" paint-order="markers stroke fill" ry="0" transform="matrix(0.96993707,0.24335588,0,1,0,0)"/>
    <rect width="201.1" height="56.9" x="16.3" y="217.5" fill="#ff9fcb" stroke="#e9665e" stroke-linecap="square" stroke-width="26.3" opacity=".6" paint-order="markers stroke fill" ry="0" transform="matrix(0.96993707,0.24335588,0,1,0,0)"/>
    <rect width="201.1" height="56.9" x="17" y="129.6" fill="#cd9fff" stroke="#9951e7" stroke-linecap="square" stroke-width="26.3" opacity=".6" paint-order="markers stroke fill" ry="0" transform="matrix(0.96993707,0.24335588,0,1,0,0)"/>
    <rect width="201.1" height="56.9" x="17" y="42.5" fill="#9fcbff" stroke="#6551e7" stroke-linecap="square" stroke-width="26.3" opacity=".6" paint-order="markers stroke fill" ry="0" transform="matrix(0.96993707,0.24335588,0,1,0,0)"/>
    <rect width="201.1" height="56.9" x="718" y="43.1" fill="#ffab7e" stroke="#e17c25" stroke-linecap="square" stroke-width="26.3" opacity=".6" paint-order="markers stroke fill" ry="0" transform="matrix(0.96993707,0.24335588,0,1,0,0)"/>
    <rect width="201.1" height="56.9" x="250.9" y="42.6" fill="#cd9fff" stroke="#9951e7" stroke-linecap="square" stroke-width="26.3" opacity=".6" paint-order="markers stroke fill" ry="0" transform="matrix(0.96993707,0.24335588,0,1,0,0)"/>
    <rect width="201.1" height="56.9" x="717.7" y="129.5" fill="#fcff6e" stroke="#d1c31d" stroke-linecap="square" stroke-width="26.3" opacity=".6" paint-order="markers stroke fill" ry="0" transform="matrix(0.96993707,0.24335588,0,1,0,0)"/>
    <rect width="201.1" height="56.9" x="484.2" y="129.3" fill="#ffab7e" stroke="#e17c25" stroke-linecap="square" stroke-width="26.3" opacity=".6" paint-order="markers stroke fill" ry="0" transform="matrix(0.96993707,0.24335588,0,1,0,0)"/>
    <rect width="201.1" height="56.9" x="250.8" y="129.5" fill="#ff9fcb" stroke="#e9665e" stroke-linecap="square" stroke-width="26.3" opacity=".6" paint-order="markers stroke fill" ry="0" transform="matrix(0.96993707,0.24335588,0,1,0,0)"/>
    <rect width="201.1" height="56.9" x="717.7" y="217.6" fill="#a4ff98" stroke="#2cd91e" stroke-linecap="square" stroke-width="26.3" opacity=".6" paint-order="markers stroke fill" ry="0" transform="matrix(0.96993707,0.24335588,0,1,0,0)"/>
    <rect width="201.1" height="56.9" x="484" y="217.4" fill="#fcff6e" stroke="#d1c31d" stroke-linecap="square" stroke-width="26.3" opacity=".6" paint-order="markers stroke fill" ry="0" transform="matrix(0.96993707,0.24335588,0,1,0,0)"/>
    <rect width="201.1" height="56.9" x="250.6" y="217.4" fill="#ffab7e" stroke="#e17c25" stroke-linecap="square" stroke-width="26.3" opacity=".6" paint-order="markers stroke fill" ry="0" transform="matrix(0.96993707,0.24335588,0,1,0,0)"/>
    <rect width="201.1" height="56.9" x="717.5" y="392.6" fill="#cd9fff" stroke="#9951e7" stroke-linecap="square" stroke-width="26.3" opacity=".6" paint-order="markers stroke fill" ry="0" transform="matrix(0.96993707,0.24335588,0,1,0,0)"/>
    <rect width="201.1" height="56.9" x="717.5" y="305.3" fill="#9fcbff" stroke="#6551e7" stroke-linecap="square" stroke-width="26.3" opacity=".6" paint-order="markers stroke fill" ry="0" transform="matrix(0.96993707,0.24335588,0,1,0,0)"/>
    <rect width="201.1" height="56.9" x="484.3" y="393" fill="#9fcbff" stroke="#6551e7" stroke-linecap="square" stroke-width="26.3" opacity=".6" paint-order="markers stroke fill" ry="0" transform="matrix(0.96993707,0.24335588,0,1,0,0)"/>
    <rect width="201.1" height="56.9" x="484.2" y="305.4" fill="#a4ff98" stroke="#2cd91e" stroke-linecap="square" stroke-width="26.3" opacity=".6" paint-order="markers stroke fill" ry="0" transform="matrix(0.96993707,0.24335588,0,1,0,0)"/>
    <rect width="201.1" height="56.9" x="250.4" y="305.7" fill="#fcff6e" stroke="#d1c31d" stroke-linecap="square" stroke-width="26.3" opacity=".6" paint-order="markers stroke fill" ry="0" transform="matrix(0.96993707,0.24335588,0,1,0,0)"/>
    <rect width="201.1" height="56.9" x="249.8" y="393.3" fill="#a4ff98" stroke="#2cd91e" stroke-linecap="square" stroke-width="26.3" opacity=".6" paint-order="markers stroke fill" ry="0" transform="matrix(0.96993707,0.24335588,0,1,0,0)"/>
    <rect width="201.1" height="56.9" x="717" y="479.7" fill="#ff9fcb" stroke="#e9665e" stroke-linecap="square" stroke-width="26.3" opacity=".6" paint-order="markers stroke fill" ry="0" transform="matrix(0.96993707,0.24335588,0,1,0,0)"/>
    <rect width="201.1" height="56.9" x="483.3" y="479.5" fill="#cd9fff" stroke="#9951e7" stroke-linecap="square" stroke-width="26.3" opacity=".6" paint-order="markers stroke fill" ry="0" transform="matrix(0.96993707,0.24335588,0,1,0,0)"/>
    <rect width="201.1" height="56.9" x="250.1" y="479.9" fill="#9fcbff" stroke="#6551e7" stroke-linecap="square" stroke-width="26.3" opacity=".6" paint-order="markers stroke fill" ry="0" transform="matrix(0.96993707,0.24335588,0,1,0,0)"/>
    <rect width="201.1" height="56.9" x="15.6" y="480.1" fill="#a4ff98" stroke="#2cd91e" stroke-linecap="square" stroke-width="26.3" opacity=".6" paint-order="markers stroke fill" ry="0" transform="matrix(0.96993707,0.24335588,0,1,0,0)"/>
    <rect width="201.1" height="56.9" x="481" y="41.2" fill="#ff9fcb" stroke="#e9665e" stroke-linecap="square" stroke-width="26.3" opacity=".6" paint-order="markers stroke fill" ry="0" transform="matrix(0.96993707,0.24335588,0,1,0,0)"/>
    <rect width="201.1" height="56.9" x="481.4" y="-45.9" fill="#cd9fff" stroke="#9951e7" stroke-linecap="square" stroke-width="26.3" opacity=".6" paint-order="markers stroke fill" ry="0" transform="matrix(0.96993707,0.24335588,0,1,0,0)"/>
    <rect width="201.1" height="56.9" x="947.5" y="391.1" fill="#ff9fcb" stroke="#e9665e" stroke-linecap="square" stroke-width="26.3" opacity=".6" paint-order="markers stroke fill" ry="0" transform="matrix(0.96993707,0.24335588,0,1,0,0)"/>
    <rect width="201.1" height="56.9" x="947.4" y="304.2" fill="#cd9fff" stroke="#9951e7" stroke-linecap="square" stroke-width="26.3" opacity=".6" paint-order="markers stroke fill" ry="0" transform="matrix(0.96993707,0.24335588,0,1,0,0)"/>
    <rect width="201.1" height="56.9" x="947.6" y="215.3" fill="#9fcbff" stroke="#6551e7" stroke-linecap="square" stroke-width="26.3" opacity=".6" paint-order="markers stroke fill" ry="0" transform="matrix(0.96993707,0.24335588,0,1,0,0)"/>
    <rect width="201.1" height="56.9" x="947.9" y="127.8" fill="#a4ff98" stroke="#2cd91e" stroke-linecap="square" stroke-width="26.3" opacity=".6" paint-order="markers stroke fill" ry="0" transform="matrix(0.96993707,0.24335588,0,1,0,0)"/>
    <rect width="201.1" height="56.9" x="948.3" y="41.5" fill="#fcff6e" stroke="#d1c31d" stroke-linecap="square" stroke-width="26.3" opacity=".6" paint-order="markers stroke fill" ry="0" transform="matrix(0.96993707,0.24335588,0,1,0,0)"/>
    <rect width="201.1" height="56.9" x="12.4" y="391.5" fill="#fcff6e" stroke="#d1c31d" stroke-linecap="square" stroke-width="26.3" opacity=".6" paint-order="markers stroke fill" ry="0" transform="matrix(0.96993707,0.24335588,0,1,0,0)"/>
    <rect width="201.1" height="56.9" x="12.6" y="304" fill="#ffab7e" stroke="#e17c25" stroke-linecap="square" stroke-width="26.3" opacity=".6" paint-order="markers stroke fill" ry="0" transform="matrix(0.96993707,0.24335588,0,1,0,0)"/>
    <rect width="201.1" height="56.9" x="947.5" y="478.2" fill="#ffab7e" stroke="#e17c25" stroke-linecap="square" stroke-width="26.3" opacity=".6" paint-order="markers stroke fill" ry="0" transform="matrix(0.96993707,0.24335588,0,1,0,0)"/>
    <rect width="201.1" height="56.9" x="12.6" y="215.8" fill="#ff9fcb" stroke="#e9665e" stroke-linecap="square" stroke-width="26.3" opacity=".6" paint-order="markers stroke fill" ry="0" transform="matrix(0.96993707,0.24335588,0,1,0,0)"/>
    <rect width="201.1" height="56.9" x="13.2" y="127.9" fill="#cd9fff" stroke="#9951e7" stroke-linecap="square" stroke-width="26.3" opacity=".6" paint-order="markers stroke fill" ry="0" transform="matrix(0.96993707,0.24335588,0,1,0,0)"/>
    <rect width="201.1" height="56.9" x="13.2" y="40.8" fill="#9fcbff" stroke="#6551e7" stroke-linecap="square" stroke-width="26.3" opacity=".6" paint-order="markers stroke fill" ry="0" transform="matrix(0.96993707,0.24335588,0,1,0,0)"/>
    <rect width="201.1" height="56.9" x="714.2" y="41.5" fill="#ffab7e" stroke="#e17c25" stroke-linecap="square" stroke-width="26.3" opacity=".6" paint-order="markers stroke fill" ry="0" transform="matrix(0.96993707,0.24335588,0,1,0,0)"/>
    <rect width="201.1" height="56.9" x="247.2" y="40.9" fill="#cd9fff" stroke="#9951e7" stroke-linecap="square" stroke-width="26.3" opacity=".6" paint-order="markers stroke fill" ry="0" transform="matrix(0.96993707,0.24335588,0,1,0,0)"/>
    <rect width="201.1" height="56.9" x="714" y="127.8" fill="#fcff6e" stroke="#d1c31d" stroke-linecap="square" stroke-width="26.3" opacity=".6" paint-order="markers stroke fill" ry="0" transform="matrix(0.96993707,0.24335588,0,1,0,0)"/>
    <rect width="201.1" height="56.9" x="480.5" y="127.6" fill="#ffab7e" stroke="#e17c25" stroke-linecap="square" stroke-width="26.3" opacity=".6" paint-order="markers stroke fill" ry="0" transform="matrix(0.96993707,0.24335588,0,1,0,0)"/>
    <rect width="201.1" height="56.9" x="247" y="127.8" fill="#ff9fcb" stroke="#e9665e" stroke-linecap="square" stroke-width="26.3" opacity=".6" paint-order="markers stroke fill" ry="0" transform="matrix(0.96993707,0.24335588,0,1,0,0)"/>
    <rect width="201.1" height="56.9" x="714" y="215.9" fill="#a4ff98" stroke="#2cd91e" stroke-linecap="square" stroke-width="26.3" opacity=".6" paint-order="markers stroke fill" ry="0" transform="matrix(0.96993707,0.24335588,0,1,0,0)"/>
    <rect width="201.1" height="56.9" x="480.3" y="215.7" fill="#fcff6e" stroke="#d1c31d" stroke-linecap="square" stroke-width="26.3" opacity=".6" paint-order="markers stroke fill" ry="0" transform="matrix(0.96993707,0.24335588,0,1,0,0)"/>
    <rect width="201.1" height="56.9" x="246.8" y="215.7" fill="#ffab7e" stroke="#e17c25" stroke-linecap="square" stroke-width="26.3" opacity=".6" paint-order="markers stroke fill" ry="0" transform="matrix(0.96993707,0.24335588,0,1,0,0)"/>
    <rect width="201.1" height="56.9" x="713.7" y="391" fill="#cd9fff" stroke="#9951e7" stroke-linecap="square" stroke-width="26.3" opacity=".6" paint-order="markers stroke fill" ry="0" transform="matrix(0.96993707,0.24335588,0,1,0,0)"/>
    <rect width="201.1" height="56.9" x="713.7" y="303.6" fill="#9fcbff" stroke="#6551e7" stroke-linecap="square" stroke-width="26.3" opacity=".6" paint-order="markers stroke fill" ry="0" transform="matrix(0.96993707,0.24335588,0,1,0,0)"/>
    <rect width="201.1" height="56.9" x="480.6" y="391.4" fill="#9fcbff" stroke="#6551e7" stroke-linecap="square" stroke-width="26.3" opacity=".6" paint-order="markers stroke fill" ry="0" transform="matrix(0.96993707,0.24335588,0,1,0,0)"/>
    <rect width="201.1" height="56.9" x="480.5" y="303.7" fill="#a4ff98" stroke="#2cd91e" stroke-linecap="square" stroke-width="26.3" opacity=".6" paint-order="markers stroke fill" ry="0" transform="matrix(0.96993707,0.24335588,0,1,0,0)"/>
    <rect width="201.1" height="56.9" x="246.6" y="304" fill="#fcff6e" stroke="#d1c31d" stroke-linecap="square" stroke-width="26.3" opacity=".6" paint-order="markers stroke fill" ry="0" transform="matrix(0.96993707,0.24335588,0,1,0,0)"/>
    <rect width="201.1" height="56.9" x="246.1" y="391.6" fill="#a4ff98" stroke="#2cd91e" stroke-linecap="square" stroke-width="26.3" opacity=".6" paint-order="markers stroke fill" ry="0" transform="matrix(0.96993707,0.24335588,0,1,0,0)"/>
    <rect width="201.1" height="56.9" x="713.3" y="478" fill="#ff9fcb" stroke="#e9665e" stroke-linecap="square" stroke-width="26.3" opacity=".6" paint-order="markers stroke fill" ry="0" transform="matrix(0.96993707,0.24335588,0,1,0,0)"/>
    <rect width="201.1" height="56.9" x="479.5" y="477.8" fill="#cd9fff" stroke="#9951e7" stroke-linecap="square" stroke-width="26.3" opacity=".6" paint-order="markers stroke fill" ry="0" transform="matrix(0.96993707,0.24335588,0,1,0,0)"/>
    <rect width="201.1" height="56.9" x="246.3" y="478.2" fill="#9fcbff" stroke="#6551e7" stroke-linecap="square" stroke-width="26.3" opacity=".6" paint-order="markers stroke fill" ry="0" transform="matrix(0.96993707,0.24335588,0,1,0,0)"/>
    <rect width="201.1" height="56.9" x="11.9" y="478.5" fill="#a4ff98" stroke="#2cd91e" stroke-linecap="square" stroke-width="26.3" opacity=".6" paint-order="markers stroke fill" ry="0" transform="matrix(0.96993707,0.24335588,0,1,0,0)"/>
    <g fill="none" fill-rule="evenodd" stroke-linecap="square" stroke-width="28" paint-order="markers stroke fill">
      <path fill="#e9e9ff" d="m693.6 735 219.2-120.8 8.3 122.2L697.9 798Z"/>
      <path fill="#353564" d="m625 731 4.6 67.8 68.3-.8-4.3-63z"/>
      <path fill="#4d4d9f" d="m625 731 179.4-144.3 108.4 27.5L693.6 735Z"/>
      <path fill="#020205" d="M629.6 798.8 814 728.4l107 8L698 798z"/>
      <path fill="#d5d5ff" d="m804.4 586.7 9.6 141.7 107 8-8.2-122.2z"/>
      <path fill="#57559f" d="m625 731 179.4-144.3 9.6 141.7-184.4 70.4z"/>
    </g>
    <circle cx="272.9" cy="412.1" r="131.6" fill="#cd0000"/>
    <circle cx="272.9" cy="412.1" r="131.6" fill="url(#d)" opacity=".4"/>
    <circle cx="272.9" cy="412.1" r="131.6" fill="url(#e)"/>
  </g>
  <g stroke-linecap="round" stroke-linejoin="round" stroke-width="8.2" font-size="100" font-weight="700">
    <path d="m105.4 108.6 1.7-3.9q8.7.2 14.3 2.7 5.7 2.4 8.5 6.8 2.8 4.3 2.8 10 0 6.1-2.8 11-2.8 4.6-8.4 7.4-5.5 2.7-13.8 2.7H52.3l5.8-38.5-5.8-36.5h53.4q10.4 0 16.2 5 5.8 4.7 5.8 13.3 0 4.7-2.2 9t-7 7.3-13 3.7m-32.6 32-8-9.8h37.3q4.5 0 7-2.2t2.5-6-2.7-6.3-8-2.4H70.1V99.7h28q3.6 0 6-2 2.5-2.3 2.5-6 0-3-2-4.9-2.2-2-6-2H64.8l8-9.7 5 31.7zm84.3-37.5h27.3q5 0 7.8-2.3t2.8-6.4-2.8-6.4-7.8-2.3h-30.2l9.3-9.9v69.5H143v-75h44.5q8.6 0 15 3.1 6.4 3 10 8.4 3.6 5.3 3.6 12.6 0 7.1-3.6 12.5t-10 8.4-15 3h-30.2zm11.2 7.1h23.3l27 35.1h-24zM228 70.3h20.6v75H228zM346 114q-1.2 9.8-6.9 17.3t-15 11.5Q315 147 303 147q-13 0-22.9-4.9t-15.3-13.7-5.4-20.5 5.4-20.5q5.5-8.8 15.3-13.7t23-4.9q12 0 21.1 4.1 9.3 4.1 15 11.6t6.8 17.3h-20.8q-1-4.8-3.9-8-2.9-3.5-7.6-5.3T303 86.6q-7 0-12 2.6-5.2 2.5-7.9 7.3t-2.7 11.3 2.7 11.4q2.7 4.7 7.8 7.3T303 129q6.1 0 10.7-1.7 4.7-1.7 7.6-5 3-3.5 4-8.4zm10 31.3v-75h20.6v58.5l-5.5-4.3 42.5-54.2h22l-60.9 75zm35.8-35.8L407 97l29.5 48.4H413z" aria-label="BRICK" font-family="Unbounded" style="-inkscape-font-specification:&quot;Unbounded Bold&quot;;white-space:pre;shape-inside:url(#g)" transform="translate(0.44445531) matrix(0.98037345,0,0,2.0165057,0.05565405,-108.54482)"/>
    <path d="m105.4 108.6 1.7-3.9q8.7.2 14.3 2.7 5.7 2.4 8.5 6.8 2.8 4.3 2.8 10 0 6.1-2.8 11-2.8 4.6-8.4 7.4-5.5 2.7-13.8 2.7H52.3l5.8-38.5-5.8-36.5h53.4q10.4 0 16.2 5 5.8 4.7 5.8 13.3 0 4.7-2.2 9t-7 7.3-13 3.7m-32.6 32-8-9.8h37.3q4.5 0 7-2.2t2.5-6-2.7-6.3-8-2.4H70.1V99.7h28q3.6 0 6-2 2.5-2.3 2.5-6 0-3-2-4.9-2.2-2-6-2H64.8l8-9.7 5 31.7zm84.3-37.5h27.3q5 0 7.8-2.3t2.8-6.4-2.8-6.4-7.8-2.3h-30.2l9.3-9.9v69.5H143v-75h44.5q8.6 0 15 3.1 6.4 3 10 8.4 3.6 5.3 3.6 12.6 0 7.1-3.6 12.5t-10 8.4-15 3h-30.2zm11.2 7.1h23.3l27 35.1h-24zm123.6-9.9v15h-54.9v-15zm-40.8 7.5-4.9 30.1-8.4-9.4h57.4v16.8h-69.7l5.7-37.5-5.7-37.5h69.2v16.8H238l8.4-9.4zm69.3 23.2v-16.8h51.7V131zm39.9-60.7 34.1 75h-22.1l-28.6-66.2h6l-28.7 66.2H299l34.1-75z" aria-label="BREA" font-family="Unbounded" style="-inkscape-font-specification:&quot;Unbounded Bold&quot;;white-space:pre;shape-inside:url(#h)" transform="translate(0.44445531) matrix(1,0,0,1.8293415,352.64923,61.506416)"/>
    <path fill="#42095e" d="M585.2-6.8H579V-13h-6.3v-6.3h-6.2v-6.2h-6.3v-43.8h6.3v-6.2h18.7v6.2h6.3v43.8h-6.3V-13h6.3v6.2zM579-25.5v-43.8h-6.3v43.8zm37.5 6.2H604v-6.2h-6.3v-50h12.5v50h6.3v-50H629v50h-6.3v6.2zm43.7-6.2h6.3v6.2h-31.3v-56.2h31.3v6.2h-18.8v18.8h18.8v6.2h-18.8v18.8h6.3zm37.5 0h6.3v6.2h-31.3v-56.2H704v6.2h-18.8v18.8H704v6.2h-18.8v18.8h6.3zm37.5 6.2H729v-25h-6.3v25h-12.5v-56.2h25v6.2h6.3v18.8h-6.3v6.2h6.3v25zM729-50.5v-18.8h-6.3v18.8z" aria-label="QUEER" font-family="Ithaca" style="-inkscape-font-specification:&quot;Ithaca Bold&quot;;white-space:pre;shape-inside:url(#i)" transform="translate(0.44445531) matrix(1.9791824,0,0,2.8754385,-356.81878,399.47755)"/>
  </g>
</svg>