<svg xmlns="http://www.w3.org/2000/svg" viewBox="35.5 64 725.4 152.9">
  <path fill="#e69ee6" stroke="#e2e511" stroke-linecap="round" stroke-linejoin="round" stroke-width="2.2" d="M61.9 224.8a806 806 0 0 1 123.8 0q4.2.4 7.8 1.6 6.2 2.2 10 6.3 0 0 0 0c3.3 3 5 8.3 4.9 12.4v.3q-.1 3.4-2.1 6.4-2.2 3-5.2 5 0 0 0 0a27 27 0 0 1-11 4.1q-3.7.6-7.5.3-12.7-1.2-25.6-1.7-46-2-92.4 1.7c-13.1 1-24.5-6-25.5-16v-.2c-1-10 9-19.2 22.8-20.2" class="UnoptimicedTransforms" transform="matrix(4.06691 0 0 3.0452 -104.707 -595.64)"/>
  <path fill="#32e6fb" d="m545.7 131.5 1.7 16.4v13.5l.1 2h4.7l14.6-1 .8-5-.5-4.4-8 .3-3.4-.4.4-4.6 4.6-1V142l-4.6.3-.8-4.2 12.8-.7-1.4-7.9z"/>
  <path stroke="#000" d="M545.6 135.1q.5 4.7.7 9.3l.1 6.3a149 149 0 0 1-.6 11.5v.3c.2 1.3 2.2 1.5 3.3 1.7 4 .2 8-.3 12-.5l8-.3c.6 0 .6.2.9-.3l-.4-.7q-.5-2.2-.5-4.6v-3.4c.3-1.4-1.8-1.9-3-2l-5.2-.2c-1.4 0-4.1.9-5.5.8h-.2l-.1-.1c.8.4 2.8.2 3.6.6v-.2c-.2-.3-2.5-.5-1.6-1-.4-1-.2-1.7-.3-3-.1-.7 1.4-.5 2-.6q1.3-.2 2.8-.2.8.2 1-.6.2-1.6-.1-3.2l-.3-1.5c-.5-1.7-2.6-1.5-4-1.5H556c-.4 0-4.6-1 .6 1.1l-.2-.3c-.2-.5-.2-1.8-.2-2.3v-1.4q.5-.2 1.1 0h.7q3.6 0 7-.2 2.1-.1 4.1-.5h.6q0-.2.2-.3v-.1l-.2-.3-.2-1.4-.8-4.8-.2-1.4c-.6-2.3-2.3-1.6-3.4-1.2q-2.7.6-5.4.8l-7.3.4-5.7.5-1 .1h-.7l-.4.4.1 2.2c.2.7 0 2.3.4 2.8l.7 1 .5.6v.4-.4l.4-.2q.4 0 .7-.2v-.6l-.2-2.1v-2.1h.9l1-.2 5.6-.5 7.4-.5q2.7-.2 5.3-.8l.5-.1.3-.1c-.1-.1-2-2.5-2.3-1.5l.2 1.4.8 4.9.2 1.3v.5l.2-.2-.5.1q-2 .4-4 .5l-6.9.3q-1-.2-2 .2-.2.7 0 1.5c0 2 0 4 3 4.4l3.5-.1h1.4c-2-1.2-3-1.5-2-1.3l.3 1.5q.3 1.5.1 3c-.1.5-.4.3-.8.4-1 0-3.2 1-4.1 1q-.9 0-.7.8v3c.2.5.1 1.3.2 1.4 1 .8 3 .9 4.2.8h4.1l5.2.2h.3l.2.1-2.3-1.4.1.2v3.5l.1 4.5q0 .3.3.7l.1-.2h-.6l-7.6.5c-4 .3-8 .8-12.1.5-1.4-.2-.7-.2 1.6 1.3l-.1-.3v-.8q.4-.8.3-1.7v-9.3q-.3-7.8-1.3-15.7z"/>
  <path fill="#32e6fb" d="m605.7 130 1.7 16.4v13.5l.2 2h4.6l14.6-1 .8-5.1-.5-4.3-8 .2-3.4-.3.4-4.7 4.6-.9v-5.3l-4.6.2-.8-4.2 12.8-.7-1.4-7.8zm-28.1 2 .6 32.4 7.2.8 11.5-2.7 3.6-4.9.5-7.4-2.3-4-4-2.5-2.9-1 1.9-2.7.3-4.5-1-3.7-2.9-1.8-10.3-.7c-.3 0-2.2 2.7-2.2 2.7"/>
  <path stroke="#000" d="M605.6 133.6q.5 4.6.7 9.2l.1 6.3a149 149 0 0 1-.6 11.6v.3c.2 1.2 2.2 1.5 3.3 1.7 4 .2 8-.3 12-.6l8-.2c.6 0 .6.1.9-.4l-.4-.7q-.5-2.2-.5-4.5v-3.5c.3-1.4-1.8-1.8-3-2l-5.2-.1c-1.4 0-4.1.8-5.5.8h-.2l-.1-.2c.8.5 2.8.2 3.6.6v-.2c-.2-.3-2.5-.4-1.6-.9-.3-1-.2-1.7-.3-3-.1-.7 1.4-.6 2-.6l2.8-.3q.8.1 1-.6.2-1.5-.1-3.1l-.3-1.6c-.5-1.7-2.6-1.5-4-1.5H616c-.4 0-4.6-1 .6 1.2l-.2-.3c-.2-.5-.2-1.9-.2-2.4v-1.3q.5-.2 1.1 0h.7q3.6 0 7-.2l4.1-.5h.6v-.1l.2-.3-.2-.4-.2-1.3-.8-4.8-.2-1.4c-.6-2.3-2.3-1.6-3.4-1.3q-2.7.7-5.4.8l-7.3.5-5.7.5h-1l-.7.2q-.3 0-.4.3l.1 2.2c.2.7 0 2.3.4 2.8l.7.9.5.7v.4-.4q.3 0 .4-.3l.7-.1v-.6l-.2-2.2v-2h.2l.7-.1 1-.1q2.7-.4 5.6-.6l7.4-.4q2.7-.2 5.3-.9h.5q.3 0 .3-.2c-.1 0-2-2.4-2.3-1.5l.2 1.5.8 4.8.2 1.3v.5l.2-.2-.5.2-4 .5-6.9.2c-.6 0-1.4-.2-2 .3v1.4c0 2 0 4.1 3 4.4h4.9c-2-1.3-3-1.6-2-1.3l.3 1.5q.4 1.5.1 3c-.1.5-.4.3-.8.4-1 0-3.2 1-4.1 1q-.9 0-.7.8l.1 3v1.3c1.2.8 3.1 1 4.3.9l4.1-.1 5.3.2.2.1h.2l-2.3-1.3.1.2v3.5l.1 4.5q0 .3.3.7l.1-.3h-.6l-7.6.6q-6 .6-12.1.5c-1.4-.2-.7-.2 1.6 1.2l-.1-.3v-.7q.4-.9.3-1.8v-9.2q-.3-7.9-1.3-15.8z"/>
  <path fill="#32e6fb" d="m480.8 130-6 12.2.6 9.8 4.3 6.4 5.9 3.6 8.1 1.5 9.8-3.7 6.9 3.5 2.6-7.3-6.9-4.2 4.8-15-.5-6.9-6.5-6.8-9-1z"/>
  <path fill="#d3ff64" d="m584.7 151.5.3 5.7 4.1-1.8-.5-3.7-1.6-.6zm-.8-15.9.5 3.4 2.5-.7 1-2.5-1.4-1zm-90.2 20.1s-3-4-2.8-4.8l1.7-4.8 5.7 2.3 1.7-14.1-3-3.4-8 1.7-4.5 9.4-.2 10.3 5.9 4.1z"/>
  <path stroke="#000" stroke-width="1.4" d="M512.3 133.6q.1-1.4-.2-2.7a15 15 0 0 0-3.4-5.4q-1.4-1.3-3.1-2.1a21 21 0 0 0-7-2.5 18 18 0 0 0-9.1 1.4 26 26 0 0 0-13.1 12.5q-1 2-1.6 4a21 21 0 0 0-.9 8.4q0 1.8.7 3.8a14 14 0 0 0 4.3 6.9q1.8 1.6 4.2 2.8 3.7 2 8 3.3 2.8.4 5.5-.1l3.9-1 2.3-1.5 1.7-1.3.5-.5s-.3.3 0 .2h.1l-3.9-1.6 1.2.7 1.7 1.5 1.2 1 .5.4c13.5 6-3-1.4.7.3 1.6.7 3.2 2.2 5 1.8q.9-.2 1.3-.9l1.5-1.7 1.2-2 .3-.7.3-.7q0-.4-.5-.8l-1.3-1-2-1.1-1.8-1-1.5-.8c-.1 0-.4-.4-.6-.2l.2-.5.6-1.5a51 51 0 0 0 2.7-6.4l.7-3.3.4-2.9V134l-.3-1.2-1.2-.5-1.7-.6c-1-.4-.8-3.4-1.3-3.3l.6 6-.1 2.5-.4 2.9-.7 3.3a19 19 0 0 1-2.7 6.3l-.7 1.5-.2.6q0 .3.3.4l1.5.9 2 1 1.8 1 1.5 1 .6.6-.2.6-.4.7-1.2 2-1.5 1.6q-.4.5-1 .6h-.7l4 1.6-1.3-.6-1.3-1-2.8-2.3c-.4-.2-2.9-2-4.5-1.9l-.2.1-.6.5-1.6 1.3q-1 .8-2.2 1.3a16 16 0 0 1-8.8 1.1l-1.5-.4-.7-.3 1.3.6q-2.4-1.2-4.4-2.8a13 13 0 0 1-4.4-6.7 22 22 0 0 1 .1-12q.7-2.2 1.6-4 .8-2.1 2.1-3.9a34 34 0 0 1 6.9-6.3q1.8-1.3 4-2.2a18 18 0 0 1 10.9-.7c1.4.4 3.8 1.5-2-1a13 13 0 0 1 5.9 5l1.5 2.6q.7 1.5.9 2.9z"/>
  <path stroke="#000" stroke-width="1.4" d="M495.5 130.5q-2-.3-3.9.1a8 8 0 0 0-3.4 2 20 20 0 0 0-5.1 8.7l-.9 4.5q-.2 2.3.5 4.4.8 1.8 2.2 3.5a16 16 0 0 0 6.3 3.2q1.5.2 2.8 0l1.8-.3q.5 0 .5-.6l-.5-1.4a6 6 0 0 0-1.2-1.9 11 11 0 0 0-3-2l-.1.1.2-.6 1.6-3.1q0-.4.3-.2c1.4.2 4.7 1.8-1.6-.9q1.4.7 2.7 1.6l1 .6c1.2.7 2.6 1.9 4.1 1.7q.5-.2.7-.6l1-2.2 1.3-6.5a17 17 0 0 0-.5-5.3 8 8 0 0 0-1.5-2.9c-1.2-1.3-2.5-1.8-4.8-2-.2 1 1.1-.1-.4.6h.1l.5-.2 2.4.9q2.2.8-3.1-1.4l.3.1 1 .7q1 1.2 1.5 2.7l.5 2.6a16 16 0 0 1-.4 5.7l-.9 3.4q-.3 1.1-.9 2.1s-.3.5-.3.3l3.4 1.5-1.1-.6-2.7-1.7c-.2 0-4.1-2.1-5.8-2.1q-.4 0-.7.4l-.7 1.2-.9 2q-.3.4-.4.9.5.1.8.4 1.2.6 2.1 1.4.9.9 1.4 1.8l.5 1.4v.2q-.8.4-1.7.4-1.3 0-2.5-.2-2.3-.8 2.6 1.2l-.5-.2-1.5-1q-1.6-1.5-2.4-3.5a9 9 0 0 1-.7-4.3q.1-2.2.7-4.6a21 21 0 0 1 1.7-4.6q1.1-2.2 3-4 1.2-1.4 3-2 1.6-.5 3.4-.4z"/>
  <path fill="#32e6fb" d="m638.1 131.7 3.2-3.5 5-2 3.3-.7 4.4.3 3 1.6.3 4.6-1.3 3.4-5.4.3-3.6 2.7-1.2 4.2.3 2.7 2.8 1.7 3-.4 4.3-1.7 1.8 3.5 1 6-4 3.7-5.9 2.5-5.3.7-6-3-2.3-7.4-.3-11.7z"/>
  <path stroke="#000" d="M656.5 127.5a11 11 0 0 0-4.4-2.2c-1.4-.3-3.7-.3-5-.1a8 8 0 0 0-2.6.7l-1.6.9-2.2 1q-1.8 1.4-3.3 3.2-1.3 1.5-1.8 3.3-.7 2.2-1 4.4l-.4 3.9v3.3l.1 3.6.6 3.7q.3 2 1.3 3.7 1.9 2.6 5 3.6c1.8.8 4.5 1 6.4.8q2.8-.3 5.5-1.3 2.3-.8 4.2-2.3 1.4-1.2 2.6-2.5.7-.7.6-1.6l-.8-2.9-1.4-4q-.2-.9-.8-1.6c-2-1.1-1.6-1.4-2.8-.4l-1.2.8a8 8 0 0 1-5.3.6l-.4-.2-1.2-.5q2.8 1.6 1.5.7-.9-.7-1.2-2-.4-1.2-.4-2.5a6 6 0 0 1 .9-2.2q.8-1.2 1.9-2t2.5-1.2l2.6-.3 1.8.2q.4.2.7-.2.4-1 .5-2.2l.8-4.1.3-1.9v-.5l-.2-.4q-.9-1-2.4-1.3l-1-.2-1.3-.3c-.3.2.1.2 0 .5l1.5.7 1.6.4 1 .2c1 .4-2.4-1.4-1.5-.9l.2.4.1.4-.2 1.8-.8 4.2q-.2 1.1-.6 2.1 0 .1-.4 0h-1.7q-1.5 0-2.7.3a7 7 0 0 0-2.6 1.1q-1.2.9-2 2.1-.7 1-1 2.2 0 1.4.3 2.7.2 1.2 1 2a13 13 0 0 0 4.4 2.4l2.4.2 1.5-.4q.8-.2 1.4-.6l1.1-1 .4-.4c.7-.5 1.7.7-1.4-1.1.3 0 .6 1.2.8 1.5l1.4 4 .7 2.8c.2.8.2 1-.3 1.6l-2.5 2.5q-1.9 1.5-4.2 2.2-2.5 1-5.4 1.4-2.8 0-5.4-.8c-.3-.2-.8-.7-.8-.4q.2.4.8.5c.2 0-.4-.3-.6-.4l-1-1-.5-.7a10 10 0 0 1-1.4-3.5l-.6-3.7-.2-3.7v-3.3l.4-4q.2-2.2.9-4.3.6-1.9 1.8-3.3 1.4-1.7 3.3-3l2.2-1.1 1.6-.9 2.4-.7q2.1-.2 4.1 0l1.4.5.7.3-.4-.3.8.6z"/>
  <path fill="#000203" stroke="#000" stroke-linejoin="bevel" stroke-width="2" d="M576.8 131c-.4 1.5 0 3 .2 4.6l.2 2.3.2 2.6a178 178 0 0 1 0 12q0 1.5-.2 2.9-.1 2.3-.5 4.5l-.5 2.6-.5 1.2-.5.4.1.2 5.1 2.1-.2-.2v-.1l-1.6-.6-.7-.4h-.1l-2.3-.8q-.5-.4-.2 0l5 2.2h.1l.1-.2-.3-.7-.4-1.6q-.4-3.8-.4-7.7v-6l-.3-9v-4.8q0-2.4-.3-4.7z"/>
  <path stroke="#000" stroke-linejoin="bevel" stroke-width="1.1" d="M575.6 133.1a7 7 0 0 1 2-1.5q1.4-.9 3-1.1 1.2-.2 2.6-.2h2l2 .1 4 .6h.4l.7.3.4.2q-2.3-1.2-1-.4.9 1 1.4 2.2l.2.5q.3 1.1.2 2.2l-.1 1a9 9 0 0 1-2.2 4.2l-1 .9-1.3.7h-.2c1.8 1.4 1.4 1.5 2.7 1.3l1.5-.1q1 0 1.7.3l1.8.8.4.2-1.4-.8 1 .8 1.8 2.3a9 9 0 0 1 1.3 2.8q.4 1.5.4 3 0 2-.9 3.7a14 14 0 0 1-4.3 4.9l-1 .6q-1.6.9-3.3 1.4-1.5.4-3 .4a27 27 0 0 1-6.3-.6l-2.5-.7h-.3l-.3-.2.1.2c.6.7.8.4.6.7.6 0-.7.6.4 1.3.5.4 2-.4 1.7-.2-.8.5.2 0 .3.1.8.2-3.2.5-2.4.7 1 .2 6.7.3 7.7.4h3.4q1.5 0 3-.5 1.8-.5 3.3-1.4l1-.7a15 15 0 0 0 4.3-5l.4-1.3q.4-1.2.4-2.6v-1.1q0-1-.4-2-.5-1.5-1.4-3l-1.8-2.3-.6-.5-.7-.5-2.8-1.6-1.8-.8a6 6 0 0 0-3.3 0c-1.2.1-1.1-.2 1.4 1.4l.1-.1.4-.2 2-1.5 1-1.3q.7-1.5 1-3 .3-.5.2-1.1 0-1.2-.3-2.3l-.3-1-1.3-1.8-.4-.4q-1.6-1.2-3.6-1.7l-4.2-.6h-2l-1.9-.1q-1.2 0-2.5.3-1.6.3-3 1.2l-.9.6-.9 1.2z"/>
  <path stroke="#000" stroke-linejoin="bevel" stroke-width="1.1" d="M584.2 150.3c0 .6-.4 0-.4.7l-.1 1.7v4.2c-.1 1 1.7 1 2.3 1q1 0 1.9-.6l1.7-1.1q.6-.4.8-1.2.3-.6.2-1.2l-.3-1c-.7-1.1-2-1.6-3-2.2l-1.2-.5h-1l-1.3.2v.1c0 .2.5.6.6.7l.2-.2c.2-.3.6.7 1 .8h.1l1.2-.3q.6 0 1.1.2l1.1.5-1.9-1.1.2.1.7.6q.4.4.4 1t-.2 1.2l-.7 1q-.7.8-1.5 1.2-.9.5-1.7.6h-.4c1.5 1 2 .5 1.5 1v-4.9l-.2-2zm-1.2-15.7.5 3.4v1.6c-.1.6 0 .1 1.6.9h.1l.6-.5 2-1.4q.7-.7 1-1.6.3-.8-.1-1.3a6 6 0 0 0-3-1.6h-1l-1.6.4c-.1.2.9.4 1 .5l.7.2.7.2h2l.3.1.3.1-1.6-1 .2.2.2.2q.3.5.2 1-.2 1-.8 1.7-.9.8-2 1.4-.1.2-.6.3c1.3 1 2 1 1.4 1v-.5l-.2-1.2q-.2-1.8-.7-3.6z"/>
  <path fill="#32e6fb" d="M130.4 135.2c2.2-.3 2.4-1.7 2.4-1.7l-1-8.5h-2.2l-13.1 6.1-7.1 7.2-.8 3.1.4 2 3.6 3 4.7 3.3 1 1.5-.5 1.2-5.7 2-3 2 .6 2 2.2 4 1.7 1 4.6-.9 8-2 3.6-.7.7-6.3-2.7-9.8-4.3-3.2-1.2-2.6 1.7-1.6zm13.3-.8 3.3-3.5 4.8-2 3.4-.7 4.4.2 3 1.7.4 4.6-1.4 3.4-5.4.3-3.6 2.7-1.2 4.2.3 2.6 2.8 1.8 3-.4 4.3-1.7 1.9 3.4 1 6-4 3.8-6 2.4-5.3.7-6-2.9-2.2-7.4-.4-11.7zm30.5-6.7 1.8 16.5-.2 13.5.3 2h4.6l14.6-1 .8-5.1-.4-4.3-8.1.2-3.4-.3.5-4.6 4.5-1v-5.3l-4.5.2-.9-4.1 12.8-.7-1.4-8zm34.2-2 1 32.3 9.2.1-.4-6.1 6.7-1.5 6.6-7.8 2-8.6-1.8-4.9-11.4-3.7-7.8-.3z"/>
  <path fill="#d3ff64" d="M218.9 135.2v7.2l3.4-2.3v-3l-.7-1.7z"/>
  <path fill="#32e6fb" d="M241.1 127.2v6.7l1.6.2 3.5-.7 2 1.2 1 23 9.3-.9.2-4.7-2.2-17.4 4-.4.2-1.6.3-5.2-14.3-.7zm28.9 13.1.8 15.6 1.9.6 5.9-.5.6-14.8-.7-3-9.3 1.8zm3.4-15.7-3.3 2.8-.2 4 2.3 2 2.9 1 4.3-1.6 1.4-2.7-1.3-3-2-2.4zm19.8 7.8-3.7 10 .3 8 2.7 5.3 3.7 3 5.1 1.2 6.2-3 4.2 2.8 1.7-6-4.3-3.5 3-12.3-.4-5.6-4-5.6-5.7-.8z"/>
  <path fill="#d3ff64" d="M301.3 153.5s-1.9-3.4-1.7-4c0-.5 1-3.9 1-3.9l3.6 1.9 1-11.6-1.8-2.8-5.1 1.4-2.8 7.7-.1 8.5 3.7 3.4z"/>
  <path fill="#32e6fb" d="m324 128 5 2-.6 7.6.8 4.2 1.7 1.6 2-.4 1.2-4.4.6-8.8 6-.9v18.6l-2.8 6.7-3.5 3.2-3.9 1.6-4.6-2.6-2.7-6.2-1.3-12zm25 2.4 1.5 21.5V162l8.2.3 12.9-1.3-.6-8.8-10.3.1-1.8-2.2.5-2.5 4.9-1.2-.6-5.3-4.8-.1-.5-4.7 11.7.2 1.2-.3-1.2-7.5zm37.3 4.1 8.6-6.4 10.8-4.3.3 10.9-7.5 1.4-2 .6.2 3.1 5.3 4 2.3 5v11l-10.5 1.3-5.9 2.4-2-1-3.3-6.7 10.3-3.4-.6-2-2.6-2.3-7.1-5.9.2-3.4z"/>
  <path stroke="#000" d="M405 123.6c.4 2 .2 3.3.4 5.3l.2 6c3 1.3 1 .3 0 0 3.1 1.6.4-.2-.7-.4h-2.4a26 26 0 0 0-5 1.1q-.7.2-1.2.8l-.4.7-.2.8v.6q0 .3.3.7l.4.8.9.9 1.9 1.3 1.4 1.2.3.3h.1l.1.2.2.2.5.8 1 1.5.4.9.3 1.5.2 2.8-.1 4.1-.2 3q0 .5-.2.8.2-.1-.1-.2h-2.2l-2.5.5-7.1 1.8q-1.5.3-2.8 1-.7.3-1.7.4l-1-.3c3.1 2 1.4.8.8 0l-1.3-2q-.7-1.3-1.1-2.8-.3-.8-.4-1.7c0-.4.6-.4.9-.5q2-.8 4.1-1.3l3.5-1.2 1.2-.6q.3 0 .1-.3l-.4-1q-.2-.8-.6-1.2l-1.2-1.1-1.6-1-3.2-2c2.8 1.8.5.3-.1-.2l-2.1-1.6q-.8-.6-1.2-1.5t0-1.8a17 17 0 0 1 2.1-4 31 31 0 0 1 12.2-9l7.8-3 .9-.4c.2 0-.2.2 0 .2.2-.3-1 .3-.5-.5l.6.4-.1-1.1q.2-.5-.2-.3l-.6.2-4.6 1.7a116 116 0 0 0-9.4 4.5 30 30 0 0 0-7.5 6.4 17 17 0 0 0-2.3 4q-.2 1 0 1.9.3 1 1.1 1.6l2.1 1.6q1.4 1.4 3.3 2.1c.5.3 1.6 1-.8-.4l.8.5 1.6 1 1.2 1q.5.6.7 1.2l.3 1.1q.4 0 0 0l-1.1.6q-1.7.7-3.5 1.2l-4 1.3q-.8.1-1 .7l.2 1.7q.3 1.5 1 2.8l1.2 2q1 1.3 2.8 2.1l1 .3q.9-.2 1.7-.6a25 25 0 0 1 6-1.7l3.9-1q1.2-.4 2.6-.3h2.2q.4 0 .4-.2-.2-.3 0-.7l.1-3.1-.2-7-.3-1.7-.5-.9-1-1.4-.4-.9-.2-.2q0-.2-.2-.1v-.1l-.3-.4-1.5-1.1-2-1.4-1-1-.5-.8-.4-.6v-.6l.2-.7.4-.7q.4-.5 1.2-.7a20 20 0 0 1 5.2-1h2.3c2 .6-4.6-2.2 1 .3v-.1c-2.8-1.8-1.4-.6 0 .1v-.8l-.4-5.3-.6-6.3-.3-.1zm-274 .1c.5 2 .3 3.3.5 5.4l.2 6c3 1.2 1 .3 0-.1v.1c3.1 1.5.4-.3-.7-.5h-2.4a26 26 0 0 0-5 1.1q-.7.3-1.2.8l-.4.8-.2.7v.6l.2.7.5.8q.4.6.9 1l1.8 1.3 1.5 1.1.3.3.2.2.2.3.5.8 1 1.4.4 1q.3.7.3 1.5l.2 2.7-.1 4.2-.2 3q0 .5-.2.7.2-.1-.1-.1H127q-1.3.1-2.5.5l-7.1 1.7-2.8 1q-.7.4-1.7.5-.4 0-1-.4c3.1 2 1.4.8.8.1l-1.3-2q-.8-1.5-1.1-2.9-.3-.7-.4-1.6c0-.4.6-.5.8-.6l4.2-1.2 3.5-1.3 1.2-.5q.3 0 .1-.3l-.4-1.1-.6-1.2-1.2-1-1.6-1.1-3.2-1.9c2.8 1.8.5.2-.1-.3l-2.1-1.5q-.8-.7-1.2-1.6t0-1.8a17 17 0 0 1 2.1-4 31 31 0 0 1 12.2-8.9l7.8-3 .9-.4c.2-.1-.3.2 0 .1.2-.2-1 .4-.5-.4l.6.4-.1-1.2q.2-.5-.2-.3l-.6.3-4.6 1.7a116 116 0 0 0-9.4 4.4 30 30 0 0 0-7.5 6.4 17 17 0 0 0-2.3 4.1q-.2.9 0 1.9t1.1 1.6l2.1 1.6q1.4 1.2 3.2 2l-.7-.4.8.5 1.6 1 1.2 1.1.7 1.1.3 1.2q.5-.2 0 0l-1.1.5q-1.7.8-3.5 1.3l-4 1.2c-.4.2-1 .3-1 .8q-.1.7.2 1.6.3 1.6 1 2.8l1.2 2q1 1.4 2.8 2.2l1 .2q.8-.1 1.7-.5a25 25 0 0 1 6-1.8l3.9-1q1.3-.3 2.5-.3h2.3l.4-.1q-.1-.4 0-.8l.1-3-.2-7.1-.4-1.6q0-.5-.4-1l-1-1.4-.4-.8-.2-.3h-.2v-.1q0-.3-.3-.4l-1.5-1.1-2-1.4-1-1-.5-.8-.4-.6v-.6l.2-.8.4-.7q.4-.4 1.2-.7a20 20 0 0 1 5.2-.9h2.3c2 .5-4.6-2.3 1 .3v-.1c-2.8-1.8-1.4-.7 0 0l-.1-.7-.3-5.4c-.4-2-.4-3.3-.6-6.2l-.3-.2zm31.2 6.5a11 11 0 0 0-4.5-2.2c-1.4-.3-3.7-.3-5-.2a8 8 0 0 0-2.6.8l-1.6.8-2.2 1.1q-1.8 1.5-3.3 3.1-1.3 1.5-1.8 3.4-.7 2.1-.9 4.4-.3 1.8-.4 3.8l-.1 3.3.1 3.7.6 3.7q.3 2 1.3 3.6 1.9 2.6 5 3.7c1.8.7 4.6.9 6.5.8q2.7-.4 5.4-1.4 2.4-.7 4.2-2.2 1.4-1.2 2.6-2.6.8-.6.6-1.6l-.8-2.8-1.4-4-.7-1.7c-2-1-1.7-1.3-3-.3l-1 .7a8 8 0 0 1-5.4.6l-.4-.1-1.1-.6 1.4.8q-.9-.8-1.2-2-.4-1.2-.4-2.6a6 6 0 0 1 .9-2.1q.8-1.2 2-2 1-1 2.4-1.2l2.6-.3 1.8.2q.4.2.7-.2.4-1.1.5-2.2l.8-4.2.4-1.8-.1-.5-.2-.4q-1-1.1-2.3-1.3l-1-.3-1.4-.2c-.3.2.1.2 0 .4l1.5.7 1.6.4 1 .3c1 .4-2.3-1.4-1.5-.9l.2.3.1.5-.2 1.8-.8 4.2q0 1-.6 2 0 .2-.4.1l-1.7-.1q-1.4 0-2.7.3a7 7 0 0 0-2.6 1.2l-2 2q-.7 1.2-1 2.3l.3 2.7q.2 1 1 2a13 13 0 0 0 4.4 2.3q1.2.3 2.4.2l1.5-.3 1.5-.7 1-.8.5-.5c.6-.5 1.7.7-1.5-1.1.4 0 .6 1.2.8 1.4l1.4 4 .8 2.9c.1.8.1 1-.4 1.5q-1.2 1.5-2.5 2.5-1.8 1.5-4.2 2.3-2.6 1-5.3 1.3c-1.9 0-3.7 0-5.5-.8-.2-.1-.8-.6-.8-.3q.2.4.8.5c.3 0-.4-.3-.6-.5l-1-1-.5-.6a10 10 0 0 1-1.4-3.6q-.4-1.8-.6-3.7l-.1-3.6v-3.4l.3-3.9q.2-2.2.9-4.3.6-1.9 1.8-3.4 1.4-1.6 3.3-3l2.2-1 1.6-1 2.5-.6q2-.3 4 0l1.4.5.7.2-.4-.2.9.6zm12 1.2.6 9.2.1 6.3a149 149 0 0 1-.5 11.6v.3c.1 1.2 2.1 1.5 3.2 1.7 4 .2 8-.3 12-.6l8-.2q.7.1.9-.3l-.4-.8q-.5-2.2-.4-4.5v-3.5c.2-1.4-1.9-1.8-3.1-2l-5.2-.1c-1.4 0-4.1.8-5.5.8h-.2l-.1-.2c.8.5 2.9.2 3.6.6v-.2c-.1-.3-2.5-.4-1.6-.9-.3-1-.2-1.7-.3-3 0-.7 1.4-.6 2-.6l2.8-.3q.8.1 1-.6c.3-1 0-2 0-3.1l-.4-1.6c-.5-1.7-2.6-1.5-4-1.5h-2.2c-.4 0-4.6-1 .6 1.2l-.2-.3c-.2-.5-.2-1.9-.2-2.4v-1.3h1.9l7-.2 4-.5h.6v-.1l.2-.3-.1-.4-.3-1.3-.8-4.8-.2-1.4c-.6-2.3-2.2-1.6-3.4-1.3q-2.7.7-5.4.8l-7.3.5-5.7.5h-1l-.7.2q-.3 0-.4.3l.2 2.2c.2.7 0 2.3.3 2.8l.7.9.5.7v.4-.4l.5-.2q.4 0 .6-.2v-.6l-.2-2.2v-2h.2l.7-.1 1-.1q2.7-.4 5.6-.6l7.4-.4q2.7-.3 5.3-.8l.5-.2h.3c0-.2-2-2.5-2.3-1.5l.2 1.4.8 4.8.2 1.3v.5l.2-.2-.5.2-4 .5-6.8.2c-.7 0-1.5-.2-2 .3l-.2 1.4c.1 2 .2 4.1 3.2 4.5l3.5-.2h1.2l.2.1-2.2-1.3q.3.7.4 1.5.4 1.5.2 3c-.2.5-.4.3-.9.4-1 0-3.2 1-4.1 1q-.8 0-.7.8l.1 3 .1 1.3c1 .8 3 1 4.2 1l4.1-.2 5.3.2.3.1h.2l-2.4-1.3h.1v3.7l.2 4.5.2.7.1-.3h-.6l-7.6.6q-6 .6-12 .5c-1.5-.2-.8-.2 1.5 1.2l-.1-.3.1-.7.3-1.8-.2-9.2q0-7.9-1.2-15.8zm174.7 2.8q.4 4.5.6 9.2l.2 6.3a150 150 0 0 1-.6 11.6v.3c.1 1.2 2.1 1.5 3.2 1.7 4 .2 8-.3 12.1-.6l8-.2q.6.2.8-.4l-.4-.7q-.5-2.3-.4-4.5v-3.5c.2-1.4-1.9-1.8-3.1-2l-5.2-.1c-1.4 0-4 .8-5.5.8h-.2v-.2c.7.5 2.8.2 3.6.6l-.1-.2c-.1-.3-2.5-.4-1.6-.9-.3-1-.2-1.7-.3-3 0-.7 1.4-.6 2-.6l2.8-.3q.8.2 1-.6c.3-1 0-2.1 0-3.1l-.4-1.6c-.5-1.7-2.6-1.5-3.9-1.5h-2.2c-.5 0-4.6-1 .5 1.2l-.2-.3-.2-2.4V138h1.9l7-.2 4-.5.7-.1.1-.3-.1-.4-.3-1.3-.8-4.8-.1-1.4c-.7-2.3-2.3-1.7-3.5-1.3q-2.7.7-5.3.8l-7.4.5q-2.8.1-5.7.5h-1l-.7.1q-.3 0-.3.4v2.2c.3.6.1 2.3.4 2.8l.7.9.5.6v.5-.4l.5-.3q.4 0 .6-.2v-.6l-.2-2v-2.2h1l.9-.1 5.6-.6 7.4-.4q2.7-.2 5.4-.9h.4l.3-.2s-2-2.4-2.3-1.5l.2 1.5.8 4.8.2 1.3v.5l.2-.2-.5.2-4 .5-6.8.2c-.7 0-1.5-.2-2 .3q-.2.7-.1 1.4c0 2 .1 4.1 3 4.4h5l-2.2-1.3q.4.7.4 1.5.4 1.5.2 3c-.2.5-.4.3-.9.3-1 .1-3.2 1-4.1 1.1q-.8 0-.7.8l.1 3 .1 1.3c1.1.8 3 1 4.2.9l4.1-.1q2.7 0 5.3.2h.3l.2.2-2.4-1.5h.1v3.8q0 2.3.2 4.5l.2.7.1-.3h-.6l-7.6.6q-6 .7-12 .4c-1.5-.1-.8-.1 1.5 1.3v-1l.3-1.8-.1-9.2q-.2-8-1.3-15.8zm-140.9-8v1c.4 7-.2-5.4.3 4.5l.2 10.6q0 6.9-.3 13.7c.5-.2 1.6.7 1.8.4.7-1-1.3 1.2.8 2.6 0 0 .4-.2 0 0-1.3-1 .7-2.7-.6-3 0 0 1 .2-.2 0 0 0 .4-.6.1.4 1.9 1.5-1.1 2.5.2 2.4h4.9l3.3.2h1.5q.5-.7.2-1.4l-.4-3.7v-1.2c0-.2-.4.5 0 0q.3-.1.2-.4v-.2h.7q.2.2.5.2h.8l1.8-.7 2-1.1q1.2-.7 2.2-1.7l2-1.7q1-1.1 1.7-2.4a19 19 0 0 0 2.3-11l-.7-2.5q-.2-1-.8-1.9-1.7-1.7-4.1-2.7l-3-.7-3.6-.6a51 51 0 0 0-9.7-.6l-4 .1-.3.2q-.2 0-.2.2c0 .2.5.4.7.6l.2.3h.5l.8.4.2-.1h.3l1.3-.2 2.7.1h2.7a59 59 0 0 1 7 .6q1.7.4 3.5.6l3 .8-1.6-1 .9.7.2.2.9 1.8.7 2.5q.3 1.6.1 3.4a21 21 0 0 1-2.3 7.5 13 13 0 0 1-3.6 4l-2.2 1.7a11 11 0 0 1-3.8 1.6h-.7l-.5-.1h-.7q-.2.1-.3.4l-.1.2q-.2-.1-.3.2v1.2l.4 3.7v1h-1.4l-3.2-.1-3.2-.1c-.6 0 .6-1.3 0-1.3-1.4 0-2.8 1.5-.2 3.2h.3c1.2.4 4.2-.4 0-2.7q.8.1 0 .2c2.7 1.7.1 3 1 2.2.5-.5 0-.8 0-1.3v-13.9a245 245 0 0 0-.6-15l-.1-1.2z"/>
  <path stroke="#000" d="M218.3 134.3q-.4 3-.5 6v1.7c.5 1.5 1.8 1 2.6.7l1.8-1.2q.7-.8 1.2-1.7.3-.7.4-1.6a5 5 0 0 0-1.1-2.5q-1.5-1.3-3.2-1.8h-1.3l.5.7 1.3.5 1.3.2q.3 0 .5.2h.2c-3-1.8-1.9-1.1-1.3-.6a4 4 0 0 1 1.3 2.4q0 .8-.4 1.5-.3 1-1.1 1.7-.7.8-1.7 1.1l-.5.2h-.1c1.3 1 2 .9 1.4 1-.3-.4.2-1 0-1.5V135zm22.2-7.2c-.5.8-.2 3-.2 4.8l-.1 1.8q0 .1 0 0c2.5 1.3 2 1.8 2 1l-.2.2h.2l.5-.1 3-.5h2.4l.2.1h.6q.1.1 0 0c-2.4-1.3-2-1.6-2 0l.3 3.8.5 9.5.2 8.5v1.1l-.1.2 2.3 1.2h1.8l2.6-.2h2.2l1-.2h1l.9-.2h.3l.3-.2q.3-.7 0-1.4l-.3-2.1-.3-3.2-.3-3.3-.3-3-.2-2.6-.3-2.4q0-1.2-.3-2.2l-.2-1.7v-.7c0-.1-.4 0 0 0l1.3-.1h1.4l1-.1h1q.2 0 .2-.2V128c.2-1.4-1.3-1.2-2-1.5 0 0-1.2 0-1.8.2a27 27 0 0 1-9.9-.7l-2.2-.4-3.8-.3-1.6.2-1 .2-.6.2-.2.2v1.2l.2 1q.5.5 1.1.8v.2h.2l-.1-.1c.2-.1.6.2.8 0v-.9l-.2-.6.1-.3h.3l.6-.2 1-.2 1.6-.1 1.6.1 2.1.3q1.2 0 2.3.4l2.8.4a23 23 0 0 0 6.8 0c.6-.2 1.1.7 1 .5-3-1.8-1.1-2.4-1.2-1.7l-.1 1.4-.1 2.6v2.8h.1-3.4l-1.2.2q-.3 0-.4.2h-.1v.7l.3 1.7.3 2.2.2 2.5.3 2.6.3 3 .4 3.3.3 3.2q0 1 .3 2v1.2h-.6l-.8.2-2.1.1h-2.2l-2.6.3c-.6 0 .7.3.1.3.7.4-.4.6.3 1h-.1v-3l-.1-2.6-.3-4.2-.5-9.4-.1-3.8c0-1.6.1-1-2-2.4h-.8l-.5-.1h-.6l-3 .3-1.4.2h-.6l-.2.2c0 .7 0 0 2 1.1v-2c-.1-1.9.2-3.7-.1-5zm30.9 13.4 6.2-1 1.6-.2c.4.6 0 0-1.8-1v.1l.2.5q.2 3 .1 6v7.8l-.1 2.2v.4s-.1.5 0 .2c0-.2-.6-.2-.7-.2l-2.7.2-3.2.2h-1c-.7-.8 0 0 2.2 1.2v-.8l-.3-3.7-.4-5.4-.1-3.6v-2.1l.2-1q0-.2-.3-.3l-1.7-.8c-.2 0-.4-.3-.3 0l-.1.9v2.2l.1 3.6.3 5.3.1 3.7c0 1.6 0 .9 2.4 2.3 0 0 1 .2 1 0l3.3-.2h2.7l.9.2h.1v-.6l.1-.4-.1-2.3-.2-8v-3l-.2-3c-.3-.9-.9-2.4-2.2-1.9l-1.6.3q-3 .7-6.1 1zm3.9-16.1q-1-.5-2.3-.3t-2.2 1.1a6 6 0 0 0-1.7 2.8q-.2 1.3.1 2.6.4 1 1 1.8 1.5 1.4 3.4 2l.9.3a8 8 0 0 0 6-1.8q.9-.9 1.4-2 .1-1-.2-2-.2-.8-.8-1.7-1.7-1.6-4-2.6l-1.5-.6h-1.2q-.3 0 .2.3l.4.4v.2h.4q.6.6 1.4.7l1 .2 1.7.7c-4.4-2.6-1.9-1.3-1-.4l.8 1.6q.3.8.2 1.7-.3 1.2-1.2 2.1-1 1-2.5 1.4-1.5.5-3.1.3c-1.2-.3-2-1 1 .8l-.4-.2-.6-.5q-.8-.7-1.2-1.7-.4-1.2-.3-2.6a5 5 0 0 1 1.7-2.6q.8-.8 2-1.1l2 .3zm37.7 10.9-.2-2.2a15 15 0 0 0-2.1-4.5 8 8 0 0 0-2-1.7q-2-1.5-4.3-2-1.3-.2-2.6 0-1.6.3-3.1 1a16 16 0 0 0-4.7 4.2l-2.2 3q-.9 1.5-1.4 3.2a36 36 0 0 0-1.5 6.8 28 28 0 0 0 .4 6.5q.3 1.5 1 3 .6 1.4 1.7 2.7t2.6 2.3q2.4 1.6 5 2.7 1.8.3 3.5 0l2.4-1 1.5-1.1 1-1.1.4-.4q-.2.1 0 .1v.1l-2.4-1.4.7.6 1.1 1.3.8.8.3.3c8.4 5-1.9-1.2.4.3 1 .5 2 1.8 3.2 1.4q.4-.1.8-.7l.9-1.4.7-1.6.3-.7.1-.5q0-.4-.3-.6l-.8-1-1.2-.8-1.2-.8-1-.7q0-.2-.3-.2l.1-.4.4-1.1 1.7-5.3.4-2.8.3-2.3v-3.7q0-.6-.2-1l-.7-.5-1.1-.5c-.6-.2-.5-2.7-.8-2.7l.3 7-.3 2.4-.4 2.7a19 19 0 0 1-1.7 5.3l-.4 1.2-.2.5.2.3 1 .7 1.2.8 1.2.9.9.8.4.5-.1.5-.3.5-.8 1.6-.9 1.4q-.2.4-.6.5h-.4l2.4 1.3-.8-.5-.8-.8-1.8-2c-.2 0-1.7-1.5-2.8-1.5l-.1.2-.4.3-1 1.1a7 7 0 0 1-3.6 2 7 7 0 0 1-3.3 0l-.9-.3-.4-.3.8.5q-1.6-1-2.8-2.3-1-1.2-1.7-2.6t-1-3a23 23 0 0 1 0-9.9l1-3.2q.5-1.7 1.3-3.2a26 26 0 0 1 4.3-5.2q1.2-1 2.6-1.8t3.2-1a9 9 0 0 1 3.6.4c.9.4 2.4 1.3-1.2-.8q1.2.7 2 1.7 1 1 1.6 2.4l1 2.2q.4 1 .5 2.4z"/>
  <path stroke="#000" d="M302.4 132.7a5 5 0 0 0-2.4.1 5 5 0 0 0-2.2 1.7 17 17 0 0 0-3.2 7.1l-.5 3.8q-.1 1.8.3 3.5.5 1.5 1.4 3 1.6 1.7 4 2.5.7.3 1.7.1.6 0 1-.3.5 0 .4-.4l-.3-1.2q-.2-.9-.8-1.6l-1.8-1.6v-.5l1-2.5q0-.3.2-.2c1 .2 3 1.5-1-.7l1.7 1.3.6.5c.8.6 1.7 1.6 2.6 1.4q.3-.1.5-.5l.5-1.8 1-5.3a18 18 0 0 0-.4-4.4q-.3-1.2-1-2.4-.9-1.4-3-1.7c0 1 .7 0-.2.5l.3-.1 1.6.7-2-1.1h.2l.6.6a6 6 0 0 1 1 2.3l.3 4.3a24 24 0 0 1-.8 5.3q-.2 1-.6 1.7l-.1.3h-.1l2.1 1.2-.6-.5-1.7-1.4c-.2 0-2.6-1.8-3.6-1.7q-.3 0-.5.3l-.4 1-.6 1.6-.2.7.5.4 1.3 1.2.8 1.5.4 1.1-.1.2-1 .3-1.6-.2q-1.4-.7 1.6 1c.2 0-.2-.1-.3-.2l-.9-.8a9 9 0 0 1-2-6.4 29 29 0 0 1 1.5-7.6 14 14 0 0 1 2-3.3q.7-1.2 1.8-1.7 1-.3 2.1-.2zm21.2-5.3c-.2-.2-.6 1.2-.8 2q-.4 1-.5 2l-.3 3.2-.4 3.9v8.1a18 18 0 0 0 2.3 7.4q1 1.6 2.3 2.8 2.6 2.1 5.8 2.7 1.1.3 2.1-.4.8-.3 1.5-1l1.3-1.3q.8-.7 1.4-1.7.9-1.3 1.4-2.7a22 22 0 0 0 2-7l.3-3 .2-3.4v-6.2q0-1.4-.3-2.6c-.4-1.4-1.2-1.2-2.9-2.3l-1 .3-2.1.4-1.7.1q-.3 0-.7.3-.3.7-.3 1.6v4.9l-.1 2.4-.8 3.8a2 2 0 0 1-.8 1l-1.2.2q-.6 0-1-.4c-1-.5-.9-.4 2 1.2l-.2-.1-.7-.6q-.5-.6-.6-1.6l-.2-2.2v-2.5l.2-2.2q0-.8.3-1.6l.2-1.6v-.8l-.4-.6q-1.4-1.1-3-1.8h-.8l-.8-.2-1-.2-.4-.1-.3-.2 1.1 1 1.3.9.3.1.5.1.9.2h.8l.7.3-2-1.2q.2.1.3.4.2.4.1.8v1.5l-.3 1.7-.2 2.2v4.7q.2 1 .6 1.8c1 1.2 2.6 1.8 3.9 2.5l1.1.2q.7 0 1.3-.4t.9-1.1l.4-1.9a45 45 0 0 0 .4-7.2v-2q0-.8.2-1.4h.7l1.6-.3 2.1-.3q.5-.2 1-.1l-2.4-1.4q.3.2.4.6l.3 2.4v6.3l-.1 3.3a30 30 0 0 1-3.6 12.7l-1.3 1.7-2.8 2.2q-.9.5-2 .3-.7 0-1.6-.4c-.7-.3-2-1 1 .6l-.6-.4a9 9 0 0 1-2.4-2.6 18 18 0 0 1-2.3-7.4q-.3-2-.2-4.1v-4l.3-4 .3-3q0-1.2.3-2.2.3-1.2.8-2.2l-1.7-.5z"/>
  <path fill="#32e6fb" d="m521.2 130.7 5.4 2.2-.6 8 .9 4.3 1.7 1.7 2.1-.4 1.4-4.6.6-9.2 6.3-1v19.4l-2.8 7-3.9 3.5-4 1.7-5-2.8-2.9-6.5-1.3-12.5z"/>
  <path stroke="#000" stroke-width="1.1" d="M520.9 130.2c-.2-.2-.7 1.2-1 2l-.5 2.2-.3 3.3-.4 4v8.6a19 19 0 0 0 2.5 7.7q.9 1.6 2.4 2.9 2.9 2.2 6.2 2.9 1.1.2 2.3-.4l1.5-1.2 1.4-1.3q.8-.7 1.5-1.8l1.5-2.8a23 23 0 0 0 2.2-7.2l.3-3.3.2-3.5v-6.6q0-1.3-.3-2.6c-.4-1.5-1.3-1.3-3.1-2.4l-1.1.3q-1.1.3-2.3.3l-1.7.2q-.5 0-.8.3-.3.8-.3 1.7v5.1l-.1 2.5-.8 4q-.3.6-1 1-.5.3-1.2.2t-1.2-.4l2.3 1.3-.3-.2-.7-.5q-.5-.8-.7-1.7l-.1-2.3v-2.6l.2-2.3q0-1 .3-1.7l.1-1.7v-.8l-.3-.6q-1.4-1.3-3.3-2h-.8l-.9-.2-1-.1-.4-.2-.3-.1 1.1 1 1.4.9.3.1.5.1 1 .2.9.1.7.2-2.2-1.2.4.4.2.8-.1 1.6-.3 1.8-.2 2.3v4.9q0 1 .6 1.9c1 1.2 2.8 1.9 4.1 2.6l1.3.3q.8 0 1.3-.5.7-.4 1-1.2l.5-2a46 46 0 0 0 .3-7.4v-2.3q0-.7.3-1.4l.7-.1 1.7-.2 2.3-.4c.3 0 .8-.3 1 0l-2.6-1.6h.1l.4.7q.3 1.2.3 2.6v6.5l-.1 3.5a31 31 0 0 1-3.8 13.3l-1.4 1.7-3 2.4q-1 .5-2 .3l-1.8-.5c-.8-.3-2.3-1.1 1 .7l-.6-.4q-1.5-1.2-2.5-2.8a19 19 0 0 1-2.6-7.7l-.2-4.3v-4.2l.3-4.1.4-3.3q0-1.1.3-2.2l.9-2.4-1.9-.5z"/>
  <path fill="#32e6fb" stroke="#000" stroke-linejoin="bevel" stroke-width="2.9" d="m550 121.6 2.7 3.7 12.3-3.8-6.3-8.5z"/>
</svg>